<svg id="Layer_1" data-name="Layer 1" xmlns="http://www.w3.org/2000/svg" viewBox="0 0 18.83 8.15"><defs><style>.cls-1{fill:#e0e0e0;}.cls-2{fill:#a4a4a4;}.cls-3{fill:#d6d6d6;}.cls-4{fill:#383838;}.cls-5{fill:#a5a5a5;}.cls-6{fill:#323232;}.cls-7{fill:#cdcdcd;}.cls-8{fill:#bababa;}.cls-9{fill:#b4b4b4;}.cls-10{fill:#434343;}.cls-11{fill:#959595;}.cls-12{fill:#636363;}.cls-13{fill:#717171;}.cls-14{fill:#c3c3c3;}.cls-15{fill:#595959;}.cls-16{fill:#bebebe;}.cls-17{fill:#cfcfcf;}.cls-18{fill:#666;}.cls-19{fill:#6b6b6b;}.cls-20{fill:#c2c2c2;}.cls-21{fill:#8a8a8a;}.cls-22{fill:#b6b6b6;}.cls-23{fill:#484848;}.cls-24{fill:#838383;}.cls-25{fill:#6c6c6c;}.cls-26{fill:#ebebeb;}.cls-27{fill:#575757;}.cls-28{fill:#b3b3b3;}.cls-29{fill:#6e6e6e;}.cls-30{fill:#818181;}.cls-31{fill:#333;}.cls-32{fill:#a8a8a8;}.cls-33{fill:#8e8e8e;}.cls-34{fill:#3f3f3f;}.cls-35{fill:#c8c8c8;}.cls-36{fill:#3b3b3b;}.cls-37{fill:#e1e1e1;}.cls-38{fill:gray;}.cls-39{fill:#777;}.cls-40{fill:#757575;}.cls-41{fill:#373737;}.cls-42{fill:#969696;}.cls-43{fill:#9d9d9d;}.cls-44{fill:#737373;}.cls-45{fill:#606060;}.cls-46{fill:#adadad;}.cls-47{fill:#585858;}.cls-48{fill:#7b7b7b;}.cls-49{fill:#545454;}.cls-50{fill:#5c5c5c;}.cls-51{fill:#929292;}.cls-52{fill:#9b9b9b;}.cls-53{fill:#4a4a4a;}.cls-54{fill:#d7d7d7;}.cls-55{fill:#212121;}.cls-56{fill:#bfbfbf;}.cls-57{fill:#7c7c7c;}.cls-58{fill:#202020;}.cls-59{fill:#414141;}.cls-60{fill:#dcdcdc;}.cls-61{fill:#d8d8d8;}.cls-62{fill:#e3e3e3;}.cls-63{fill:#9e9e9e;}.cls-64{fill:#353535;}.cls-65{fill:#474747;}.cls-66{fill:#464646;}.cls-67{fill:#4b4b4b;}.cls-68{fill:#424242;}.cls-69{fill:#c7c7c7;}.cls-70{fill:#868686;}.cls-71{fill:#7e7e7e;}.cls-72{fill:#d4d4d4;}.cls-73{fill:#7d7d7d;}.cls-74{fill:#858585;}.cls-75{fill:#a0a0a0;}.cls-76{fill:#989898;}.cls-77{fill:#6d6d6d;}.cls-78{fill:#515151;}.cls-79{fill:#888;}.cls-80{fill:#828282;}.cls-81{fill:#c9c9c9;}.cls-82{fill:#363636;}.cls-83{fill:#c4c4c4;}.cls-84{fill:#494949;}.cls-85{fill:#aaa;}.cls-86{fill:#646464;}.cls-87{fill:#454545;}.cls-88{fill:#505050;}.cls-89{fill:#999;}.cls-90{fill:#a6a6a6;}.cls-91{fill:#7f7f7f;}.cls-92{fill:#656565;}.cls-93{fill:#727272;}.cls-94{fill:#393939;}.cls-95{fill:#4e4e4e;}.cls-96{fill:#6f6f6f;}.cls-97{fill:#8d8d8d;}.cls-98{fill:#e5e5e5;}.cls-99{fill:#616161;}.cls-100{fill:#1f1f1f;}.cls-101{fill:#797979;}.cls-102{fill:#676767;}.cls-103{fill:#5a5a5a;}.cls-104{fill:#2d2d2d;}.cls-105{fill:#3a3a3a;}.cls-106{fill:#232323;}.cls-107{fill:#d1d1d1;}.cls-108{fill:#b9b9b9;}.cls-109{fill:#787878;}.cls-110{fill:#252525;}.cls-111{fill:#3d3d3d;}.cls-112{fill:#565656;}.cls-113{fill:#949494;}.cls-114{fill:#282828;}.cls-115{fill:#bcbcbc;}.cls-116{fill:#555;}.cls-117{fill:#9c9c9c;}.cls-118{fill:#b5b5b5;}.cls-119{fill:#3e3e3e;}.cls-120{fill:#1e1e1e;}.cls-121{fill:#181818;}.cls-122{fill:#c6c6c6;}.cls-123{fill:#767676;}.cls-124{fill:#979797;}.cls-125{fill:#cacaca;}.cls-126{fill:#919191;}.cls-127{fill:#2e2e2e;}.cls-128{fill:#1d1d1d;}.cls-129{fill:#909090;}.cls-130{fill:#2b2b2b;}.cls-131{fill:#d2d2d2;}.cls-132{fill:#afafaf;}.cls-133{fill:#303030;}.cls-134{fill:#a1a1a1;}.cls-135{fill:#eaeaea;}.cls-136{fill:#696969;}.cls-137{fill:#9f9f9f;}.cls-138{fill:#a7a7a7;}.cls-139{fill:#d3d3d3;}.cls-140{fill:#a2a2a2;}.cls-141{fill:#dbdbdb;}.cls-142{fill:#5d5d5d;}.cls-143{fill:#a3a3a3;}.cls-144{fill:#d0d0d0;}.cls-145{fill:#e9e9e9;}.cls-146{fill:#f2f2f2;}.cls-147{fill:#a9a9a9;}.cls-148{fill:#1c1c1c;}.cls-149{fill:#0c0c0c;}.cls-150{fill:#0a0a0a;}.cls-151{fill:#343434;}.cls-152{fill:#2c2c2c;}.cls-153{fill:#707070;}.cls-154{fill:#111;}.cls-155{fill:#5f5f5f;}.cls-156{fill:#acacac;}.cls-157{fill:#131313;}.cls-158{fill:silver;}.cls-159{fill:#b8b8b8;}.cls-160{fill:#b1b1b1;}.cls-161{fill:#3c3c3c;}.cls-162{fill:#898989;}.cls-163{fill:#2a2a2a;}.cls-164{fill:#4f4f4f;}.cls-165{fill:#b0b0b0;}.cls-166{fill:#ccc;}.cls-167{fill:#8b8b8b;}.cls-168{fill:#aeaeae;}.cls-169{fill:#c1c1c1;}.cls-170{fill:#747474;}.cls-171{fill:#bbb;}.cls-172{fill:#4d4d4d;}.cls-173{fill:#686868;}.cls-174{fill:#f3f3f3;}.cls-175{fill:#ababab;}</style></defs><path class="cls-1" d="M17.83,6l1,1.1v.14L17.76,6.06Z"/><path class="cls-2" d="M18.83.43a5.49,5.49,0,0,0-.81,0,.34.34,0,0,1-.17,0,.34.34,0,0,1,.27-.07h.71Z"/><path class="cls-3" d="M12,5a2.73,2.73,0,0,1,.34.54.52.52,0,0,0,0,.3s.06.11,0,.15-.12,0-.17,0A1.77,1.77,0,0,1,12,5.7s0-.07-.09-.06a3.49,3.49,0,0,1-.47-.82.16.16,0,0,1,.25,0C11.8,4.93,11.9,4.92,12,5Z"/><path class="cls-4" d="M1.36,2.49A1.48,1.48,0,0,0,2,2.34c0-.13,0-.26.17-.32a.15.15,0,0,1,.13,0,.13.13,0,0,1,0,.18s0,.1,0,.15-.11.13-.16.21-.12.08-.19.11-.09.21-.2.27S1.6,3,1.54,3a.1.1,0,0,1,0-.14c0-.11-.09-.14-.14-.22S1.32,2.53,1.36,2.49Z"/><path class="cls-5" d="M13.08,2.52a7.4,7.4,0,0,1,1.34.62,3,3,0,0,1,.6.41c0,.06,0,.06-.07,0a9.67,9.67,0,0,0-2-1C13,2.51,13,2.56,13.08,2.52Z"/><path class="cls-6" d="M1.62,1.39A1.92,1.92,0,0,1,1.17.94s-.08,0,0-.1.08,0,.1.06A.2.2,0,0,0,1.33,1a.59.59,0,0,1,.3.16,3.74,3.74,0,0,0,.77.46l.05,0a.17.17,0,0,1,0,.18c-.06.09-.12.1-.22,0a1.72,1.72,0,0,0-.37-.22A.83.83,0,0,1,1.62,1.39Z"/><path class="cls-7" d="M12,5.64c.07,0,.1,0,.15.06s.12.17.24.2c0-.14-.18-.27,0-.4l.13.25a.68.68,0,0,0,.07.27c0,.12-.11.18-.1.29s-.06,0-.07,0C12.23,6.06,12.05,5.88,12,5.64Z"/><path class="cls-3" d="M7,5.07c-.08.35-.2.69-.31,1,0,.07,0,.19-.09.21s-.16.08-.16-.1c0,0,0,0,0-.08a.36.36,0,0,1,0-.1.73.73,0,0,0,.19-.45l0,0c.09-.14.12-.31.24-.42S7,5,7,5.07Z"/><path class="cls-8" d="M11.28,3.41a.23.23,0,0,1-.23.1h0a.15.15,0,0,1-.1-.17s.06-.1.11-.08.16,0,.19-.15a1.76,1.76,0,0,0,.07-.4.12.12,0,0,1,.06-.08c.09,0,.14,0,.17.09a.16.16,0,0,0,.06.08,2.26,2.26,0,0,1,0,.26c0,.06,0,.15-.08.14S11.33,3.31,11.28,3.41Z"/><path class="cls-9" d="M11.68,4.89c0-.08-.16,0-.2-.07l-.1-.14a.42.42,0,0,1,.07-.29c0-.06.06-.06.1,0a2.43,2.43,0,0,1,.33.46C11.87,4.93,11.82,5,11.68,4.89Z"/><path class="cls-10" d="M.73,3.45a3.88,3.88,0,0,0,.36-.15c.07,0,.15-.07.21,0a.07.07,0,0,1,0,.05.12.12,0,0,1-.09.14c-.11,0-.18.16-.32.11s-.05,0-.07.06-.21,0-.32,0-.06,0,0-.09.08-.15.18-.12S.71,3.47.73,3.45Z"/><path class="cls-7" d="M6.47,6.13a.16.16,0,0,1,0,.16s.1,0,.11,0-.09.33-.14.49a.27.27,0,0,1-.06.12c-.06,0-.07-.08-.13-.09s-.08-.14,0-.22l.14-.39S6.41,6.12,6.47,6.13Z"/><path class="cls-11" d="M13.08,2.52l-.13,0c-.38-.12-.76-.2-1.14-.29,0,0,0-.09.08-.07a3.14,3.14,0,0,1,1,.26A1.39,1.39,0,0,0,13.08,2.52Z"/><path class="cls-12" d="M1.72,1.78c-.1-.07-.22,0-.34-.05s-.17-.13-.28-.07h0C1,1.32.8,1.58.66,1.51s0-.09.1-.1.23,0,.34,0a.46.46,0,0,0,.3.08.19.19,0,0,0,.28,0,.18.18,0,0,1,.16.14.14.14,0,0,1,0,.11A.11.11,0,0,1,1.72,1.78Z"/><path class="cls-13" d="M7.07,4.39l.1-.1s.09,0,.13,0a.25.25,0,0,1,.12.19.45.45,0,0,1-.08.23h0c-.09.07-.06-.07-.12-.07s-.07.25-.24.18-.07,0-.11,0A1.13,1.13,0,0,1,7.07,4.39Z"/><path class="cls-14" d="M15.76,4.08a11.92,11.92,0,0,1,1.07,1s0,0,0,0c-.35-.29-.7-.59-1-.91C15.74,4.13,15.73,4.1,15.76,4.08Z"/><path class="cls-15" d="M4.07.14,4.21.08A.23.23,0,0,1,4.5,0c.07,0,.16,0,.21.07s0,0,0,0-.05.09-.1.12l-.07,0A.63.63,0,0,0,4,.36a.15.15,0,0,1-.17,0c-.07,0,0-.11,0-.17A.24.24,0,0,1,4.07.14Z"/><path class="cls-16" d="M7.38,4.51a.37.37,0,0,0-.11-.18c.06-.1.18,0,.24-.09l.18-.08c.16-.09.18-.09.26.1s-.17.13-.24.21l-.23.14C7.43,4.6,7.35,4.6,7.38,4.51Z"/><path class="cls-17" d="M16.79,5.07l0,0c.28.24.53.5.78.76a2.09,2.09,0,0,0,.22.2.12.12,0,0,1-.07.07L17,5.32A1.42,1.42,0,0,1,16.79,5.07Z"/><path class="cls-18" d="M11.08,3.71l.07,0c.07,0,0,.12,0,.19s.21.19.26.34,0,.23-.15.26l0-.11c0-.13-.06-.19-.13-.25h0l0-.07c-.05-.08-.17,0-.2-.11A.33.33,0,0,1,11.08,3.71Z"/><path class="cls-19" d="M.83,3.68c.05-.16.22-.15.33-.24s.08,0,.1-.07.18-.1.24,0c-.13,0-.22.17-.34.21S.93,3.65.83,3.68Z"/><path class="cls-20" d="M6.71,5.57a.94.94,0,0,1-.13.4A.09.09,0,0,1,6.47,6s0,0,0,0l0-.08a.43.43,0,0,0,.08-.27l.22-.63c0-.06,0-.13.1-.15s0,.12,0,.17A2.11,2.11,0,0,0,6.71,5.57Z"/><path class="cls-21" d="M13.08,6.81l.14.1c0,.09.13.08.18.14s.11.06,0,.14l0,0c-.18.06-.3-.1-.45-.15C13,6.93,12.94,6.81,13.08,6.81Z"/><path class="cls-22" d="M6.34,6.78c.14,0,.07.08.07.14s-.1.32-.2.46,0,0,0-.08a.62.62,0,0,0,0-.27l0-.22a.07.07,0,0,1,.1,0A.07.07,0,0,0,6.34,6.78Z"/><path class="cls-23" d="M1.26,3.33l-.17,0,.07-.06c.05,0,.1-.05.1-.12s-.09,0-.12-.09a.28.28,0,0,1,.16-.09A.17.17,0,0,1,1.49,3s0,0,0,.05S1.47,3.39,1.26,3.33Z"/><path class="cls-24" d="M6.13,7.48a.31.31,0,0,1-.23.25.08.08,0,0,1-.07-.05.53.53,0,0,1,0-.13c.1-.07.12-.19.2-.28A.37.37,0,0,1,6.13,7.48Z"/><path class="cls-25" d="M13.45,7.19a.37.37,0,0,0-.19-.2s-.09,0,0-.08l.25.14h0c.1,0,.11.14.15.23s0,0-.05,0S13.5,7.25,13.45,7.19Z"/><path class="cls-10" d="M2.36.9c.08.16.18,0,.27,0a.1.1,0,0,1,.06.1.32.32,0,0,1-.5.14.1.1,0,0,1,0-.14A.11.11,0,0,1,2.3,1S2.31.91,2.36.9Z"/><path class="cls-26" d="M6.71,5.57c-.07-.05,0-.11,0-.16s.11-.34.17-.51V4.82c.09-.05.11-.16.2-.25,0,.1-.07.15-.06.22S7,4.91,7,5c-.1.2-.18.41-.27.61Z"/><path class="cls-27" d="M.73,3.45c0,.12-.18.1-.26.17A.35.35,0,0,0,0,3.69c0-.1,0-.18,0-.26s.25,0,.37,0A1,1,0,0,0,.73,3.45Z"/><path class="cls-20" d="M6.71,5.57a3.83,3.83,0,0,1,.22-.65C7,4.92,7,5,7,5l0,.07C6.89,5.22,6.83,5.42,6.71,5.57Z"/><path class="cls-7" d="M2.17,1.49A3.32,3.32,0,0,1,1.43,1l0,0c.18.12.33.31.57.28a.18.18,0,0,0,.11.1C2.23,1.41,2.23,1.43,2.17,1.49Z"/><path class="cls-28" d="M15,3.58l.07,0a2.49,2.49,0,0,1,.5.35s0,.05,0,0A6.18,6.18,0,0,1,15,3.58Z"/><path class="cls-29" d="M11.58,2.8s0,.09-.07.11,0-.1,0-.15a.57.57,0,0,1,.12-.5,0,0,0,0,1,.05,0c.06.12,0,.21,0,.32Z"/><path class="cls-30" d="M1.8,1.67a.18.18,0,0,0-.13-.11s-.1,0-.1-.06.06-.06.05-.11.2.13.3.18.13.05.06.14A.12.12,0,0,1,1.8,1.67Z"/><path class="cls-31" d="M1.36,2.49s.09.09,0,.13S1.14,2.41,1,2.31H1.1C1.18,2.38,1.3,2.38,1.36,2.49Z"/><path class="cls-32" d="M7,5a.18.18,0,0,1-.11-.08s0-.1.08-.13a.09.09,0,0,0,.11-.07c.08-.16.15-.1.22,0C7.15,4.7,7.1,4.86,7,5Z"/><path class="cls-33" d="M12.71,6.31l.11.14c0,.06,0,.08-.05.11s0,.07-.06.09,0,0,0,0-.12-.15-.16-.24S12.63,6.28,12.71,6.31Z"/><path class="cls-34" d="M2.63.82a1.81,1.81,0,0,1-.3-.25h.13l.34.2a.07.07,0,0,1,0,.1C2.7.91,2.66.86,2.63.82Z"/><path class="cls-35" d="M11.68,4.89c.05-.08.15,0,.2-.07L12,5C11.78,5.06,11.71,5.05,11.68,4.89Z"/><path class="cls-36" d="M1.57,1.5l.1.06c-.07.15-.22.06-.32.07s0-.09,0-.14Z"/><path class="cls-37" d="M11.41,4.3,11.15,4c0-.13.06-.1.12,0s.11.19.2.26l0,.09S11.45,4.31,11.41,4.3Z"/><path class="cls-38" d="M13.08,6.81C13,6.86,13.07,7,13,7a.17.17,0,0,1-.08-.14c-.05-.06-.09-.12-.05-.2s.09,0,.13,0a.63.63,0,0,0,.12.11Z"/><path class="cls-39" d="M12.42,6.31c-.08-.12,0-.19.06-.28s0-.06.07,0a.13.13,0,0,1,.07.14c-.07.06,0,.2-.17.19Z"/><path class="cls-40" d="M11.47,4.19c-.1,0-.12-.12-.17-.18s-.08-.13-.15,0-.09,0,0-.1a.12.12,0,0,0,0-.11c.12.05.16.2.26.28Z"/><path class="cls-41" d="M.43,3.48l-.26,0c-.07,0-.1,0-.11-.1S.31,3.4.43,3.48Z"/><path class="cls-25" d="M6.11,7c.11,0,.18.11.09.24s-.06.13-.12,0a.32.32,0,0,0,0-.09C6.08,7.14,6.06,7.07,6.11,7Z"/><path class="cls-42" d="M11.41,4.3l.11,0,0,.08c-.09.09-.1.22-.17.32l-.07-.13C11.36,4.47,11.45,4.41,11.41,4.3Z"/><path class="cls-43" d="M2.3,1l0,0C2.13,1.11,2,1,1.93,1L1.73.82c.11,0,.2.06.3.07A.66.66,0,0,1,2.3,1Z"/><path class="cls-44" d="M11.65,2.27h0s0,0-.06,0a.09.09,0,0,1,0-.12c.11,0,.22,0,.31.08l-.08.07Z"/><path class="cls-24" d="M5.87,7.65l0,.08c0,.13-.15.14-.26.15a.1.1,0,0,1,0-.08C5.67,7.7,5.74,7.62,5.87,7.65Z"/><path class="cls-38" d="M6.05,7.2c.06,0,.06.14.15.07v.11l-.08.1A.15.15,0,0,1,6,7.27Z"/><path class="cls-42" d="M6.34,6.78c0,.06,0,.12-.06.08a.39.39,0,0,0-.14-.05c0-.12.07-.16.1-.25s0,0,0,0S6.21,6.76,6.34,6.78Z"/><path class="cls-9" d="M6.27,6.6l0,0L6.44,6h0v.1C6.37,6.27,6.36,6.45,6.27,6.6Z"/><path class="cls-45" d="M1.46,3.05a.36.36,0,0,1-.16-.11l.2-.1.06.1C1.59,3,1.54,3.06,1.46,3.05Z"/><path class="cls-46" d="M12.45,6.32c0-.08.07-.17.17-.19a.38.38,0,0,0,.09.18.27.27,0,0,0-.2.08Z"/><path class="cls-47" d="M4.7.14v0a.3.3,0,0,0,.16,0L5,.11s0,.07,0,.08l-.08,0,0,.08C4.68.36,4.73.22,4.7.14Z"/><path class="cls-48" d="M5.57,8v.14c-.21-.1-.21-.1-.1-.24S5.57,7.94,5.57,8Z"/><path class="cls-49" d="M1.1,1.41a.34.34,0,0,1-.34,0C.87,1.27,1,1.38,1.1,1.41Z"/><path class="cls-50" d="M3.59.39l-.08,0c.09-.06.21,0,.3-.06l.09,0s0,.06,0,.11-.07.1-.14.09H3.66A.18.18,0,0,1,3.59.39Z"/><path class="cls-51" d="M12.85,6.67l0,.21c-.14,0-.17-.13-.21-.25h.05s.08,0,.12,0Z"/><path class="cls-45" d="M5.57,8l-.1-.1a.32.32,0,0,1,.13-.15s.05,0,0,0v.08Z"/><path class="cls-51" d="M13.08,6.81c-.1,0-.14-.11-.23-.14h0s-.06,0-.06-.08,0-.08.09-.06Z"/><path class="cls-28" d="M15.48,3.94l0,0,.24.18v.08A1.13,1.13,0,0,1,15.48,3.94Z"/><path class="cls-13" d="M5.64,7.8l0,0a.81.81,0,0,1,.24-.21l0,.1A.51.51,0,0,0,5.64,7.8Z"/><path class="cls-52" d="M11.14,4.19c.19.07.21.12.13.25Z"/><path class="cls-9" d="M12.55,6l-.07,0c-.09-.09,0-.19,0-.28Z"/><path class="cls-9" d="M6.55,5.68A.2.2,0,0,1,6.47,6Z"/><path class="cls-5" d="M7.38,4.51s.08.06.1.1l-.14.1C7.35,4.65,7.3,4.56,7.38,4.51Z"/><path class="cls-20" d="M12.88,6.53l-.06.07c-.08,0-.12,0-.1-.11s.09,0,.1,0Z"/><path class="cls-4" d="M3.13.54,3,.46c.08-.1.16,0,.25,0h0s0,0,0,.06S3.17.55,3.13.54Z"/><path class="cls-32" d="M16.67.54,15.61.7c-.4.06-.79.16-1.19.26,0,0-.07-.06-.05-.11s.2,0,.28-.13h.07a.13.13,0,0,0,.12,0L16.19.5c.13-.14.2-.14.33,0h.1S16.67.5,16.67.54Z"/><path class="cls-15" d="M10.28,1l.27.06c0,.05.07.07.11.1a.33.33,0,0,1,.2.3c0,.08.05.18,0,.23s-.16-.15-.28-.09-.06-.11-.12-.13l0,0s-.08-.11-.13,0-.09.17-.27,0a.38.38,0,0,1,0-.15C10,1.11,10.14,1.06,10.28,1Z"/><path class="cls-53" d="M8.81,1.27a.46.46,0,0,1,.3-.06s.09,0,.12,0a.09.09,0,0,1,0,.07c0,.07-.15,0-.09.13s.1,0,.16,0,.2.1.31,0,.13.11.11.21-.1.15-.21.11a.32.32,0,0,0-.27,0,.39.39,0,0,1-.28,0,.5.5,0,0,0-.17-.11.15.15,0,0,1-.07-.12c0-.06,0-.12,0-.18S8.79,1.31,8.81,1.27Z"/><path class="cls-22" d="M14.39.86l0,.1c-.07.1-.19.13-.27.21s-.08,0-.13,0a2,2,0,0,1-.34.12.57.57,0,0,0-.29,0l-.05,0a.1.1,0,0,1-.06-.1.23.23,0,0,1,.1-.14,2,2,0,0,1,.24,0,.71.71,0,0,0,.67-.21.11.11,0,0,1,.08,0S14.39.84,14.39.86Z"/><path class="cls-54" d="M9.24,1.17a3.29,3.29,0,0,1,0-1c.07,0,.15-.13.2,0s0,.2,0,.3a1.1,1.1,0,0,1,0,.27s0,0,0,0a0,0,0,0,1,0,0c0,.12-.06.27.07.36a.07.07,0,0,1,0,.06C9.44,1.2,9.35,1.27,9.24,1.17Z"/><path class="cls-55" d="M6.91,1H7a.14.14,0,0,1,0,.16A.11.11,0,0,1,7,1.29a.24.24,0,0,0-.08.06l-.07,0c-.09,0-.13.05-.17.13a.89.89,0,0,0-.06.39,1,1,0,0,1-.06.16.17.17,0,0,1-.12.06c-.14-.09-.08-.24-.05-.34a.92.92,0,0,0,0-.28.18.18,0,0,1,.08-.15c.1-.07.13-.22.25-.28A.68.68,0,0,1,6.91,1Z"/><path class="cls-39" d="M8.81,1.27c0,.06,0,.08,0,.11a.1.1,0,0,1-.08.09.66.66,0,0,0-.39.19s0,.07,0,.1-.1.11-.18,0a1,1,0,0,1,0-.25.43.43,0,0,1,0-.05c0-.06,0-.12.07-.18s0,0,0,0a.94.94,0,0,1,.5,0A.57.57,0,0,0,8.81,1.27Z"/><path class="cls-56" d="M11.25.92A1.62,1.62,0,0,1,12,.68a.27.27,0,0,1,0,.26.42.42,0,0,1-.29.07c-.1,0-.19,0-.29,0s-.18.06-.21-.08A.08.08,0,0,1,11.25.92Z"/><path class="cls-57" d="M12,.92a.4.4,0,0,1,0-.24A3,3,0,0,1,12.43.6c.06,0,.13,0,.16.07s-.11.18-.19.17-.18.09-.2.2-.14.14-.25.11S11.92,1,12,.92Z"/><path class="cls-58" d="M7.71,1.17a.24.24,0,0,1,.23,0c0,.16-.17.23-.23.36l-.14.22s0,0-.07,0a.12.12,0,0,1-.11-.08c-.08-.11,0-.24,0-.36s.07-.18.18-.17S7.66,1.15,7.71,1.17Z"/><path class="cls-59" d="M7.71,1.17c-.08,0-.09.22-.23.09s-.05.06-.07.09,0,.06-.08,0a.1.1,0,0,1,0,0s0-.06-.08-.05S7,1.23,7,1.14,7,1.05,7,1C7.21,1.08,7.48,1,7.71,1.17Z"/><path class="cls-29" d="M7.54,1.7c.12-.19.17-.43.4-.52a.56.56,0,0,1,.24.1v0c0,.09-.13,0-.15.11s0,.06,0,.09,0,0,0,.05a.31.31,0,0,1-.09.07.57.57,0,0,0-.16.11C7.68,1.73,7.59,1.82,7.54,1.7Z"/><path class="cls-41" d="M9.24,1.17c.11,0,.2,0,.3,0s.23,0,.34-.06H10c.08.08,0,.13,0,.2s-.2,0-.2.14a.1.1,0,0,1-.11.07s-.07,0-.12,0-.09-.11-.13-.17-.15,0-.19-.1l-.1,0Z"/><path class="cls-60" d="M4.86.24c0-.07.09-.06.1-.13A3.61,3.61,0,0,1,6.08.8L5.45.44A1.07,1.07,0,0,0,4.86.24Z"/><path class="cls-61" d="M5.17.42A5,5,0,0,1,6.24,1c-.07.09-.16.07-.25.06A.31.31,0,0,1,5.65.84.6.6,0,0,0,5.33.6c-.06,0-.15,0-.18-.13S5.16.44,5.17.42Z"/><path class="cls-62" d="M9.58.46,9.51.5c-.14,0-.08-.13,0-.2s.06,0,.08-.09,0-.16.13-.18.13.21.17.33a.29.29,0,0,1,0,.09s0,.13,0,.16A.13.13,0,0,1,9.64.54.17.17,0,0,0,9.58.46Z"/><path class="cls-2" d="M16.67.54s-.06,0-.05-.07l.93-.08a.31.31,0,0,1,.21,0A8.05,8.05,0,0,1,16.67.54Z"/><path class="cls-63" d="M12.15,1c-.05-.16,0-.24.16-.22s.18-.09.28-.11h0c.08,0,.19,0,.06.15s0,.1-.06.14L12.48,1A1.22,1.22,0,0,1,12.15,1Z"/><path class="cls-14" d="M13.62,1c0,.11-.15.06-.23.07h0c0-.08-.1-.07-.16-.08a.5.5,0,0,1-.34-.15.14.14,0,0,1,0-.11A1.67,1.67,0,0,1,13.62,1Z"/><path class="cls-3" d="M9.58.46c.09,0,.13.11.22.07s0-.09,0-.14,0-.11.06-.14a.3.3,0,0,1,0,.38A.12.12,0,0,1,9.71.7c-.06,0-.08,0-.1-.1Z"/><path class="cls-64" d="M5.94,1h.43a.06.06,0,0,1,0,.07.77.77,0,0,1-.21.14,1.6,1.6,0,0,0-.23,0c-.07,0-.17,0-.2-.1a.14.14,0,0,1,0-.06A.22.22,0,0,1,5.94,1Z"/><path class="cls-9" d="M12.88.71s0,.05,0,.07,0,.11,0,.15l0,0a.83.83,0,0,1-.15,0,.11.11,0,0,1-.09-.09c0-.05,0-.12.05-.15s0-.08,0-.11S12.79.73,12.88.71Z"/><path class="cls-65" d="M4.7.14l.14.18,0,0a.12.12,0,0,1,0,.17c-.15.09-.19-.1-.29-.11a.17.17,0,0,1,0,0,.24.24,0,0,1,0-.15Z"/><path class="cls-66" d="M9.91,1.24,10,1.06l.3-.06a.67.67,0,0,0-.24.31C10,1.35,9.93,1.32,9.91,1.24Z"/><path class="cls-67" d="M10.81,1.46a.33.33,0,0,0-.2-.28s-.13,0-.06-.12.21.17.33.22h0l0,.05c0,.06,0,.12,0,.16S10.82,1.52,10.81,1.46Z"/><path class="cls-60" d="M11.25.92V1s0,.07,0,.1a.52.52,0,0,1-.36.22h0A.17.17,0,0,1,11,1.06Z"/><path class="cls-68" d="M6.34,1l0,0c.11-.09.23,0,.34,0a1.33,1.33,0,0,1,.2,0,.42.42,0,0,1-.17.1.79.79,0,0,0-.34.06C6.34,1.13,6.29,1.1,6.34,1Z"/><path class="cls-69" d="M9.54.21c0,.1-.12.18,0,.29a.66.66,0,0,0,0,.24h0C9.36.68,9.46.56,9.38.5a.39.39,0,0,1,0-.28s.06,0,.09,0Z"/><path class="cls-70" d="M14.34.85s0,0-.05-.07a.32.32,0,0,1,.12-.11c.08,0,.14-.07.21-.07l.1.11,0,0A2.47,2.47,0,0,0,14.34.85Z"/><path class="cls-71" d="M9.84.25c0,.06,0,.12-.06.14,0-.15,0-.24-.11-.36C9.9,0,9.8.17,9.84.25Z"/><path class="cls-72" d="M5.17.42v0s0,.07-.08.1a.18.18,0,0,1-.1,0A.16.16,0,0,1,4.9.36C5,.31,5.08.38,5.17.42Z"/><path class="cls-73" d="M4.9.36A.22.22,0,0,0,5,.54s.09,0,.09.09,0,.08-.08.11A.16.16,0,0,1,4.82.69c0-.07,0-.13,0-.19l0-.15Z"/><path class="cls-74" d="M9.5.22s-.06,0-.09,0-.11,0-.17,0S9.31,0,9.4,0,9.46.16,9.5.22Z"/><path class="cls-12" d="M14.62.6a.16.16,0,0,1-.21.07C14.47.61,14.53.53,14.62.6Z"/><path class="cls-66" d="M9.88,1.07a.52.52,0,0,1-.34.06v0A.62.62,0,0,1,9.88,1.07Z"/><path class="cls-75" d="M11.78,1.81c0,.09-.15.08-.23.1s-.08,0-.1,0-.1-.13-.18-.16,0-.1,0-.14a1.94,1.94,0,0,1,.59-.06.15.15,0,0,1,.13,0c0,.09,0,.13-.08.13S11.82,1.75,11.78,1.81Z"/><path class="cls-33" d="M11.78,1.81c0-.06,0-.08.06-.08a.22.22,0,0,0,.14,0,.86.86,0,0,1,.66-.32s.12,0,.11.13A3,3,0,0,1,11.78,1.81Z"/><path class="cls-57" d="M11.32,1.77s.09,0,.09.06,0,.09,0,.12a.36.36,0,0,1,.13.17.24.24,0,0,1,0,.12.09.09,0,0,1-.14,0s0-.08-.09-.11L11.27,2c0-.07,0-.14,0-.21Z"/><path class="cls-63" d="M12.75,1.52l-.12-.06c-.05-.12,0-.13.1-.15L13,1.24c.14.06.28-.06.42,0v0C13.18,1.38,13,1.44,12.75,1.52Z"/><path class="cls-76" d="M13.68,1.28a.64.64,0,0,1,.38-.18s.08,0,.09.07C14,1.22,13.86,1.35,13.68,1.28Z"/><path class="cls-77" d="M1.46,3.05l.1-.11c.17,0,.15-.28.3-.35.11.1.18,0,.24-.06s.12-.07.19-.09.13,0,.11.12,0,.13-.13.15a.48.48,0,0,0-.2.15,1.55,1.55,0,0,1-.4.37c-.08,0-.21,0-.21-.15Z"/><path class="cls-50" d="M4,2.94c-.06-.06-.1-.15-.19-.18l-.21-.17a.3.3,0,0,1,0-.1c0-.11-.11-.16-.07-.28a.14.14,0,0,1,.07-.08c.06,0,.11-.09.19,0s.1,0,.11.11.07.13,0,.21l0,0s0,0,0,0,.08,0,.11.05l0,.06a.22.22,0,0,1,0,.08v0s0,0,0,0,0,0,0,0,.06-.05.09-.08.07-.19.19-.2a1.87,1.87,0,0,1,.1.62A.49.49,0,0,1,4,2.94Z"/><path class="cls-78" d="M3.67,2.52s0,0,0,.07c-.26-.12-.49-.3-.76-.4-.06,0,0-.11,0-.16s.27,0,.4,0l.1.05s.12,0,.14.09S3.63,2.4,3.67,2.52Z"/><path class="cls-79" d="M2.9,2.06l0,.13c-.09,0-.13.08-.2.12s-.13,0-.18.1a.17.17,0,0,1-.28-.06c0-.16.17-.21.22-.34A.34.34,0,0,1,2.6,1.9h.1s.11,0,.16.07S2.92,2,2.9,2.06Z"/><path class="cls-80" d="M2.23,2.34c.08.09.15.09.23,0a1.57,1.57,0,0,1,.27-.19l-.06.17a1.6,1.6,0,0,1-.27.25c-.1-.13-.18,0-.27,0s-.07,0-.08-.06,0-.17.15-.19S2.22,2.32,2.23,2.34Z"/><path class="cls-81" d="M7.21,4.25c.08,0,.07,0,.06-.07h0c0-.25.21-.29.35-.41h0a.13.13,0,0,1,0,.15c0,.08-.1.09-.13.15s0,.14-.06.21h0c-.06.23-.18,0-.27,0l-.1,0Z"/><path class="cls-45" d="M1.46,3.08c.09,0,.18,0,.21.15s-.07.16-.17.17l-.24,0v0c.06,0,.08,0,.08-.1S1.42,3.13,1.46,3.08Z"/><path class="cls-22" d="M10.68,4.07a.45.45,0,0,0-.33-.1c-.08-.05-.17,0-.25,0a.33.33,0,0,1-.19-.25c.09-.14.16,0,.24,0a.39.39,0,0,0,.45,0c.1,0,.16.08.24.12a1.1,1.1,0,0,1,0,.31Z"/><path class="cls-28" d="M8.11,4.15S8,4.2,8,4.26H8a.23.23,0,0,0-.36,0s0,0,0,0h0c0-.15.11-.21.2-.3h0a1.29,1.29,0,0,0,.28-.08s.09,0,.14,0S8.14,4.06,8.11,4.15Z"/><path class="cls-43" d="M10.88,4.11a.26.26,0,0,1-.07-.28s0-.05,0-.05,0,.16.06.23a.12.12,0,0,1,.17.1C11,4.11,11,4.15,10.88,4.11Z"/><path class="cls-82" d="M1.72,1.78l0,0c.17,0,.23.06.26.22s0,.17-.09.17A2.5,2.5,0,0,1,1.72,1.78Z"/><path class="cls-49" d="M1.93,2.13,2,2c.15-.08.17-.06.21.1A.48.48,0,0,0,2,2.34.37.37,0,0,0,1.93,2.13Z"/><path class="cls-83" d="M10.84,3.79l0,0c-.17.19-.13-.07-.2-.11a.08.08,0,0,1-.14,0c-.05-.08-.11-.08-.19-.08a.26.26,0,0,1-.1,0,.26.26,0,0,0-.3.11h0a.76.76,0,0,1-.41-.51c0-.11,0-.25.21-.19s.13.18.26.12.05,0,.07,0a1.38,1.38,0,0,0,.56.12.41.41,0,0,1,.24.11L11,3.5h0l0,.08C11,3.69,11,3.78,10.84,3.79Z"/><path class="cls-80" d="M10.84,3.79a.31.31,0,0,1,.17-.2l.07.12c0,.15-.14.18-.17.3C10.83,4,10.86,3.87,10.84,3.79Z"/><path class="cls-84" d="M2.23,2.34h0c-.05-.12.07-.18.06-.28A1,1,0,0,0,2,1.79a.09.09,0,0,1,0-.12l-.07-.1a1.58,1.58,0,0,1,.36.2.2.2,0,0,0,.18,0c0-.08.11-.16.2-.06s0,.12-.05.16-.14.06-.14.15S2.29,2.23,2.23,2.34Z"/><path class="cls-85" d="M2.05,2.53l.08.06c0,.06-.07.13-.16.13s-.1-.06-.11-.13S2,2.62,2.05,2.53Z"/><path class="cls-86" d="M2.17,1.49c0-.07-.06-.06-.08-.09s0-.14,0-.2l0-.1s.06,0,.1,0A.39.39,0,0,0,2.66,1c.19,0,.14.16.17.26a.71.71,0,0,1-.23.19.18.18,0,0,0-.12.12c0,.05,0,.11-.07.13l0,0C2.34,1.56,2.22,1.57,2.17,1.49Z"/><path class="cls-64" d="M2.41,1.69a.5.5,0,0,1,0-.17c.09-.09.17,0,.25,0s.15,0,.2-.1A1,1,0,0,0,3,1.26a.12.12,0,0,1,.14,0l0,0c0,.08,0,.14-.06.21l-.34.35a.17.17,0,0,1-.14-.05c-.07-.05-.1.08-.17,0Z"/><path class="cls-87" d="M2.2,1.1H2.1C2,1.06,2,1,1.93,1s.21.11.33.08Z"/><path class="cls-88" d="M2.13,1.2a.48.48,0,0,1,0,.2S2,1.36,2,1.3s0,0,.07-.06Z"/><path class="cls-25" d="M11,3.5a.21.21,0,0,1-.29-.06c0-.09-.11-.15-.12-.24s-.16-.18-.13-.32.1-.18.17-.26.08-.05.12,0a3,3,0,0,0,.31,0c.06,0,.12,0,.14.07a.06.06,0,0,1,0,.06s-.06,0-.08.07-.11,0-.1.12a1,1,0,0,1,0,.3s-.09,0-.08.1Z"/><path class="cls-89" d="M11.22,2.7c-.14-.05-.31,0-.44-.08a.13.13,0,0,1,0-.06c.05-.17.18-.09.27-.11s.13-.13.23-.11a.39.39,0,0,1,.16.25.1.1,0,0,1,0,.07l0,.07C11.29,2.77,11.26,2.74,11.22,2.7Z"/><path class="cls-21" d="M11,3.33c0-.05,0-.08,0-.11a.31.31,0,0,0,0-.28.2.2,0,0,1,.07-.21h.1c.08,0,.07.11,0,.18s0,.14,0,.21,0,.16-.06.21-.13.09-.19,0Z"/><path class="cls-90" d="M11.28,3.12c-.16-.1-.07-.25-.06-.39v0l.13,0C11.43,2.88,11.27,3,11.28,3.12Z"/><path class="cls-91" d="M3.73.4s.11,0,.14,0,.29-.18.47-.15a.85.85,0,0,1,.23,0,.09.09,0,0,1,0,0l0,.06A2.66,2.66,0,0,1,4,.47L3.9.55s-.1,0-.15,0S3.7.45,3.73.4Z"/><path class="cls-92" d="M4.57.29v0l0,0a.14.14,0,0,1,0,.11S4.56.32,4.57.29Z"/><path class="cls-93" d="M2.8,1.24c-.1-.05-.08-.17-.14-.25l0-.08V.82l.14,0,0,0A.41.41,0,0,1,3,.86c.14.06.21,0,.19-.16s0-.06,0-.09v0a.53.53,0,0,1,.22,0c.08,0,.17,0,.2-.12v0h.08a.4.4,0,0,1,.09.17c-.06.1-.06.1-.27.2A2,2,0,0,0,3.75.66a.1.1,0,0,1,.1,0c0,.19-.11.21-.21.25s-.36.16-.54.26-.17,0-.25.06Z"/><path class="cls-94" d="M2.8.85h0l0-.07c.12-.07.27-.05.37-.17l0,.06c.06.14,0,.2-.13.21A.63.63,0,0,1,2.8.85Z"/><path class="cls-95" d="M3.59.42c0,.17-.09.15-.18.16a.65.65,0,0,1-.24,0l0,0s.1,0,.1-.07A.56.56,0,0,0,3.59.42Z"/><path class="cls-96" d="M12.72,6.49l.1.11,0,.07s-.11.07-.13,0S12.58,6.53,12.72,6.49Z"/><path class="cls-97" d="M3.73.57,3.67.4h.06c.09.24.16,0,.24,0s.21.06.2.21S4,.77,3.84.71H3.73A.12.12,0,0,1,3.73.57Z"/><path class="cls-98" d="M14.34.85c.11-.08.21-.19.36-.11a.41.41,0,0,1-.31.12Z"/><path class="cls-99" d="M10.47,1.39l.07.17a.16.16,0,0,1,0,.23c-.21.09-.21.09-.12.35a.42.42,0,0,0,.09.16.14.14,0,0,1,0,.24H10.5c-.09-.07-.23-.07-.24-.23s-.13-.15-.21-.2A.92.92,0,0,1,10,1.57a.17.17,0,0,1,0-.1s0,0,0,0,.1,0,.17.05c0-.15,0-.24.18-.2s.16-.05.13.1l-.07,0S10.46,1.41,10.47,1.39Z"/><path class="cls-10" d="M10.55,1.77a.3.3,0,0,1,0-.21c.07,0,.05-.17.13-.15s.07.12.09.19,0,0,0,.07a.08.08,0,0,1,.07.08.13.13,0,0,1,0,.06c-.1.14-.14.15-.29,0A0,0,0,0,1,10.55,1.77Z"/><path class="cls-100" d="M10,1.44h0c-.07,0-.13.06-.2,0a.13.13,0,0,1-.07-.09l0-.13a.49.49,0,0,1,.24,0l.13.07Z"/><path class="cls-101" d="M10.81,1.74l0-.07c.05-.07,0-.14,0-.21l.07,0c.15,0,.18.07.18.2S10.92,1.89,10.81,1.74Z"/><path class="cls-102" d="M9,1.73h.23a.31.31,0,0,1,.42.06.21.21,0,0,1,0,.19c0,.1-.12.09-.19.1s-.16.06-.21,0-.07-.14-.16-.1S9,2,9,1.94a.16.16,0,0,1,0-.16A.12.12,0,0,1,9,1.73Z"/><path class="cls-103" d="M9.48,2s.14,0,.12-.09-.07-.21-.2-.21l-.19,0c.08-.16.2-.07.3-.06s.12.06.13-.05a.23.23,0,0,1,.18.31,2,2,0,0,1-.07.26s0,0-.07,0a.17.17,0,0,1-.21-.14A.14.14,0,0,1,9.48,2Z"/><path class="cls-103" d="M9.71,2.16a.29.29,0,0,1,0-.16.3.3,0,0,0-.1-.37s0-.11,0-.14a0,0,0,0,1,0,0,0,0,0,0,0,0,0l.1-.07h.11s.13,0,.14.11,0,.46-.15.65A.07.07,0,0,1,9.71,2.16Z"/><path class="cls-104" d="M9.48,1.31l.06.18c0,.05-.07.05-.12,0s-.06-.07-.11-.05l0,0c-.1.09-.2,0-.31,0s0,0,0-.06a.31.31,0,0,1,.25-.11C9.3,1.32,9.39,1.2,9.48,1.31Z"/><path class="cls-41" d="M9,1.73l0,0a.46.46,0,0,0-.07.14c0,.16-.11.19-.23.11S8.54,2,8.53,1.88a.2.2,0,0,1,0-.11c0-.05,0-.11.06-.14s.09,0,.13,0h0a.13.13,0,0,0,.12,0C8.88,1.68,9,1.58,9,1.73Z"/><path class="cls-105" d="M9.48,1.31c-.09,0-.14.07-.22.08s0,0,0-.08V1.24l.23,0C9.54,1.21,9.48,1.28,9.48,1.31Z"/><path class="cls-105" d="M9.31,1.45c.09-.05.15.05.23,0l.07,0v0C9.5,1.63,9.4,1.58,9.31,1.45Z"/><path class="cls-94" d="M8.67,1.41l.11,0c.07.05,0,.1,0,.15s0,.11-.07.14h0c-.12,0-.07-.14-.09-.21S8.64,1.41,8.67,1.41Z"/><path class="cls-106" d="M8.71,1.67a.23.23,0,0,1,.07-.14l.07.1C8.82,1.72,8.79,1.78,8.71,1.67Z"/><path class="cls-14" d="M12.58.92l.1,0c.06,0,.1,0,.14,0h0a.74.74,0,0,1,.57.14h0a.11.11,0,0,1-.07.11c0,.09-.11.05-.17,0a2.1,2.1,0,0,1-.56-.07c-.08,0-.18,0-.14-.18Z"/><path class="cls-107" d="M13.18,1.17h.14l.07.07c-.14,0-.26.14-.41.08S13.12,1.23,13.18,1.17Z"/><path class="cls-108" d="M9.38.5,9.45.35V1h0A2.27,2.27,0,0,1,9.38.5Z"/><path class="cls-20" d="M6.48,2c0-.05,0-.1,0-.14s0-.28.14-.39,0-.1.12-.11.07.19.11.28-.1.1-.09.19,0,.1,0,.14a.58.58,0,0,0,0,.48c0,.24,0,.3-.27.29a.16.16,0,0,1-.06-.13V2.44A1,1,0,0,1,6.48,2Z"/><path class="cls-58" d="M7,1.14c.12,0,.23.11.34,0h.06s0,.05,0,.07a.14.14,0,0,0,0,.11c-.08.15-.14.3-.3.37H7l0,0L6.9,1.24A.1.1,0,0,0,7,1.14Z"/><path class="cls-105" d="M6.44,1.49a.47.47,0,0,1,0,.29.47.47,0,0,0,0,.31c0,.1,0,.19-.05.26s-.11-.09-.11-.18-.06-.1-.08-.16a.37.37,0,0,1,.06-.29c0-.07.1-.1.12-.18A.07.07,0,0,1,6.44,1.49Z"/><path class="cls-109" d="M6.44,1.49c-.08.07-.07.2-.17.25s0,0,0-.06a.92.92,0,0,0-.05-.44c.1-.13.15-.13.32,0a.16.16,0,0,1,0,.15Z"/><path class="cls-110" d="M6.5,1.38l0-.1c0-.06,0-.12,0-.18a.21.21,0,0,1,.3,0A.94.94,0,0,1,6.5,1.38Z"/><path class="cls-111" d="M6.77,1.41c-.14.12-.16.32-.26.47a1,1,0,0,1,.12-.47c0-.06.08-.13.17-.1S6.8,1.39,6.77,1.41Z"/><path class="cls-89" d="M6.77,1.41l0-.1,0,0A.15.15,0,0,1,7,1.52c0,.05,0,.09,0,.13s0,0,0,0a.06.06,0,0,1-.09,0Z"/><path class="cls-112" d="M6.34,2.34l.06-.25L6.48,2l0,.43s-.06.07-.1,0S6.29,2.39,6.34,2.34Z"/><path class="cls-19" d="M6.94,1.63c-.05-.11,0-.25-.1-.34l.06-.05c.19.09.08.26.1.39A0,0,0,0,1,6.94,1.63Z"/><path class="cls-74" d="M8.67,1.41l0,.05c0,.06,0,.12,0,.16l0,.15c-.11.06-.18,0-.27-.07l-.06-.06c0-.17.12-.19.25-.16s-.06-.05-.07-.1A.28.28,0,0,1,8.67,1.41Z"/><path class="cls-113" d="M8.14,1.8s0-.13.1-.06.08.12.08.2a.46.46,0,0,1-.18.23C8,2.18,8,2.11,8,2V2C8.05,1.92,8,1.81,8.14,1.8Z"/><path class="cls-114" d="M8,1.49l-.06-.07c.15-.09.2-.07.24.07v0c0,.11,0,.24-.08.33S8,1.75,8,1.67,8,1.55,8,1.49Z"/><path class="cls-115" d="M8.27,1.92l0-.18v-.1s.06-.07.1,0,.14.11.09.22A.16.16,0,0,1,8.27,1.92Z"/><path class="cls-116" d="M8.07,1.84a.71.71,0,0,1,.07-.32V1.8c0,.05,0,.16-.1.18S8,2,7.93,2a.09.09,0,0,1,0-.13S8,1.86,8.07,1.84Z"/><path class="cls-112" d="M8.15,1.49c-.06-.11-.16-.06-.24-.07,0-.18.18-.07.27-.11A.57.57,0,0,1,8.15,1.49Z"/><path class="cls-117" d="M12,.92l0,.19a.09.09,0,0,1-.05.11c-.21.11-.39.27-.59.38l-.11,0c-.09-.06-.13-.17-.2-.26s.13-.14.2-.2,0-.05.08-.06a.87.87,0,0,0,.42-.14C11.8.87,11.89.93,12,.92Z"/><path class="cls-70" d="M11.71.92l0,0a1.34,1.34,0,0,1-.44.19c0-.1,0-.12.1-.13Z"/><path class="cls-118" d="M11.41,1l-.1.13-.07,0a.09.09,0,0,1,0-.13l0-.07a.11.11,0,0,0,.11,0S11.42.94,11.41,1Z"/><path class="cls-78" d="M7.43,1.67a.14.14,0,0,0,.08.07.06.06,0,0,1,0,.06.26.26,0,0,0,0,.21.25.25,0,0,1,0,.17.24.24,0,0,1-.2.08c-.07,0-.07-.09-.09-.15a.34.34,0,0,1,0-.1.17.17,0,0,1,0-.1.39.39,0,0,0,.06-.11S7.34,1.66,7.43,1.67Z"/><path class="cls-115" d="M7.5,1.81V1.74l0,0c.07,0,.13-.07.2,0s.13-.06.18.1a.12.12,0,0,1,0,.07c-.09,0-.15,0-.23.09h0A.11.11,0,0,1,7.5,1.81Z"/><path class="cls-92" d="M7.43,1.67l0,.17a.07.07,0,0,1-.06,0,.69.69,0,0,1-.06-.4.05.05,0,0,1,.08,0l.07,0C7.52,1.45,7.4,1.57,7.43,1.67Z"/><path class="cls-31" d="M7.34,1.38l-.06.05a.32.32,0,0,1-.1.28.12.12,0,0,1-.14,0,.06.06,0,0,1,0-.06c.11-.09.17-.25.3-.32Z"/><path class="cls-73" d="M7.85,1.85l0,0c0-.08-.06-.17,0-.25l.1,0a.69.69,0,0,1,0,.35C7.91,2,8,2,8,2H8c0,.06,0,.12,0,.18l0,0c-.05,0-.08-.06-.13-.07l-.07,0s0,0,0-.05S7.73,1.86,7.85,1.85Z"/><path class="cls-89" d="M7.87,1.56c.09.08.06.17,0,.25,0-.07-.06-.13-.14-.11S7.77,1.54,7.87,1.56Z"/><path class="cls-119" d="M8,1.88V1.49c.07.11,0,.25.1.35Z"/><path class="cls-20" d="M5.07.61A.12.12,0,0,1,5,.54L5.07.49a1.53,1.53,0,0,1,.52.23l.18.1c0,.12,0,.12.17.17l-.2,0h0c-.09,0-.09-.16-.2-.12A1.32,1.32,0,0,1,5.07.61Z"/><path class="cls-32" d="M5.77.82a3.19,3.19,0,0,1-.7-.33s.06,0,.1,0A1.85,1.85,0,0,1,5.77.82Z"/><path class="cls-107" d="M13.39,1.06C13.2,1,13,1,12.82.92c0-.07,0-.12.06-.14s.31.17.49.15.09,0,.1.06S13.41,1,13.39,1.06Z"/><path class="cls-120" d="M6.44,1.1s.11,0,.11.1,0,.06-.08.08-.17-.14-.25,0,0,.14,0,.2S6.09,1.86,6,2s-.14.17-.23.06,0-.17,0-.25A1.47,1.47,0,0,1,6,1.24a.33.33,0,0,1,.15-.11l.2-.1C6.36,1.08,6.39,1.09,6.44,1.1Z"/><path class="cls-55" d="M5.74,1v0a.24.24,0,0,1-.06.08.72.72,0,0,0-.17.22s0,.08-.11.08H5.32c-.06,0-.12,0-.15-.09s-.07-.14-.1-.22a.13.13,0,0,1,0-.06A.16.16,0,0,1,5.19,1,1.71,1.71,0,0,1,5.74,1Z"/><path class="cls-110" d="M6.14,1.13a1.67,1.67,0,0,0-.3.68s-.07.12-.15.07,0-.12,0-.19.09-.29.17-.42.06-.1.11-.14S6.07,1.14,6.14,1.13Z"/><path class="cls-121" d="M5.94,1.13c.11.13,0,.13-.07.15h0a.2.2,0,0,1-.16-.06s0-.09,0-.13l.07,0Z"/><path class="cls-61" d="M12.82.92c0,.06-.06.14-.14,0S12.76.9,12.82.92Z"/><path class="cls-67" d="M4.84.5c.06.05.06.1,0,.14s-.24,0-.36-.2a.11.11,0,0,1,0-.09.06.06,0,0,1,.08,0Z"/><path class="cls-35" d="M4.6.35H4.54s0,0,0,0h0l0,0,0,0Z"/><path class="cls-122" d="M11.21,1l0,.13a.4.4,0,0,1-.2.16.11.11,0,0,1-.09,0,.18.18,0,0,1-.07-.05v0A.75.75,0,0,1,11.21,1Z"/><path class="cls-123" d="M10.88,1.31H11c.16,0,.17.21.27.3a.21.21,0,0,1-.05.17c-.06,0-.1,0-.15,0a.07.07,0,0,1,0-.1c0-.1-.09-.13-.14-.18Z"/><path class="cls-124" d="M5.47,1A2.94,2.94,0,0,0,5,.68L5.07.61c.17,0,.3.19.47.24s.07.08,0,.14A.08.08,0,0,1,5.47,1Z"/><path class="cls-125" d="M11.15,1.74c0-.08,0-.08.06-.11a.09.09,0,0,1,0-.11h.11c-.05.05-.08.1,0,.17s0,.05,0,.07h0s0,.08-.07.1H11.2C11.14,1.84,11.16,1.78,11.15,1.74Z"/><path class="cls-28" d="M11.45,2.2a.19.19,0,0,0-.06.19.3.3,0,0,1,0,.21c0-.1-.1-.15-.14-.23s-.19.06-.25-.05a.08.08,0,0,1,0-.08c.1-.15.27-.11.4-.15S11.44,2.16,11.45,2.2Z"/><path class="cls-5" d="M11.41,2.09c0,.07-.06.13-.16.1s-.14.05-.21.07A.08.08,0,0,1,11,2.18c0-.09,0-.19.16-.18h.09a.22.22,0,0,1,.08,0S11.38,2.05,11.41,2.09Z"/><path class="cls-75" d="M11.31,2l-.07.06a.15.15,0,0,1,0-.21l.07-.07Z"/><path class="cls-123" d="M4.3,3.15,4.13,3,4,2.94s.12,0,.14,0,.06-.06.11,0a1,1,0,0,0,.16.06l0,0c0,.08.08.15,0,.22S4.34,3.19,4.3,3.15Z"/><path class="cls-79" d="M4.27,2.61s0,.17-.07,0a.08.08,0,0,0-.1,0s0-.06-.07-.07l0,0a.48.48,0,0,1,0-.29.14.14,0,0,1,.08-.15.24.24,0,0,1,.12,0c.08,0,.1.09.1.16A1.51,1.51,0,0,1,4.27,2.61Z"/><path class="cls-126" d="M4.44,2.94a1.74,1.74,0,0,1-.08-.6s0,0,0,0,.08.09.12.14.13.12.18.2.07.15,0,.24A.11.11,0,0,1,4.64,3c-.07,0-.14,0-.2,0Z"/><path class="cls-127" d="M4.37,2.31v0c-.06.08,0,.19-.09.27l-.1-.48c-.06-.08,0-.14,0-.18a.26.26,0,0,1,.22.17C4.43,2.18,4.45,2.26,4.37,2.31Z"/><path class="cls-36" d="M4.06,2.12a.4.4,0,0,0,0,.15c-.09.07-.11,0-.16-.07a.14.14,0,0,1-.1-.07c0-.07,0-.13,0-.19s.06-.14.15-.15S4,1.82,4,1.9s.07.06.08.1A.1.1,0,0,1,4.06,2.12Z"/><path class="cls-81" d="M3.47,2.23l-.13-.08C3.25,2,3.26,2,3.42,1.93s.12.07.19.07.1.14.06.23h-.1S3.5,2.27,3.47,2.23Z"/><path class="cls-58" d="M3.67,2.23c0-.06.05-.18-.1-.17s-.1-.11,0-.19.1-.05.16,0,.09.07.12.12.05.13,0,.18Z"/><path class="cls-128" d="M3.47,2.23h.1a.32.32,0,0,1,.1.28C3.57,2.44,3.43,2.4,3.47,2.23Z"/><path class="cls-10" d="M3.9,2.45a.43.43,0,0,0,0,0s.06.1,0,.14-.06,0-.07,0a.21.21,0,0,1,0-.2c0-.06.08,0,.12,0a0,0,0,0,1,0,0Z"/><path class="cls-93" d="M3.9,2.45v0l0-.21L4,2.27c0,.09,0,.16,0,.25Z"/><path class="cls-93" d="M4,2.56a.08.08,0,0,0,0,0s0,0,0,0l0,.09c0,.06,0,.14-.13.14S4.08,2.64,4,2.56Z"/><path class="cls-73" d="M2.9,2.06,2.84,2c0-.18.12-.16.22-.2s.14.08.2.14a.18.18,0,0,1,0,.16C3.15,2.06,3,2,2.9,2.06Z"/><path class="cls-5" d="M3.27,2.12l0-.14c.08-.1.13-.09.18,0-.13,0,0,.11-.07.13Z"/><path class="cls-129" d="M3.07,1.88A.46.46,0,0,0,2.84,2a.17.17,0,0,1-.15-.08c0-.14.15-.18.22-.27s.14-.15.2-.24a.24.24,0,0,1,.41,0,.82.82,0,0,1-.31.42S3.12,1.9,3.07,1.88Z"/><path class="cls-96" d="M3.47,1.47c-.11-.09-.28-.1-.33,0a1.75,1.75,0,0,1-.45.45H2.6a.18.18,0,0,1,.13-.17,1.19,1.19,0,0,1,.34-.33c.09-.17.27-.2.43-.24s.16.05.15.16,0,0,0,.06S3.53,1.51,3.47,1.47Z"/><path class="cls-130" d="M2.73,1.78,2.6,2l-.13.11-.08,0c0-.15.21-.18.24-.34S2.7,1.75,2.73,1.78Z"/><path class="cls-131" d="M8.21,3.94a2.23,2.23,0,0,1-.43.1c0-.11.06-.1.1-.13s-.1.1-.17,0l0-.13c0-.09.06-.12.11-.17s.29-.13.33-.33a.11.11,0,0,1,.12-.06.27.27,0,0,1,.15,0c.06.08-.06.17,0,.25S8.45,3.92,8.21,3.94Z"/><path class="cls-90" d="M7.81,3.7c0,.06-.08.08-.13.1h0l-.1,0c-.06,0-.12,0-.18,0s-.09,0-.09,0,.06-.08.12-.07.18,0,.17-.16a.3.3,0,0,1,.12-.2C7.84,3.41,7.87,3.47,7.81,3.7Z"/><path class="cls-115" d="M7.71,3.93,8,3.84s.07-.07.09,0,0,.07-.07.08-.15,0-.2.11h0c-.07,0-.14.15-.21,0A.49.49,0,0,1,7.71,3.93Z"/><path class="cls-16" d="M7.57,4c.07,0,.14,0,.21,0-.08.09-.19.14-.24.25C7.44,4.19,7.46,4.11,7.57,4Z"/><path class="cls-83" d="M8.44,3.94l-.3.21h0c0-.1.05-.15.1-.21a1,1,0,0,1,.08-.11c.16-.1.12-.17,0-.25s.18-.1.2-.23.1-.07.16-.07.09.08.13.13a.27.27,0,0,1-.11.28.22.22,0,0,0-.09.19C8.55,4,8.49,3.92,8.44,3.94Z"/><path class="cls-63" d="M10.28,3.55c.1,0,.15,0,.21.08s.07.08.12.09-.15.13-.25.12l-.22-.08c0-.07,0-.12,0-.16S10.29,3.65,10.28,3.55Z"/><path class="cls-132" d="M10.21,3.62l-.07.14L10,3.69l-.07,0c.08-.07,0-.19.11-.3,0,.1.1.19.22.11l0,.06S10.25,3.59,10.21,3.62Z"/><path class="cls-8" d="M10,3a.26.26,0,0,1,0,.21l-.16,0c-.13,0-.18,0-.15-.14s.07-.12.09-.19a.13.13,0,0,1,.08-.1C9.94,2.77,10,2.86,10,3Z"/><path class="cls-46" d="M9.78,2.94c0,.07.09.14,0,.11a.11.11,0,0,0-.09,0c-.14-.07-.11.09-.16.14l-.13-.18c0-.06,0-.13.05-.18S9.68,2.75,9.78,2.94Z"/><path class="cls-21" d="M10.55,3.33l0-.07a.11.11,0,0,1,0-.07c.05,0,.1,0,.14,0a.29.29,0,0,1,.07.25C10.7,3.36,10.59,3.42,10.55,3.33Z"/><path class="cls-101" d="M10.21,3.62l0-.1,0,0,0,0c0,.05.1.08,0,.13S10.24,3.68,10.21,3.62Z"/><path class="cls-65" d="M3.61,1.38c0-.12-.12-.11-.2-.08a1.3,1.3,0,0,0-.34.15.35.35,0,0,1,.06-.17,1.53,1.53,0,0,0,.3-.19c.06-.06.13,0,.19,0s.06.11.09.17a.11.11,0,0,1,0,.11S3.63,1.41,3.61,1.38Z"/><path class="cls-133" d="M3.61,1.14c-.09,0-.16,0-.22.05s-.17.07-.26.09v0c.16-.09.29-.28.51-.19Q3.68,1.13,3.61,1.14Z"/><path class="cls-84" d="M2.66,1.62l.21-.17s0-.12.1-.14H3a1,1,0,0,1-.25.33S2.69,1.69,2.66,1.62Z"/><path class="cls-89" d="M10.68,3.19l-.13,0c-.05-.11-.16-.17-.17-.29s0-.16-.05-.25,0-.2.18-.17h0c.14-.09.18-.08.23.08v0l-.1,0c-.09,0-.19.07-.13.21S10.68,3.06,10.68,3.19Z"/><path class="cls-116" d="M11.12,2.73a.5.5,0,0,0,0,.27c0,.09,0,.19-.09.22a.32.32,0,0,1,0-.14c0-.1,0-.16-.17-.14C11,2.84,11,2.76,11.12,2.73Z"/><path class="cls-48" d="M10.55,2.87c0-.07-.08-.14,0-.21s.1,0,.16,0,0,.08,0,.1A.11.11,0,0,0,10.55,2.87Z"/><path class="cls-47" d="M10.78,2.59a.4.4,0,0,0-.23-.08s0-.11-.06-.14a.36.36,0,0,1-.13-.29.31.31,0,0,0,0-.17s-.07-.1,0-.16a.12.12,0,0,1,.15,0,.29.29,0,0,0,.1,0v0a.07.07,0,0,1,0,.05s-.09.11,0,.12.08.09.13.13.09,0,.13-.07S10.91,2,11,2s0,.14.05.21l0,0,0,.05c.05.06.16.09.07.2A.52.52,0,0,0,10.78,2.59Z"/><path class="cls-88" d="M11.08,2.51c0-.07-.09-.12-.07-.2s.2-.14.24.06C11.18,2.4,11.26,2.63,11.08,2.51Z"/><path class="cls-43" d="M4.51.42a.14.14,0,0,0-.18,0,.27.27,0,0,1-.2.11c-.07-.05-.14,0-.22,0S4,.47,4,.39A1.51,1.51,0,0,1,4.53.32v0Z"/><path class="cls-30" d="M3.73.57V.71c-.07.09-.19.08-.27.15s-.08.08-.11,0,0-.09.06-.11A1.69,1.69,0,0,0,3.73.57Z"/><path class="cls-112" d="M2.8.85a2.89,2.89,0,0,0,.29,0c.09,0,.09-.08.11-.14s.08.12,0,.19A.23.23,0,0,1,3,.94,1,1,0,0,1,2.8.85Z"/><path class="cls-123" d="M10.51,2.52c-.12,0-.11.13-.1.23s0,.13,0,.19-.07.07-.12.05a1.31,1.31,0,0,0-.21-.08c0-.14-.15-.21-.19-.34s0-.21,0-.32A.1.1,0,0,1,10,2.18c.14,0,.27-.06.37.09S10.5,2.41,10.51,2.52Z"/><path class="cls-134" d="M9.77,2.12a.73.73,0,0,0,0-.36c0-.13.06-.19.14-.27l.06,0s.07.06.05.12a1.14,1.14,0,0,0,0,.45c0,.06,0,.1-.06.12S9.83,2.23,9.77,2.12Z"/><path class="cls-135" d="M10.47,1.39a.78.78,0,0,1,0,.14.1.1,0,0,1-.14.1c-.07,0-.1-.06-.09-.14a.12.12,0,0,1,.13-.13l.13,0Z"/><path class="cls-136" d="M10,2.2l.07-.11c.14-.1.18-.08.27.18-.11-.07-.23,0-.35,0S10,2.2,10,2.2Z"/><path class="cls-13" d="M9.17,2.05s-.05,0-.07,0L9,1.93A.14.14,0,0,1,9.14,2Z"/><path class="cls-128" d="M10.55,1.84v0c.09,0,.18.07.26,0a.18.18,0,0,1,.18.15.1.1,0,0,1-.05.1l0,.07c-.08,0-.13.12-.23.07a.21.21,0,0,1-.1-.14A.17.17,0,0,1,10.55,1.84Z"/><path class="cls-137" d="M11,1.92l-.14-.15v0c.1.07.12-.12.21-.07l0,.07c0,.08,0,.13-.05.18A0,0,0,0,1,11,1.92Z"/><path class="cls-99" d="M9.48,2l0,0s0,.08,0,.12,0,.18-.11.2-.19.15-.31,0A.13.13,0,0,0,9,2.31a.11.11,0,0,1-.11-.1c0-.1.05-.17.17-.16s.13-.11.22-.1a.07.07,0,0,1,.05,0A.13.13,0,0,0,9.48,2Z"/><path class="cls-50" d="M8.91,2.2c.05.07.12,0,.19,0s.12.06,0,.14-.16,0-.25,0-.17-.22-.26-.32a.06.06,0,0,1,0-.08c.07,0,.14,0,.14-.11s.06-.1.13-.11l0,.14C9,2,9,2,9,2S8.91,2.14,8.91,2.2Z"/><path class="cls-13" d="M8.91,2.2c-.08-.12,0-.2.07-.29l.13,0c0,.05.13,0,.14.11s-.1.22-.25.15S8.94,2.17,8.91,2.2Z"/><path class="cls-97" d="M9.25,2c-.06,0-.14,0-.14-.11s.18,0,.2.11Z"/><path class="cls-138" d="M8.91,2.33c.07,0,.15.07.23,0s.19-.06.29-.07,0-.18.08-.25.07.16.17.14.07.06.07.11a.14.14,0,0,1,0,.09.69.69,0,0,1-.15.07.18.18,0,0,1-.1,0,.79.79,0,0,1-.48,0,.19.19,0,0,1-.14-.09A.07.07,0,0,1,8.91,2.33Z"/><path class="cls-139" d="M9.71,2.31s-.07,0-.08,0,0,0,0-.08l0,0,.06,0,.11,0C10,2,10,2.09,10,2.2v0l-.05,0a.06.06,0,0,1,0,.08A.41.41,0,0,1,9.71,2.31Z"/><path class="cls-47" d="M8.68,2l0,.06c0,.05.06.09,0,.14s0,.14-.09.16l0,0a.07.07,0,0,1,0,.06.19.19,0,0,1-.2.06c-.18-.05-.25-.13-.24-.28s.13-.2.23-.26.13-.12.2,0S8.67,1.92,8.68,2Z"/><path class="cls-140" d="M8.57,1.88,8.38,2a0,0,0,0,1,0,0c0-.05,0-.06.07-.1a.83.83,0,0,0-.06-.21,1.42,1.42,0,0,1,.23.14Z"/><path class="cls-55" d="M8.61,1.62a.23.23,0,0,1,0-.16l.06.21,0,.11C8.61,1.74,8.62,1.68,8.61,1.62Z"/><path class="cls-11" d="M6.67,2.45a.57.57,0,0,1,.07-.6c.09-.08.13,0,.18.06A.09.09,0,0,1,7,2a.08.08,0,0,1,0,.08s0,0,0,0a.16.16,0,0,0-.14.18l-.06.15Z"/><path class="cls-141" d="M6.88,2l-.14-.1h0c-.06,0-.11-.1-.07-.17s.12.05.18,0h.1C7,1.79,7,1.87,6.88,2Z"/><path class="cls-142" d="M6.44,2.62l0,.11a.05.05,0,0,1,0,.08c-.08.08-.14,0-.2,0s-.13-.06-.15-.14a.76.76,0,0,1,0-.3c.06-.06.1,0,.15,0S6.34,2.56,6.44,2.62Z"/><path class="cls-76" d="M6.47,2.79V2.73s0-.07.08-.08.12-.1.12-.2h0a.07.07,0,0,1,.07.08.49.49,0,0,1-.06.41l0,0C6.52,3,6.44,3,6.47,2.79Z"/><path class="cls-96" d="M6.44,2.62c-.18,0-.11-.15-.14-.25s-.1-.16,0-.24c0,.07,0,.14,0,.21s0,.14.1.11Z"/><path class="cls-4" d="M6.88,2l.06-.28v0H7v0s0,.06.06.1v.06c0,.07.06.15,0,.2S7,2,6.91,2Z"/><path class="cls-143" d="M6.18,2.34a.65.65,0,0,0,0,.28.1.1,0,0,1-.15,0,1.79,1.79,0,0,1,.08-1,.25.25,0,0,0,0-.17l.08-.17c.12.07.1.18.08.29s0,.11,0,.17A.45.45,0,0,0,6.21,2,.27.27,0,0,1,6.18,2.34Z"/><path class="cls-104" d="M6.18,2.34a.58.58,0,0,1,0-.32s0-.11.08-.09,0,.07,0,.11v.33Z"/><path class="cls-17" d="M8.18,2.16c0,.16.08.2.19.22s0,.09,0,.12a.15.15,0,0,1-.07,0s-.09,0-.13,0S8.08,2.38,8,2.33a.17.17,0,0,1,0-.17C8,2.11,8,2,8,2s0,.12.1.14S8.18,2.13,8.18,2.16Z"/><path class="cls-144" d="M8.18,2.16l0,0,.13-.21a.25.25,0,0,1,.14-.08l0,.11C8.31,2,8.3,2.16,8.18,2.16Z"/><path class="cls-127" d="M11.21,1.52v.11s-.07,0-.08,0A1,1,0,0,0,11,1.32H11A.33.33,0,0,1,11.21,1.52Z"/><path class="cls-21" d="M6.91,2S7,2,7.06,2,7,1.88,7,1.85s0-.05,0-.08c.17-.08.28,0,.32.17l0,.08c-.06,0-.08.09-.13.11s-.17.05-.25,0a.08.08,0,0,1,0-.08Z"/><path class="cls-145" d="M7.33,1.94c-.08-.11-.21-.12-.32-.17s0-.07,0-.1h.13c.12-.06.14.07.2.11v.07Z"/><path class="cls-133" d="M7.27,2.09l.07.15a.09.09,0,0,1,0,.11c0,.08-.07.16-.18.13s0,0,0,0C7.09,2.23,7.11,2.18,7.27,2.09Z"/><path class="cls-30" d="M7.5,1.81l.11.1c0,.06,0,.11,0,.16s-.07,0-.09,0S7.41,1.88,7.5,1.81Z"/><path class="cls-15" d="M7.27,2.09c-.06.1-.13.2-.07.32a.05.05,0,0,1-.08,0c0-.12-.07-.23,0-.32A.15.15,0,0,1,7.31,2Z"/><path class="cls-15" d="M7.34,2.34v-.1c0-.15.08-.09.14-.11a.1.1,0,0,1,0,.09.13.13,0,0,1,0,.06c0,.05-.07.06-.12.08Z"/><path class="cls-48" d="M7.48,2.24V2.13l0-.11.07,0a.11.11,0,0,1,0,.14C7.59,2.29,7.55,2.33,7.48,2.24Z"/><path class="cls-46" d="M7.58,2.2V2.06a.4.4,0,0,0,0-.15h0c.1,0,.11.07.15.13h0a.16.16,0,0,1,0,.21C7.67,2.35,7.62,2.29,7.58,2.2Z"/><path class="cls-146" d="M7.79,2.05a.27.27,0,0,1-.15-.13c.05-.07.08-.24.21-.07Z"/><path class="cls-147" d="M7.37,1.77l-.2-.11.11-.23C7.34,1.53,7.31,1.67,7.37,1.77Z"/><path class="cls-27" d="M7.87,2.06C8,2,8,2.1,8,2.16a.15.15,0,0,1,0,.17c-.11.17-.14.18-.27.06s0-.1.07-.15S7.86,2.13,7.87,2.06Z"/><path class="cls-70" d="M7.91,2.27,8,2.16H8l.08.14c0,.06,0,.13-.08.12S7.91,2.34,7.91,2.27Z"/><path class="cls-148" d="M7.87,2.06c.06.09,0,.14-.08.17h0c-.06-.06,0-.11,0-.16Z"/><path class="cls-140" d="M5.47,1c.09,0,.07-.08.07-.14s.14.1.2.17a2.46,2.46,0,0,1-.54,0C5.28,1,5.39,1.05,5.47,1Z"/><path class="cls-14" d="M6.14,1.45c.12-.06.1,0,.09.1a4.22,4.22,0,0,0-.13,1c-.14.05-.21,0-.27-.14A1.53,1.53,0,0,1,5.94,2,3.5,3.5,0,0,1,6.14,1.45Z"/><path class="cls-64" d="M5.74,1.7c-.08.15.06.08.1.11V2.1c0,.07,0,.19-.07.25a.14.14,0,0,1-.18-.1,2.64,2.64,0,0,1,0-.4c0-.07,0-.13.08-.16Z"/><path class="cls-92" d="M5.77,2.32c0-.08,0-.17.07-.22s0-.1.1-.11a2,2,0,0,1-.07.42C5.79,2.44,5.77,2.4,5.77,2.32Z"/><path class="cls-149" d="M5.1,1.13l.18,0s.08,0,.09.06,0,0-.07,0l-.1.07c0,.07-.08.09-.08.16s0,.08,0,.11,0,.18-.14.18-.15-.07-.17-.17a.63.63,0,0,1,.14-.37C5,1.14,5,1.1,5.1,1.13Z"/><path class="cls-150" d="M5.67,1.1a.07.07,0,0,1,0,.1c0,.1,0,.17-.07.25a.25.25,0,0,1,0,.15,1.23,1.23,0,0,0-.14.31c0,.08,0,.13-.13.14s-.09,0-.1-.1a2.56,2.56,0,0,1,.1-.48s0-.06.07-.09S5.54,1.15,5.67,1.1Z"/><path class="cls-151" d="M5.1,1.13c-.14,0-.16.16-.22.26L4.8,1.6c-.11,0-.17,0-.21-.11a.25.25,0,0,1,.11-.25.14.14,0,0,0,0-.11,1.54,1.54,0,0,1,.37,0Z"/><path class="cls-152" d="M5.4,1.38A5.27,5.27,0,0,1,5.26,2a.08.08,0,0,1-.12,0l0-.06V1.81a1.15,1.15,0,0,1,.06-.17.45.45,0,0,1,.18-.25Z"/><path class="cls-153" d="M5.33,1.39l-.12.28a.3.3,0,0,1-.14-.22c0-.1.08-.1.13-.13Z"/><path class="cls-74" d="M5.74,1.7h0c-.07,0-.08-.06-.08-.12a.67.67,0,0,0,0-.2c0-.14.15-.14.26-.1h0C5.87,1.44,5.77,1.56,5.74,1.7Z"/><path class="cls-110" d="M5.87,1.28c-.08,0-.19,0-.24.1a0,0,0,0,1,0,.05A.46.46,0,0,1,5.7,1.2.53.53,0,0,1,5.87,1.28Z"/><path class="cls-75" d="M11,1.91l.07-.17h.1l.06.1a.38.38,0,0,1,0,.21h0C11.13,2,11,2,11,1.91Z"/><path class="cls-144" d="M4.63,1.46l.17.14.14.13s0,0,0,0,0,0,0,0a.48.48,0,0,1-.38-.11.27.27,0,0,0-.24-.05l0,0a.1.1,0,0,1,0,0c0-.07.06-.11,0-.17S4.07,1.32,4,1.24a.1.1,0,0,1,.1-.11l.16,0C4.41,1.24,4.59,1.26,4.63,1.46Z"/><path class="cls-154" d="M4.63,1.46a1.64,1.64,0,0,1-.36-.29,1.75,1.75,0,0,0,.46,0l.19.05c0,.08-.06.17-.18.16S4.66,1.41,4.63,1.46Z"/><path class="cls-57" d="M4.11,1.13,4,1.24a.28.28,0,0,1,0,.13s0,.07,0,.09a.26.26,0,0,1-.28-.21c0-.1,0-.16.09-.23S4,1.11,4.11,1.13Z"/><path class="cls-96" d="M3.83,1c0,.08,0,.15,0,.22s-.08.07-.13,0a.13.13,0,0,1-.06-.14l0-.09C3.7,1,3.77,1.05,3.83,1Z"/><path class="cls-34" d="M3,1.31l-.1.14,0-.21C2.89,1.23,2.93,1.27,3,1.31Z"/><path class="cls-155" d="M11.22,2.05a.5.5,0,0,1,0-.21h0v.21Z"/><path class="cls-156" d="M11,1.91a.21.21,0,0,1,.2.15c-.11,0-.11.1-.18.15s0-.13-.06-.19v-.1Z"/><path class="cls-115" d="M7,3.83l-.07-.07s0-.07,0-.11.19-.08.29-.12.2.09.31,0a.1.1,0,0,1,.07,0c0,.17,0,.19-.29.22.09,0,.17,0,.22.06Z"/><path class="cls-45" d="M4.5,3.2l0,0c0-.07-.1-.07-.14-.12s.1,0,.11-.11l0,0s0-.11.07-.1,0,.07,0,.12.07.06.08.11a.13.13,0,0,1,0,.06C4.63,3.14,4.62,3.25,4.5,3.2Z"/><path class="cls-38" d="M4.06,2.12V2c0-.07,0-.19-.16-.23a.31.31,0,0,1,0-.25.09.09,0,0,1,.07,0c.15,0,.17.15.23.24a.3.3,0,0,1,0,.23.1.1,0,0,1,0,.06c-.05,0-.05.07-.06.13Z"/><path class="cls-102" d="M4.67,2.87l0-.24a.14.14,0,0,1,0-.07s0-.13.11-.14a.12.12,0,0,1,.13.12c0,.11.07.2,0,.31s-.11.22-.23.1S4.68,2.9,4.67,2.87Z"/><path class="cls-109" d="M4.67,2.59l0,0c-.16.09-.14-.09-.19-.15s0-.17.13-.18a.14.14,0,0,1,.1.05C4.68,2.43,4.72,2.51,4.67,2.59Z"/><path class="cls-156" d="M4.57,2.34c-.06,0-.12.06-.13.14l-.07-.17a.4.4,0,0,1,0-.19c.13-.05.16.06.2.14A.08.08,0,0,1,4.57,2.34Z"/><path class="cls-109" d="M4.67,2.87l0,0s.06.08.08.12a.09.09,0,0,1,0,.05c-.09.07-.11,0-.14-.07s0-.06,0-.1Z"/><path class="cls-97" d="M4.57,2.27l-.18-.15c0-.07-.11-.08-.16-.12V1.91c0-.07.12,0,.17,0l.22.15a.05.05,0,0,1,0,0C4.66,2.18,4.72,2.29,4.57,2.27Z"/><path class="cls-157" d="M3.94,1.73c.09.06.16.12.12.25L4,2.06c0-.06,0-.16,0-.18s-.13,0-.13.07-.13,0-.14-.08,0-.17,0-.24S3.88,1.65,3.94,1.73Z"/><path class="cls-92" d="M3.74,1.67c-.12,0-.13-.14-.14-.25v0h.06c.15-.08.21.06.29.14s0,.14,0,.21Z"/><path class="cls-138" d="M7.81,3.7c-.1-.09,0-.23-.1-.33v0c.1-.05.21-.07.26-.19S8,3,8.05,2.9s.07-.13.16-.11,0,.18.16.17l.05,0a.21.21,0,0,1,.09.18c-.06.12-.19.07-.27.14l0,0C8.18,3.59,8,3.65,7.81,3.7Z"/><path class="cls-54" d="M8.51,3.4c.05.25-.14.15-.23.18-.09-.14,0-.21.1-.25S8.48,3.35,8.51,3.4Z"/><path class="cls-158" d="M8.51,3.4l-.13-.07-.14,0a.24.24,0,0,1,.24-.15c.07,0,.1,0,.15.06s0,.08,0,.12A.15.15,0,0,0,8.51,3.4Z"/><path class="cls-132" d="M7.61,3.55l0,0c-.18,0-.19,0-.14-.16a.66.66,0,0,0,0-.14c0-.08,0-.17.08-.22h.06c.07,0,.1.09.14.15a.17.17,0,0,1,0,.17h0Z"/><path class="cls-117" d="M8.65,3.33a.14.14,0,0,0-.08-.07c0-.08-.12-.19,0-.22s.15.21.28.25a.06.06,0,0,1,0,.08.17.17,0,0,0-.07.14c-.08.06-.08,0-.1-.07S8.68,3.37,8.65,3.33Z"/><path class="cls-9" d="M8.74,3.44l.1.07a1.12,1.12,0,0,1-.3.35s-.08-.1,0-.14S8.68,3.54,8.74,3.44Z"/><path class="cls-159" d="M9.31,3c-.08,0-.07.14-.13.18A.31.31,0,0,1,8.86,3a.52.52,0,0,1-.06-.13.18.18,0,0,1,0-.1c.09,0,.1-.17.2-.2a.24.24,0,0,1,.22,0,.33.33,0,0,1,.07.17C9.31,2.84,9.37,2.92,9.31,3Z"/><path class="cls-35" d="M8.84,2.9c.15,0,.12.17.23.21a.19.19,0,0,0,.11.05c-.07.07,0,.23-.2.21s-.08-.14-.18-.14a.14.14,0,0,1-.12-.15.86.86,0,0,1,0-.17A.09.09,0,0,1,8.84,2.9Z"/><path class="cls-160" d="M8.71,3.09s0,.05.07.05C9,3,9,3.24,9,3.37H8.91c-.13-.05-.25-.1-.26-.28A0,0,0,0,1,8.71,3.09Z"/><path class="cls-30" d="M9.31,3l0-.18s.06,0,.1,0,0,.08,0,.13l-.05.14Z"/><path class="cls-129" d="M10.15,3s0-.07,0-.11.21.06.31.07a.43.43,0,0,1,.1.29l0,0C10.42,3.12,10.27,3.07,10.15,3Z"/><path class="cls-9" d="M9.84,2.73l0,.1,0,.11c-.12-.07-.25,0-.38,0l0-.11a.19.19,0,0,1,.11-.17s.07,0,.11,0S9.76,2.54,9.84,2.73Z"/><path class="cls-36" d="M4,1.52c-.12,0-.19-.1-.29-.14v-.1l.13,0c.06.08.2.08.2.22s0,0,0,0H4Z"/><path class="cls-161" d="M10.68,2.16c.08,0,.14-.08.23-.07l0,.07s0,.15-.08.15S10.73,2.21,10.68,2.16Z"/><path class="cls-99" d="M10.55,1.84a.29.29,0,0,1,0,.18c-.15,0-.12-.15-.24-.2C10.44,1.8,10.49,1.84,10.55,1.84Z"/><path class="cls-103" d="M10,2.56H9.91a.3.3,0,0,1-.11-.14c0-.09,0-.14.09-.11l.06,0a.53.53,0,0,1,.14.23c-.06,0-.07-.06-.09,0S10,2.53,10,2.56Z"/><path class="cls-2" d="M8.63,2.18a.12.12,0,0,1,0-.13c.14,0,.13.24.27.28l0,.08c-.07,0-.12,0-.17,0S8.71,2.22,8.63,2.18Z"/><path class="cls-43" d="M9.25,2.66H9A.1.1,0,0,1,9,2.6c0-.06,0-.12,0-.15a.64.64,0,0,0,.47,0c.06.07.09.14,0,.22S9.34,2.73,9.25,2.66Z"/><path class="cls-73" d="M9.84,2.73l-.11-.09c-.05,0-.05.11-.12.12a.3.3,0,0,1,0-.34l.13,0c.14,0,.16.1.13.22Z"/><path class="cls-103" d="M9.58,2.42a.56.56,0,0,1,0,.34c-.06,0-.1,0-.1-.09s0,0,0,0a.54.54,0,0,1,0-.22Z"/><path class="cls-93" d="M9,2.45v.14s0,.11-.07.12a.11.11,0,0,1-.1-.07c-.05-.08-.12-.14-.13-.24a.09.09,0,0,1,0-.07l.14.08A.17.17,0,0,1,9,2.45Z"/><path class="cls-86" d="M9.84,2.59c0-.1-.1-.13-.13-.22V2.31a.17.17,0,0,1,.18,0c-.12.1,0,.16,0,.25Z"/><path class="cls-162" d="M8.74,2.33v.08a.16.16,0,0,1,0,.07.24.24,0,0,0-.11.16c0,.07-.07.1-.14.09a.24.24,0,0,1-.15-.28.09.09,0,0,0,.06-.07c.07,0,.14,0,.2,0h0a.25.25,0,0,0,.06-.16C8.72,2.18,8.72,2.27,8.74,2.33Z"/><path class="cls-82" d="M8.57,2.34l-.26,0c.13-.06.22-.13.26,0Z"/><path class="cls-163" d="M6.71,2.27c0-.11,0-.22.15-.2s0,.14,0,.21,0,0,0,0,0,.16-.13.12S6.72,2.33,6.71,2.27Z"/><path class="cls-66" d="M6.71,2.27l0,.11s.06-.08.09-.11.08,0,.08.1,0,.16-.1.19a.12.12,0,0,1-.11,0l0-.08A.25.25,0,0,1,6.71,2.27Z"/><path class="cls-48" d="M6.87,2.38l0-.11,0-.2,0,0,0,0A.25.25,0,0,1,7,2.37C7,2.44,6.92,2.45,6.87,2.38Z"/><path class="cls-60" d="M5.77,2.32l.1.09.23.14.11.07.11.1a.3.3,0,0,1-.14.37.11.11,0,0,1-.1,0C6,3,6,2.86,5.81,2.83s-.1-.25-.26-.23-.19-.17-.22-.3a.18.18,0,0,1,0-.1c.06,0,.11-.06.17-.05s.07.05.09.09Z"/><path class="cls-72" d="M6.17,3.05c.08-.09,0-.27.15-.33l.15.07A.81.81,0,0,0,6.63,3a.08.08,0,0,1,.08,0s.14.07.13.18,0,.22-.2.21-.16.06-.25.07a.12.12,0,0,1-.11,0C6.26,3.26,6.11,3.19,6.17,3.05Z"/><path class="cls-78" d="M6.71,2.52h.1c.1,0,.18.07.14.2a1,1,0,0,1-.13.16c-.05.05-.11.09-.18,0A.67.67,0,0,0,6.71,2.52Z"/><path class="cls-41" d="M6.64,2.91c.12,0,.16-.15.24-.22A.15.15,0,0,1,7,2.81C6.88,3,6.84,3,6.67,3l0,0Z"/><path class="cls-40" d="M7.91,2.27c0,.07.09.15.17,0a.2.2,0,0,1,.1.16c0,.08,0,.16-.11.18a.18.18,0,0,1-.09,0,.56.56,0,0,0-.13,0,.64.64,0,0,1-.28-.15c-.06-.06-.12-.12-.06-.21s.15,0,.2.06S7.86,2.34,7.91,2.27Z"/><path class="cls-63" d="M8.31,2.45c0,.09.15.13.17.24s0,.19-.06.28,0,0,0,0h0c-.1,0-.08-.07-.09-.12s-.1-.08-.12-.15a.49.49,0,0,1,.1-.26Z"/><path class="cls-54" d="M8.27,2.48c.08.11,0,.18-.06.25a.09.09,0,0,1-.1,0,.12.12,0,0,1-.06-.18l.13-.13Z"/><path class="cls-90" d="M7,2.38l0-.29c.08,0,.15,0,.23,0a.87.87,0,0,0,0,.32.05.05,0,0,1,0,0S7,2.55,7,2.47A.1.1,0,0,1,7,2.38Z"/><path class="cls-77" d="M7,2.38v.1c.06,0,0-.12.13-.07H7.2v0c.11,0,.09.11.09.2s0,.11,0,.17,0,0,0,0S7.25,3,7.22,3s-.13,0-.19,0-.09-.15-.13-.23l0-.11c0-.08,0-.11-.07-.17l.06-.14Z"/><path class="cls-164" d="M7.21,2.63a.15.15,0,0,0,0-.19c.06,0,.08-.07.13-.1h0c.13,0,.16.1.1.23a.45.45,0,0,1-.21.12S7.2,2.68,7.21,2.63Z"/><path class="cls-11" d="M7.44,2.55c.06-.09,0-.14-.06-.21a.09.09,0,0,1,.1-.07.07.07,0,0,1,.06.07c0,.22.19.22.34.25,0,.14-.13.07-.2.09s-.13,0-.2,0S7.4,2.61,7.44,2.55Z"/><path class="cls-11" d="M7.54,2.34l-.06-.07v0a.07.07,0,0,0,.1,0,.2.2,0,0,0,.21,0h0l-.08.15C7.65,2.37,7.6,2.31,7.54,2.34Z"/><path class="cls-165" d="M5.63,2.24l-.09,0a.53.53,0,0,1,0-.39c0-.09.06-.16,0-.25l0-.13,0-.05c.11.08,0,.22.07.32A1.64,1.64,0,0,0,5.63,2.24Z"/><path class="cls-56" d="M4.94,1.77v0L5,1.55c.14,0,.15.05.11.26v.07C5,2,5,1.93,4.94,1.77Z"/><path class="cls-124" d="M5.14,1.81c0-.09,0-.2-.11-.26a.13.13,0,0,1,0-.1c.11,0,.13.12.14.22Z"/><path class="cls-166" d="M5.53,1.56a.1.1,0,0,1,0,.09.47.47,0,0,0,0,.35.21.21,0,0,1,0,.2.11.11,0,0,1-.13,0A.14.14,0,0,1,5.34,2Z"/><path class="cls-141" d="M5.34,2a.86.86,0,0,1,.07.21l0,.07a.06.06,0,0,1-.08,0C5.21,2.21,5.07,2.16,5,2a.12.12,0,0,1,.15-.1l.08,0Z"/><path class="cls-131" d="M5.18,1.91,5.07,2c0,.08-.05.06-.09.08s-.05,0-.08,0a.2.2,0,0,1-.13-.2c0-.1.1-.08.17-.1h0a.53.53,0,0,0,.21.11Z"/><path class="cls-56" d="M4.94,1.77c0,.05-.13.05-.11.14S4.93,2,5,2a.33.33,0,0,0,.17.14c.06,0,.1,0,.09.12s-.06.09-.12.11H5a.2.2,0,0,1-.15-.12c0-.1-.17-.11-.21-.22a.4.4,0,0,0-.23-.29c-.06,0-.17,0-.13-.16s.14-.08.23,0A.84.84,0,0,0,4.94,1.77Z"/><path class="cls-140" d="M4,1.49V1.34h0c.08,0,.12.16.19.23l0,0s.05.07.07.12.17.16.24.25.08.1,0,.17-.2-.22-.36-.22S4.15,1.58,4,1.49Z"/><path class="cls-30" d="M4.31,1.7s-.11,0,0-.11h0l.35.26s.12.08.12.17S4.62,2,4.56,2,4.34,1.84,4.31,1.7Z"/><path class="cls-56" d="M4.24,1.56A.3.3,0,0,1,4,1.35c0-.06.08-.07.12,0a.14.14,0,0,0,.14,0l.13,0Z"/><path class="cls-146" d="M4.29,1.34c0,.08,0,.12-.12.07A.22.22,0,0,0,4,1.35H4s0-.07,0-.1S4.21,1.3,4.29,1.34Z"/><path class="cls-165" d="M6.31,3.33l.1,0c.08,0,.15,0,.23,0a1.08,1.08,0,0,1,.19,0c.11,0,.14.06.15.16a.86.86,0,0,0,0,.16l0,.07c-.17-.07-.38,0-.54-.14s-.05-.06-.07-.09-.15-.09-.14-.2S6.27,3.27,6.31,3.33Z"/><path class="cls-147" d="M6,3.55a3.08,3.08,0,0,1-1-.14c0-.13.07-.15.17-.11l.12,0h.23a.86.86,0,0,0,.39-.09C6.09,3.34,6.1,3.43,6,3.55Z"/><path class="cls-70" d="M5.33,3.4c-.09,0-.2-.11-.3,0L5,3.36l0,0a.43.43,0,0,0,0-.23s0,0,0,0,.18,0,.27,0,.14,0,.15.13,0,0,0,0S5.38,3.35,5.33,3.4Z"/><path class="cls-109" d="M5,3.33v0H4.8c-.1-.06-.22-.08-.3-.17.07,0,.07-.12.13-.15s.09.08.14,0h0c.07-.06.12,0,.15,0A.4.4,0,0,1,5,3.33Z"/><path class="cls-162" d="M6,3.55H5.84c.17,0,.19-.13.1-.24a.07.07,0,0,1,0-.1H6a.27.27,0,0,1,.17.16s.07.1,0,.16Z"/><path class="cls-11" d="M6.17,3.51s0-.09,0-.14.16.09.23.15,0,0,0,.1S6.24,3.58,6.17,3.51Z"/><path class="cls-72" d="M7,3.69c-.06,0-.13,0-.09-.12s0-.1-.07-.1c-.07-.22,0-.26.19-.25,0,0,.06,0,.1,0s.21,0,.3,0l0,.06c0,.16-.13.19-.2.27S7.06,3.66,7,3.69Z"/><path class="cls-122" d="M7.24,3.62c0-.12.15-.14.17-.25s0-.07.07-.07.13.08,0,.22c0,.07.09,0,.12.06S7.35,3.58,7.24,3.62Z"/><path class="cls-167" d="M4.77,3.05c0,.05.07.11,0,.14s-.13-.06-.13-.14V3A.15.15,0,0,0,4.77,3.05Z"/><path class="cls-52" d="M4.9,2.24c.07,0,.1,0,.14.1s.06.11.08.17,0,.19,0,.25-.13,0-.16-.07a.91.91,0,0,0-.07-.14l-.1-.11s-.07,0-.1-.06l-.07,0V2.27c.06,0,0-.12.07-.14S4.81,2.22,4.9,2.24Z"/><path class="cls-168" d="M4.84,2.55c.1,0,.12.17.23.18l0,0a.1.1,0,0,1,0,.12C5,2.9,5,3,4.9,3a.07.07,0,0,1,0-.09Z"/><path class="cls-95" d="M4.87,2.87l0,.07A.17.17,0,0,1,5,3.08H5c0,.12,0,.12-.17.06,0-.06,0-.1-.1-.1a.19.19,0,0,1-.07-.14C4.79,3,4.81,2.87,4.87,2.87Z"/><path class="cls-94" d="M4.64,2.38a.11.11,0,0,1,.1.06c0,.08.06.15,0,.24s-.06-.07-.09-.09A.76.76,0,0,1,4.64,2.38Z"/><path class="cls-138" d="M4.9,2.24c-.15.13-.2,0-.26-.11h0L4.54,2s0-.05,0-.07.13.09.2.12S4.93,2.12,4.9,2.24Z"/><path class="cls-70" d="M8.11,2.72h.1c0,.07.17,0,.13.11s-.09,0-.13,0-.14.13-.12.24.05.13-.05.15a.27.27,0,0,1-.09,0,.11.11,0,0,1-.09-.07c0-.06-.08-.1-.09-.16a.16.16,0,0,1,.07-.13C8,2.87,8,2.69,8.11,2.72Z"/><path class="cls-91" d="M8.38,3V3c.06-.15.19-.11.3-.11a.12.12,0,0,1,.06.08.16.16,0,0,1,0,.15H8.65c-.12,0-.06.11-.08.17l-.09-.11Z"/><path class="cls-169" d="M8,3.19l.06,0a.33.33,0,0,1-.33.14s-.06-.08,0-.14,0,0,0-.06S7.88,3.25,8,3.19Z"/><path class="cls-169" d="M8.21,2.84s.09,0,.13,0a.25.25,0,0,0,0,.17l-.15.1C8.19,3,8.27,2.92,8.21,2.84Z"/><path class="cls-48" d="M7.48,3.3s0,.07,0,.09,0,0-.06,0l0,0c-.1-.12-.24,0-.35-.07s-.11,0-.16,0S7,3.05,7,3a.25.25,0,0,0,.17,0c0-.09.08-.12.13-.16s.11-.13.21-.08a.11.11,0,0,1,0,.16s0,.08,0,.12a.06.06,0,0,1,0,.07Z"/><path class="cls-170" d="M7.71,3.19l0,0-.11-.14a.59.59,0,0,1,.12-.22c.07,0,.11-.13.2-.06a.08.08,0,0,1,0,.1L7.81,3c0,.07,0,.1-.07.14Z"/><path class="cls-161" d="M7.72,2.91a.3.3,0,0,1-.15.18h0l0,0c0-.15,0-.18.17-.18S7.71,2.89,7.72,2.91Z"/><path class="cls-162" d="M8.68,2.41h.07l.15.2c.06.08.08,0,.11,0v.07c.05.13,0,.21-.13.18s-.23-.17-.25-.36A.18.18,0,0,1,8.68,2.41Z"/><path class="cls-136" d="M8.68,2.48a1,1,0,0,0,.2.36l0,.06-.1,0-.07,0A.29.29,0,0,1,8.68,2.48Z"/><path class="cls-136" d="M9.48,2.63l0,0c0,.05-.06.12-.13.13h-.1a.17.17,0,0,1,0-.14A.27.27,0,0,1,9.48,2.63Z"/><path class="cls-68" d="M8.68,2.48c-.1.14,0,.28,0,.42S8.62,3,8.53,3s-.1,0-.15,0,.07-.18.1-.28a.21.21,0,0,0,.08-.16.12.12,0,0,1,.12-.12Z"/><path class="cls-122" d="M5.08,2.51c-.07,0,0-.11,0-.17s.12,0,.17-.1C5,2.29,5.06,2.11,5,2h.07a1.58,1.58,0,0,1,.3.28.24.24,0,0,1,.2.25c.13.12.13.12,0,.32l0,0s-.13,0-.15-.05A.63.63,0,0,0,5.08,2.51Z"/><path class="cls-171" d="M6,3.23H6c-.1,0-.22,0-.27-.12A.13.13,0,0,1,5.76,3c.12-.05.23,0,.35,0l.06,0c.06.09.18.14.14.28h-.1C6.13,3.32,6.08,3.24,6,3.23Z"/><path class="cls-35" d="M6.11,3c-.1.13-.2.05-.3,0s-.06-.08,0-.14a.09.09,0,0,1,.09-.07C6,2.75,6.09,2.85,6.11,3Z"/><path class="cls-56" d="M5.85,2.8l0,.07a.19.19,0,0,1-.3,0c.07-.08.13-.16.07-.28C5.75,2.53,5.79,2.56,5.85,2.8Z"/><path class="cls-78" d="M7,3c.12.23-.12.13-.17.21s-.07,0-.09,0S6.71,3,6.67,3A.58.58,0,0,0,6.9,2.8.19.19,0,0,1,7,3Z"/><path class="cls-169" d="M6.78,3.15s0,.08.09,0l.17,0v0H7c-.15,0-.22,0-.2.2,0,0-.09-.14-.17,0s-.18,0-.23-.11.1-.21.25-.11S6.78,3.24,6.78,3.15Z"/><path class="cls-25" d="M7.72,2.91h0s0-.13-.13-.14-.12.13-.21.08,0,0,0,0v0c0-.09,0-.16.12-.16a.3.3,0,0,1,.21,0,.51.51,0,0,0,.24,0l.1,0c0,.12,0,.18-.11.18S7.79,2.9,7.72,2.91Z"/><path class="cls-8" d="M7.87,2.8,8,2.62l.07,0,.06.13c-.08.06,0,.27-.23.19Z"/><path class="cls-132" d="M7.11,2.41c-.06,0,0,.16-.13.07s0,0,0-.08,0-.19.06-.18S7.09,2.34,7.11,2.41Z"/><path class="cls-172" d="M7.44,2.69l-.13.12a.23.23,0,0,0-.1-.07c-.14,0-.08-.07,0-.11l.06,0C7.34,2.62,7.4,2.62,7.44,2.69Z"/><path class="cls-85" d="M7.31,2.83h0S7.3,3,7.21,3l-.09-.11C7.17,2.81,7.25,2.84,7.31,2.83Z"/><path class="cls-88" d="M7.44,2.69l-.17,0c0-.08.11-.09.17-.11s.15,0,.2.08Z"/><path class="cls-9" d="M4.57,1.91l0,.07c-.07-.05-.17-.07-.22-.15s-.1-.08,0-.13S4.51,1.81,4.57,1.91Z"/><path class="cls-169" d="M6,3.23c.1,0,.15,0,.21.1s.14.09.16.19a.91.91,0,0,1-.23-.15Z"/><path class="cls-113" d="M5.74,3.12c.11-.05.15.08.23.11l0,.07c0,.1-.09.15-.18.12a.37.37,0,0,0-.23.05.25.25,0,0,1,0-.36A.1.1,0,0,1,5.74,3.12Z"/><path class="cls-109" d="M5.6,3.16c-.07.09,0,.21-.07.31L5.41,3.4a.16.16,0,0,1,0-.17v0s.06-.13.14-.14S5.61,3.09,5.6,3.16Z"/><path class="cls-11" d="M5.37,3.23l0,.17H5.33c0-.11-.1-.14-.13-.24S5.32,3.21,5.37,3.23Z"/><path class="cls-123" d="M5,3.08c-.07,0-.1-.08-.13-.14S5,2.83,5,2.83a.37.37,0,0,0,.18,0,.16.16,0,0,1,.15.08.11.11,0,0,1,0,.05c0,.13-.09.1-.14.13S5.11,3,5,3.08Z"/><path class="cls-103" d="M5.24,3.08l.1-.1c.1,0,.16,0,.16.11s0,.12-.13.1A.15.15,0,0,0,5.24,3.08Z"/><path class="cls-173" d="M4.87,3.15S5,3.17,5,3.09c.11.12,0,.17-.07.24Z"/><path class="cls-165" d="M7,3.26v0l.14,0c.14-.07.2,0,.2.14-.09,0-.2.13-.27,0A.07.07,0,0,1,7,3.26Z"/><path class="cls-174" d="M7,3.26l.07,0v.2A.22.22,0,0,1,7,3.27Z"/><path class="cls-132" d="M5.34,2.94,5.2,2.87c-.09,0-.09-.08-.13-.14h0c0-.07-.08-.15,0-.22s.28,0,.33.26c0,0,0,0,.06.07S5.44,3,5.34,2.94Z"/><path class="cls-51" d="M5.07,2.73c.06,0,.12.06.13.14s-.12,0-.16,0Z"/><path class="cls-132" d="M7.71,3.19v0c0-.05.11-.1.19,0L8,3.19C7.89,3.32,7.8,3.23,7.71,3.19Z"/><path class="cls-51" d="M7.91,3.13l-.19,0C7.66,3,7.8,3.08,7.81,3A.16.16,0,0,1,7.91,3.13Z"/><path class="cls-129" d="M7.54,2.76a.17.17,0,0,1,.1-.06c.05,0,.11,0,.13,0s0,.07-.06.11l0,0c0,.07-.14.05-.16.15s-.14,0-.06-.14S7.51,2.81,7.54,2.76Z"/><path class="cls-175" d="M5.34,2.94a.19.19,0,0,0,.13-.1h0a.73.73,0,0,1,.3,0V3a.16.16,0,0,0-.07.11l-.14,0-.1-.07L5.34,3Z"/></svg>