<svg id="Layer_1" data-name="Layer 1" xmlns="http://www.w3.org/2000/svg" viewBox="0 0 477.02 206.48"><defs><style>.cls-1{fill:#e0e0e0;}.cls-2{fill:#a4a4a4;}.cls-3{fill:#d6d6d6;}.cls-4{fill:#383838;}.cls-5{fill:#a5a5a5;}.cls-6{fill:#323232;}.cls-7{fill:#cdcdcd;}.cls-8{fill:#bababa;}.cls-9{fill:#b4b4b4;}.cls-10{fill:#434343;}.cls-11{fill:#959595;}.cls-12{fill:#636363;}.cls-13{fill:#717171;}.cls-14{fill:#c3c3c3;}.cls-15{fill:#595959;}.cls-16{fill:#bebebe;}.cls-17{fill:#cfcfcf;}.cls-18{fill:#666;}.cls-19{fill:#6b6b6b;}.cls-20{fill:#c2c2c2;}.cls-21{fill:#8a8a8a;}.cls-22{fill:#b6b6b6;}.cls-23{fill:#484848;}.cls-24{fill:#838383;}.cls-25{fill:#6c6c6c;}.cls-26{fill:#ebebeb;}.cls-27{fill:#575757;}.cls-28{fill:#b3b3b3;}.cls-29{fill:#6e6e6e;}.cls-30{fill:#818181;}.cls-31{fill:#333;}.cls-32{fill:#a8a8a8;}.cls-33{fill:#8e8e8e;}.cls-34{fill:#3f3f3f;}.cls-35{fill:#c8c8c8;}.cls-36{fill:#3b3b3b;}.cls-37{fill:#e1e1e1;}.cls-38{fill:gray;}.cls-39{fill:#777;}.cls-40{fill:#757575;}.cls-41{fill:#373737;}.cls-42{fill:#969696;}.cls-43{fill:#9d9d9d;}.cls-44{fill:#737373;}.cls-45{fill:#606060;}.cls-46{fill:#adadad;}.cls-47{fill:#585858;}.cls-48{fill:#7b7b7b;}.cls-49{fill:#545454;}.cls-50{fill:#5c5c5c;}.cls-51{fill:#929292;}.cls-52{fill:#9b9b9b;}.cls-53{fill:#4a4a4a;}.cls-54{fill:#d7d7d7;}.cls-55{fill:#212121;}.cls-56{fill:#bfbfbf;}.cls-57{fill:#7c7c7c;}.cls-58{fill:#202020;}.cls-59{fill:#414141;}.cls-60{fill:#dcdcdc;}.cls-61{fill:#d8d8d8;}.cls-62{fill:#e3e3e3;}.cls-63{fill:#9e9e9e;}.cls-64{fill:#353535;}.cls-65{fill:#474747;}.cls-66{fill:#464646;}.cls-67{fill:#4b4b4b;}.cls-68{fill:#424242;}.cls-69{fill:#c7c7c7;}.cls-70{fill:#868686;}.cls-71{fill:#7e7e7e;}.cls-72{fill:#d4d4d4;}.cls-73{fill:#7d7d7d;}.cls-74{fill:#858585;}.cls-75{fill:#a0a0a0;}.cls-76{fill:#989898;}.cls-77{fill:#6d6d6d;}.cls-78{fill:#515151;}.cls-79{fill:#888;}.cls-80{fill:#828282;}.cls-81{fill:#c9c9c9;}.cls-82{fill:#363636;}.cls-83{fill:#c4c4c4;}.cls-84{fill:#494949;}.cls-85{fill:#aaa;}.cls-86{fill:#646464;}.cls-87{fill:#454545;}.cls-88{fill:#505050;}.cls-89{fill:#999;}.cls-90{fill:#a6a6a6;}.cls-91{fill:#7f7f7f;}.cls-92{fill:#656565;}.cls-93{fill:#727272;}.cls-94{fill:#393939;}.cls-95{fill:#4e4e4e;}.cls-96{fill:#6f6f6f;}.cls-97{fill:#8d8d8d;}.cls-98{fill:#e5e5e5;}.cls-99{fill:#616161;}.cls-100{fill:#1f1f1f;}.cls-101{fill:#797979;}.cls-102{fill:#676767;}.cls-103{fill:#5a5a5a;}.cls-104{fill:#2d2d2d;}.cls-105{fill:#3a3a3a;}.cls-106{fill:#232323;}.cls-107{fill:#d1d1d1;}.cls-108{fill:#b9b9b9;}.cls-109{fill:#787878;}.cls-110{fill:#252525;}.cls-111{fill:#3d3d3d;}.cls-112{fill:#565656;}.cls-113{fill:#949494;}.cls-114{fill:#282828;}.cls-115{fill:#bcbcbc;}.cls-116{fill:#555;}.cls-117{fill:#9c9c9c;}.cls-118{fill:#b5b5b5;}.cls-119{fill:#3e3e3e;}.cls-120{fill:#1e1e1e;}.cls-121{fill:#181818;}.cls-122{fill:#c6c6c6;}.cls-123{fill:#767676;}.cls-124{fill:#979797;}.cls-125{fill:#cacaca;}.cls-126{fill:#919191;}.cls-127{fill:#2e2e2e;}.cls-128{fill:#1d1d1d;}.cls-129{fill:#909090;}.cls-130{fill:#2b2b2b;}.cls-131{fill:#d2d2d2;}.cls-132{fill:#afafaf;}.cls-133{fill:#303030;}.cls-134{fill:#a1a1a1;}.cls-135{fill:#eaeaea;}.cls-136{fill:#696969;}.cls-137{fill:#9f9f9f;}.cls-138{fill:#a7a7a7;}.cls-139{fill:#d3d3d3;}.cls-140{fill:#a2a2a2;}.cls-141{fill:#dbdbdb;}.cls-142{fill:#5d5d5d;}.cls-143{fill:#a3a3a3;}.cls-144{fill:#d0d0d0;}.cls-145{fill:#e9e9e9;}.cls-146{fill:#f2f2f2;}.cls-147{fill:#a9a9a9;}.cls-148{fill:#1c1c1c;}.cls-149{fill:#0c0c0c;}.cls-150{fill:#0a0a0a;}.cls-151{fill:#343434;}.cls-152{fill:#2c2c2c;}.cls-153{fill:#707070;}.cls-154{fill:#111;}.cls-155{fill:#5f5f5f;}.cls-156{fill:#acacac;}.cls-157{fill:#131313;}.cls-158{fill:silver;}.cls-159{fill:#b8b8b8;}.cls-160{fill:#b1b1b1;}.cls-161{fill:#3c3c3c;}.cls-162{fill:#898989;}.cls-163{fill:#2a2a2a;}.cls-164{fill:#4f4f4f;}.cls-165{fill:#b0b0b0;}.cls-166{fill:#ccc;}.cls-167{fill:#8b8b8b;}.cls-168{fill:#aeaeae;}.cls-169{fill:#c1c1c1;}.cls-170{fill:#747474;}.cls-171{fill:#bbb;}.cls-172{fill:#4d4d4d;}.cls-173{fill:#686868;}.cls-174{fill:#f3f3f3;}.cls-175{fill:#ababab;}</style></defs><path class="cls-1" d="M451.59,153.18,477,181v3.59Q463.48,169.74,450,154.91A4.55,4.55,0,0,1,451.59,153.18Z" transform="translate(0 -1.31)"/><path class="cls-2" d="M477,12.09c-6.87.33-13.78-.49-20.61.85a6.06,6.06,0,0,1-4.07-.83c2-1.88,4.43-1.58,6.73-1.65,6-.17,12-.12,17.95-.16Z" transform="translate(0 -1.31)"/><path class="cls-3" d="M303.57,127.09c2.87,4.45,6.5,8.36,8.47,13.46-.6,2.77.67,5.2,1.37,7.7.39,1.39,1.58,2.74-.12,3.91s-3.05.3-4.18-.88a35.73,35.73,0,0,1-4.17-5.47c-.49-.76-1.08-1.75-2.25-1.63C297.6,138,294,130.89,290.87,123.5c2.37-1.68,4.54-1.85,6.34.91C299,126.27,301.5,126.06,303.57,127.09Z" transform="translate(0 -1.31)"/><path class="cls-4" d="M34.55,64.32c3.58.2,11.21-1.71,15-3.77.63-3.18,1.11-6.46,4.44-7.95a3,3,0,0,1,3.34-.08,3.26,3.26,0,0,1,.28,4.61c-.91,1.11-.75,2.39-.94,3.64-1,2.09-2.8,3.47-4,5.38-.93,2.3-3.18,2-4.86,2.79-1.61,2.33-2.25,5.41-5,6.9-1.25.68-2.31,1.74-3.86,1.07a2.68,2.68,0,0,1-1-3.64c.4-2.91-2.35-3.61-3.42-5.49C34.94,66.62,33.55,65.48,34.55,64.32Z" transform="translate(0 -1.31)"/><path class="cls-5" d="M331.39,65.23c11.87,3.84,23,9.46,33.86,15.73,5.28,3.06,10.68,6,15.28,10.22,0,1.52-.67,1.52-1.66.87a248.46,248.46,0,0,0-50.89-26C328.9,64.82,330.37,66.06,331.39,65.23Z" transform="translate(0 -1.31)"/><path class="cls-6" d="M41.09,36.54c-4.21-3.36-8.46-6.71-11.42-11.44-.37-.6-2.09-1.31-.71-2.4s1.87.25,2.39,1.3a4.29,4.29,0,0,0,2.35,2.31c3,.42,5.31,2.32,7.7,4.11A93.62,93.62,0,0,0,60.73,42.06,4.14,4.14,0,0,1,62,42.6a4.49,4.49,0,0,1,1.42,4.63c-1.58,2.31-3.22,2.58-5.64,1-3-2-5.89-4.41-9.36-5.63A18.78,18.78,0,0,1,41.09,36.54Z" transform="translate(0 -1.31)"/><path class="cls-7" d="M302.69,144.18c1.92-1.23,2.7.52,3.77,1.6,1.78,1.8,3.17,4.14,6.2,5.06-.72-3.57-4.64-6.84-.62-10.29,1.12,2.1,2.24,4.21,3.37,6.31a18.79,18.79,0,0,0,1.77,7c.52,2.95-2.78,4.41-2.52,7.26a1.45,1.45,0,0,1-1.87-.56C309.76,154.87,305.25,150.2,302.69,144.18Z" transform="translate(0 -1.31)"/><path class="cls-3" d="M177.56,129.78c-1.87,8.89-5,17.37-7.77,25.95-.59,1.82.58,4.81-2.42,5.51-3.94,1.85-3.92,1.85-4-2.5,0-.72-.35-1.41-.3-2.16a10.69,10.69,0,0,1,.5-2.44c2.48-3.46,4.78-7,5-11.57a5.61,5.61,0,0,1,.49-1.16c2.09-3.49,3-7.75,6-10.61C175.84,130.15,176.34,129,177.56,129.78Z" transform="translate(0 -1.31)"/><path class="cls-8" d="M285.82,87.57c-1.59,1.8-3.31,3.29-5.87,2.78l-.67-.11c-1.93-.75-3-2.06-2.53-4.37.51-1.29,1.34-2.53,2.74-2.07,3.38,1.11,4.05-1.23,4.67-3.77.52-3.35,2.09-6.45,2-9.94a3.26,3.26,0,0,1,1.32-2.27c2.44-1.06,3.54.59,4.5,2.51a2.82,2.82,0,0,0,1.35,1.86c0,2.23,0,4.47-.14,6.69-.11,1.51-.72,3.65-2,3.56C287.38,82.19,287,85.25,285.82,87.57Z" transform="translate(0 -1.31)"/><path class="cls-9" d="M296,125.27c-1.27-2-4.1,1.06-5.1-1.77l-2.52-3.61c-.79-2.8.84-5,1.61-7.45.47-1.45,1.62-1.46,2.73-.56,2.93,3.75,6.26,7.16,8.39,11.56C300.74,126.27,299.37,126.76,296,125.27Z" transform="translate(0 -1.31)"/><path class="cls-10" d="M18.48,88.64c3.33-.57,6.05-2.83,9.23-3.81,1.77-.3,3.64-1.76,5.19.51a4.19,4.19,0,0,1,.31,1.3,3,3,0,0,1-2.37,3.52c-2.66.88-4.56,4.08-8,2.83-.45-.17-1.25,1.05-1.9,1.61-2.61.85-5.32-.57-8,.64-1.44.64-1.57-1-1.14-2.29,1.1-1.86,2.1-3.76,4.76-3C17.4,90.26,17.93,89.26,18.48,88.64Z" transform="translate(0 -1.31)"/><path class="cls-7" d="M164,156.72c1.25,1.15,1,2.57.58,4.05,1.34-.59,2.53-.37,2.79.47-1.13,4.1-2.29,8.19-3.36,12.3a5.47,5.47,0,0,1-1.71,3c-1.39-.22-1.78-2-3.13-2.27-3.34-1.28-2-3.44-.94-5.55,1.26-3.27,2.39-6.59,3.69-9.84C162.31,157.89,162.31,156.32,164,156.72Z" transform="translate(0 -1.31)"/><path class="cls-11" d="M331.39,65.23l-3.41.84c-9.45-3-19.12-4.94-28.73-7.16.05-1.29.31-2.34,1.89-1.94,8.89.49,17.22,3.37,25.46,6.67C328.16,64.27,329.79,64.71,331.39,65.23Z" transform="translate(0 -1.31)"/><path class="cls-12" d="M43.7,46.41c-2.71-1.85-5.81-.13-8.79-1.16-2.19-.75-4.13-3.48-6.93-2-.05,0-.29-.14-.31-.24-1.59-8.37-7.45-1.83-10.94-3.54.06-1.68,1.1-2.24,2.47-2.45,2.88-.54,5.77.46,8.65,0A11.16,11.16,0,0,0,35.38,39c2.33,2,4.73,2.63,7.27.4,2.18.09,3.32,1.51,4,3.52a3.37,3.37,0,0,1-.93,2.79A2.56,2.56,0,0,1,43.7,46.41Z" transform="translate(0 -1.31)"/><path class="cls-13" d="M179.19,112.55l2.55-2.47c1,0,2.09-.63,3.14,0,1.51,1.27,3,2.53,3.15,4.81a13.31,13.31,0,0,1-2.08,5.89h0c-2.35,1.7-1.51-1.79-3-1.92-2.19,1-1.79,6.45-6,4.52-.94-.36-1.85,1.16-2.82.15C174.87,119.37,176.89,115.89,179.19,112.55Z" transform="translate(0 -1.31)"/><path class="cls-14" d="M399.17,104.65a285.65,285.65,0,0,1,27.1,24.2c.22.87-.07,1.19-.89,1-8.93-7.49-17.77-15.11-26.24-23.18A1.48,1.48,0,0,1,399.17,104.65Z" transform="translate(0 -1.31)"/><path class="cls-15" d="M103.09,5l3.49-1.56c2.23-2.09,4.69-2.75,7.48-1.34,1.71.59,4.09-1,5.14,1.76a4.35,4.35,0,0,1,.6,1.27c.12,1.86-1.19,2.37-2.44,2.94a4.35,4.35,0,0,1-1.86.67c-4.55-.46-9.14-1.8-13.32,1.75a4.3,4.3,0,0,1-4.35.82c-1.89-1.42-.37-3-.19-4.5C99,4.77,101.05,4.83,103.09,5Z" transform="translate(0 -1.31)"/><path class="cls-16" d="M187,115.52c-.32-2-1.74-3.18-2.92-4.54,1.46-2.62,4.58.15,6.14-2.13a30.37,30.37,0,0,0,4.44-2.26c4.14-2.24,4.64-2.13,6.66,2.63-1,3.07-4.23,3.3-6.11,5.26l-5.84,3.67C188.17,117.73,186.33,117.92,187,115.52Z" transform="translate(0 -1.31)"/><path class="cls-17" d="M425.38,129.8c.3-.31.6-.63.89-1,7.13,5.87,13.5,12.64,20,19.27,1.71,1.76,3.55,3.38,5.34,5.06a2.72,2.72,0,0,1-1.64,1.73c-6.2-6.27-12.35-12.61-18.62-18.79A48.16,48.16,0,0,1,425.38,129.8Z" transform="translate(0 -1.31)"/><path class="cls-18" d="M280.75,95.42l1.67,1.08c1.88,1.14.89,3.21,1.38,4.81,1.69,3.31,5.38,4.9,6.52,8.67-.05,3-.08,6-3.8,6.49l-.92-2.76c.69-3.18-1.53-4.6-3.38-6.25a5.81,5.81,0,0,0-.63-.15c-.26-.64-.52-1.28-.79-1.92-1.3-1.9-4.32-.16-5.28-2.8C275.7,98.92,278,97,280.75,95.42Z" transform="translate(0 -1.31)"/><path class="cls-19" d="M21,94.6c1.4-4.17,5.75-3.82,8.42-6.09.77-.65,2.09-.64,2.61-1.86,2.26-1.64,4.41-2.51,6,.92-3.31,1-5.5,4.07-8.67,5.32C26.9,95.54,23.68,93.72,21,94.6Z" transform="translate(0 -1.31)"/><path class="cls-20" d="M169.89,142.3c.19,3.88-1.62,7-3.24,10.26-.58,1.14-1.31,1.88-2.64,1.47-.3.51-.61.51-.9,0l.73-1.9a10,10,0,0,0,2-7q2.84-7.94,5.7-15.86c.54-1.49.74-3.27,2.54-3.84,1.84,1.41.61,3,.09,4.38C172.63,133.92,170.87,138,169.89,142.3Z" transform="translate(0 -1.31)"/><path class="cls-21" d="M331.44,173.86l3.57,2.53c.8,2.16,3.17,2,4.48,3.45,1,1,2.86,1.64,1.36,3.69-.37-.21-.81-.67-1.09-.58-4.66,1.46-7.73-2.43-11.54-3.81C328.56,176.88,327.9,173.92,331.44,173.86Z" transform="translate(0 -1.31)"/><path class="cls-22" d="M160.54,173c3.73-.58,1.73,2,1.76,3.55-3.21,3.18-2.39,8.28-5,11.77-1-.25-1.23-1-1.34-1.93a13.78,13.78,0,0,0-1.21-7.06l.69-5.48a1.74,1.74,0,0,1,2.55-.5C158.94,173.85,159.83,174.09,160.54,173Z" transform="translate(0 -1.31)"/><path class="cls-23" d="M32,85.75l-4.26-.92a15.68,15.68,0,0,1,1.63-1.32c1.22-.74,2.58-1.48,2.46-3.17s-2.27-.76-2.91-2.39a6.53,6.53,0,0,1,4-2.07,4.7,4.7,0,0,1,5,2.22,2.76,2.76,0,0,1,.28,1.29C36.58,82,37.25,87.16,32,85.75Z" transform="translate(0 -1.31)"/><path class="cls-24" d="M155.35,190.79c-.88,3.17-2.58,5.51-5.76,6.33a1.9,1.9,0,0,1-1.89-1.33c-.34-1.08.14-2.11.17-3.17,2.54-1.7,3.21-4.92,5.12-7.14C154.64,186.82,154.86,188.87,155.35,190.79Z" transform="translate(0 -1.31)"/><path class="cls-25" d="M340.85,183.53c-.76-2.64-2.78-3.91-4.86-5.17-.61-.36-2.28-.43-1-2,2.12,1.14,4.24,2.29,6.37,3.41a9.34,9.34,0,0,0,1.19.43c2.5.93,2.75,3.55,3.65,5.65.09.21-.63,1.13-1.05,1.2C342.6,187.53,342.11,185,340.85,183.53Z" transform="translate(0 -1.31)"/><path class="cls-10" d="M59.85,24c2,4.1,4.48.68,6.75.4a2.2,2.2,0,0,1,1.57,2.42c-3,5.48-7.88,6.83-12.68,3.5A2.35,2.35,0,0,1,56.23,27a2.44,2.44,0,0,1,2-.45C59.12,26,58.49,24.25,59.85,24Z" transform="translate(0 -1.31)"/><path class="cls-26" d="M169.89,142.3c-1.75-1.18-.66-2.68-.25-4,1.41-4.33,3-8.62,4.45-12.93l0-1.91c2.32-1.25,2.72-4.25,5-6.34.41,2.52-1.74,3.6-1.59,5.4-.58,1.41.18,3.06-.7,4.42-2.46,5-4.56,10.27-6.92,15.35Z" transform="translate(0 -1.31)"/><path class="cls-27" d="M18.48,88.64c-1.32,3-4.66,2.52-6.69,4.31C9.46,90.45,3.07,91.4.42,94.81c-1.06-2.55.11-4.53,1-6.55,3,1.2,6.32.15,9.39,1.1C13.39,89.2,16,89.74,18.48,88.64Z" transform="translate(0 -1.31)"/><path class="cls-20" d="M169.87,142.34c1.68-5.52,3.19-11.12,5.76-16.29,1.4-.21,1.91,1,2.64,1.86-.24.62-.48,1.25-.71,1.87C174.48,133.61,173.14,138.65,169.87,142.34Z" transform="translate(0 -1.31)"/><path class="cls-7" d="M55,39C47.84,36.36,42.34,31,36.32,26.45l.75-.87c4.49,3.16,8.24,8,14.47,7.24a4.22,4.22,0,0,0,2.56,2.47C56.46,37.07,56.57,37.54,55,39Z" transform="translate(0 -1.31)"/><path class="cls-28" d="M378.87,92.05l1.66-.87c4.77,2.15,8.59,5.79,12.7,9,.11.85-.14,1.29-1,1C387.41,98.71,383.3,95.12,378.87,92.05Z" transform="translate(0 -1.31)"/><path class="cls-29" d="M293.29,72.19c-.75.8-.36,2.33-1.64,2.85-1.52-1-1-2.44-.89-3.8-.34-4.6-.52-9.17,3.14-12.65a1.27,1.27,0,0,1,1.29.24c1.45,3-.75,5.4-1,8.11C294,68.71,293.59,70.44,293.29,72.19Z" transform="translate(0 -1.31)"/><path class="cls-30" d="M45.56,43.62a4.93,4.93,0,0,0-3.23-2.87c-1.25.19-2.63.62-2.67-1.54.44-.91,1.59-1.4,1.43-2.67,3,.59,4.92,3.31,7.66,4.42.89,1,3.17,1.33,1.53,3.56C48.45,45.76,46.83,45.73,45.56,43.62Z" transform="translate(0 -1.31)"/><path class="cls-31" d="M34.55,64.32c1,1.15,2.13,2.3,0,3.46-3.71-1.6-5.62-5.52-9.89-7.92l3.11-.19C29.84,61.54,33,61.63,34.55,64.32Z" transform="translate(0 -1.31)"/><path class="cls-32" d="M178.27,127.91a4.33,4.33,0,0,1-2.64-1.86c.33-1.33.63-2.68,1.86-3.48,1.51.45,2.48-.45,3-1.68,1.79-4.17,3.59-2.57,5.46-.13C181.16,120.44,179.87,124.36,178.27,127.91Z" transform="translate(0 -1.31)"/><path class="cls-33" d="M322.08,161.27l2.76,3.49c.53,1.41-.66,1.9-1.27,2.7s-.54,1.83-1.46,2.26a1.09,1.09,0,0,1-1-.32c-3-.84-3.25-3.81-4.17-6.24C317.42,158.77,319.88,160.4,322.08,161.27Z" transform="translate(0 -1.31)"/><path class="cls-34" d="M66.51,22.08a37.23,37.23,0,0,1-7.38-6.37l3.26.22,8.53,5.15a2,2,0,0,1-.82,2.58C68.37,24.48,67.47,23.2,66.51,22.08Z" transform="translate(0 -1.31)"/><path class="cls-35" d="M296,125.27c1.19-2.23,3.63-.51,5.11-1.83l2.49,3.65C298.33,129.56,296.76,129.18,296,125.27Z" transform="translate(0 -1.31)"/><path class="cls-36" d="M39.66,39.21l2.67,1.54c-1.88,4-5.51,1.72-8,1.85-1.63.08.87-2.2,1.09-3.56Z" transform="translate(0 -1.31)"/><path class="cls-37" d="M289.15,110.12l-6.64-8.19c.05-3.39,1.53-2.46,3.07-1.1,2.05,1.81,2.78,4.77,4.93,6.52l1.28,2.49C291,110.91,290.08,110.58,289.15,110.12Z" transform="translate(0 -1.31)"/><path class="cls-38" d="M331.44,173.86c-1.82,1.25-.41,4.72-3.22,5.28a4.49,4.49,0,0,1-1.85-3.44c-1.33-1.49-2.31-3.08-1.36-5.23,1.29-1.33,2.39-.5,3.24.51a14.55,14.55,0,0,0,3.19,2.84Z" transform="translate(0 -1.31)"/><path class="cls-39" d="M314.66,161.13c-2-3,.86-4.78,1.55-7.1,0-1.51.8-1.51,1.81-1a3.44,3.44,0,0,1,1.62,3.66c-1.65,1.31-1,5.06-4.29,4.62Z" transform="translate(0 -1.31)"/><path class="cls-40" d="M290.51,107.35c-2.41-.43-2.91-2.9-4.25-4.46-1-1.2-1.88-3.4-3.75-1-1.08-.56-2.19-1.12-1-2.62a2.83,2.83,0,0,0,.87-2.81c3.14,1.46,4.17,5,6.56,7.27Z" transform="translate(0 -1.31)"/><path class="cls-41" d="M10.84,89.36c-2.17.46-4.33,1-6.5,1.35-1.78.33-2.53-.84-2.89-2.45C4.85,86,7.88,87.37,10.84,89.36Z" transform="translate(0 -1.31)"/><path class="cls-25" d="M154.79,179.29c2.81,1.19,4.55,2.83,2.36,6.18-.69,2.11-1.58,3.19-3,.54-.4-.73-.44-1.65-.9-2.38C154,182.29,153.62,180.48,154.79,179.29Z" transform="translate(0 -1.31)"/><path class="cls-42" d="M289.15,110.12l2.64-.28.9,2c-2.27,2.16-2.49,5.59-4.34,8l-1.83-3.42C287.82,114.55,290,113,289.15,110.12Z" transform="translate(0 -1.31)"/><path class="cls-43" d="M58.21,26.53l-.89,1c-3.39,2.06-5.79-.61-8.46-2L43.77,22c3-1.28,5.07,1.5,7.69,1.86,2.47,0,4.56,1.38,6.8,2.22A.66.66,0,0,1,58.21,26.53Z" transform="translate(0 -1.31)"/><path class="cls-44" d="M295.19,58.83l-1,0c-.73.28-1.21-.11-1.61-.71a2.27,2.27,0,0,1,.81-3c2.62.4,5.6-.9,7.71,1.86l-1.89,1.94Z" transform="translate(0 -1.31)"/><path class="cls-24" d="M148.66,195.24l.93,1.88c-1.23,3.22-3.91,3.57-6.65,3.81a1.85,1.85,0,0,1-.69-1.89C143.72,196.5,145.37,194.32,148.66,195.24Z" transform="translate(0 -1.31)"/><path class="cls-38" d="M153.25,183.63c1.57,0,1.55,3.75,3.9,1.84.07.93.13,1.87.19,2.81l-2,2.51c-2.38-1-3.28-2.68-2.36-5.31Z" transform="translate(0 -1.31)"/><path class="cls-42" d="M160.54,173c.66,1.68.88,3.18-1.54,2.12a11,11,0,0,0-3.52-1.27c-1-3,1.92-4.13,2.55-6.35.79-.22,1.16,0,.94.94C158.62,170.26,157.29,172.5,160.54,173Z" transform="translate(0 -1.31)"/><path class="cls-9" d="M159,168.4l-.94-.94q2.55-6.72,5.08-13.45l.9,0c0,.89,0,1.79,0,2.69C161.45,160.19,161,164.68,159,168.4Z" transform="translate(0 -1.31)"/><path class="cls-45" d="M37,78.6a9.39,9.39,0,0,1-4.18-2.72L38,73.27l1.61,2.51C40.17,78.18,39,78.77,37,78.6Z" transform="translate(0 -1.31)"/><path class="cls-46" d="M315.35,161.33c1-2,1.87-4.12,4.29-4.62a10.47,10.47,0,0,0,2.44,4.56,6.18,6.18,0,0,0-5.15,1.89Z" transform="translate(0 -1.31)"/><path class="cls-47" d="M119.14,5l.06-1.13a8.21,8.21,0,0,0,4.17-.73l2.2,1.06c1.39,1,.73,1.7-.36,2a12.45,12.45,0,0,0-2.14,1.3l-.52,1.92C118.52,10.42,119.8,6.85,119.14,5Z" transform="translate(0 -1.31)"/><path class="cls-48" d="M141.18,204.36l-.19,3.43c-5.13-2.47-5.13-2.47-2.38-6.15C140.53,201.41,141.17,202.54,141.18,204.36Z" transform="translate(0 -1.31)"/><path class="cls-49" d="M27.85,37.1a8.77,8.77,0,0,1-8.65,0C22.09,33.5,25,36.25,27.85,37.1Z" transform="translate(0 -1.31)"/><path class="cls-50" d="M91,11.3l-2-1.1c2.29-1.64,5.15-.32,7.51-1.63l2.3-.87c-.44.83-1.2,1.55-.74,2.66.25,3.17-1.68,2.66-3.51,2.34-.64-.11-1.29-.18-1.93-.33A11.84,11.84,0,0,1,91,11.3Z" transform="translate(0 -1.31)"/><path class="cls-51" d="M325.57,170.18q.39,2.76.8,5.52c-3.65-.32-4.46-3.31-5.27-6.3l1-.1c1.06.13,2.2-.59,3.18.36C325.39,169.84,325.48,170,325.57,170.18Z" transform="translate(0 -1.31)"/><path class="cls-45" d="M141.18,204.36l-2.57-2.72a8.64,8.64,0,0,1,3.15-3.78c.87-.21,1.27.1,1.1,1.08,0,.67.06,1.33.08,2Z" transform="translate(0 -1.31)"/><path class="cls-51" d="M331.44,173.82c-2.68.11-3.7-2.81-5.87-3.64h0c-.67-.5-1.48-.87-1.43-2,.33-1.16.82-2.06,2.19-1.47Z" transform="translate(0 -1.31)"/><path class="cls-28" d="M392.21,101.18l1-1,5.94,4.47,0,2A24.58,24.58,0,0,1,392.21,101.18Z" transform="translate(0 -1.31)"/><path class="cls-13" d="M142.86,198.94l-1.1-1.08c1.51-2.43,4-3.62,6.11-5.24l.79,2.62A12.41,12.41,0,0,0,142.86,198.94Z" transform="translate(0 -1.31)"/><path class="cls-52" d="M282.22,107.46c4.72,1.86,5.36,3.05,3.38,6.25Z" transform="translate(0 -1.31)"/><path class="cls-9" d="M318,153.05l-1.81,1c-2.34-2.13-1.17-4.7-.8-7.17Z" transform="translate(0 -1.31)"/><path class="cls-9" d="M165.85,145.12c1.23,2.95.89,5.39-2,7Z" transform="translate(0 -1.31)"/><path class="cls-5" d="M187,115.52a4.12,4.12,0,0,1,2.37,2.63l-3.46,2.6C186.24,119,184.86,116.84,187,115.52Z" transform="translate(0 -1.31)"/><path class="cls-20" d="M326.34,166.76l-1.67,1.81c-1.87.08-2.87-.72-2.5-2.86-.41-4.43,2.34,1.15,2.67-1Z" transform="translate(0 -1.31)"/><path class="cls-4" d="M79.23,14.87,75.85,13c2-2.63,4.08.22,6.11-.16l-.08.28c.67.35,1.33.89.76,1.66C81.61,16.22,80.38,15.34,79.23,14.87Z" transform="translate(0 -1.31)"/><path class="cls-32" d="M422.23,14.92c-8.9,1.39-17.79,2.87-26.71,4.15-10.2,1.47-20.16,4.13-30.18,6.52A2.44,2.44,0,0,1,364,22.77c2-2.11,5.17-1.06,7.18-3.11a2.49,2.49,0,0,1,1.75-.34,3.26,3.26,0,0,0,3.07.91c11.42-2.1,22.85-4.15,34.27-6.22,3.11-3.46,4.89-3.67,8.36-1l2.51.12C421.61,13.67,422.26,14.06,422.23,14.92Z" transform="translate(0 -1.31)"/><path class="cls-15" d="M260.4,26.56l6.93,1.64a5.69,5.69,0,0,0,2.73,2.42c2.82,1.67,5,3.92,5.16,7.64.07,2.13,1.2,4.54-1.44,5.93-2.69.53-3.91-3.88-6.92-2.31-1.76-.44-1.71-2.75-3.24-3.43a3.4,3.4,0,0,1-.91-.78c-1.06-.52-1.92-2.77-3.27-.33-2.4,4.32-2.41,4.31-6.74,1a8.34,8.34,0,0,1,.18-3.91C253.19,29.42,256.89,28.1,260.4,26.56Z" transform="translate(0 -1.31)"/><path class="cls-53" d="M223.13,33.55c2.36-1.74,5.06-1.58,7.73-1.57.88.68,2.1-.09,2.93.79a2.28,2.28,0,0,1,.29,1.84c0,1.75-3.83.85-2.37,3.17,1.22,1.95,2.6-.88,4-.83,2.59,1.33,5.18,2.66,8.08.89,3.13.52,3.08,2.76,2.54,5.26-.91,2.74-2.3,3.87-5.32,2.91-2.08-.66-4.58-1.07-6.73.48-2.34,1.18-4.67.42-7,0-1.16-1.42-2.82-2-4.29-2.91a4,4,0,0,1-1.89-3.08,36.67,36.67,0,0,0,.22-4.44C221.69,35,222.65,34.48,223.13,33.55Z" transform="translate(0 -1.31)"/><path class="cls-22" d="M364.53,23.05l.81,2.54c-1.69,2.6-4.76,3.23-6.77,5.36-1.06-1.18-2.23-1.05-3.43-.31-2.62,1.63-5.64,2-8.44,3.06a15.44,15.44,0,0,0-7.58,0,7.44,7.44,0,0,1-1.11-.42,2.59,2.59,0,0,1-1.64-2.48c.29-1.65,1.42-2.62,2.55-3.61,2-.45,4.1-.56,6.15-.87,5.5,1.71,13.9-.83,16.94-5.13a2.89,2.89,0,0,1,2.09.8A2.4,2.4,0,0,1,364.53,23.05Z" transform="translate(0 -1.31)"/><path class="cls-54" d="M234.21,31a74.87,74.87,0,0,1,0-25.21c1.78-.92,3.66-3.12,5,.5.35,2.55-.58,5-.37,7.59a33.57,33.57,0,0,1-.38,7,6.09,6.09,0,0,1,.58-.85.84.84,0,0,1,1.05.17c.56,3-1.41,6.67,1.86,9.09a1.43,1.43,0,0,1-.31,1.44C239.21,31.73,236.79,33.54,234.21,31Z" transform="translate(0 -1.31)"/><path class="cls-55" d="M175,26.69l1.66-.06c1.39,1,1.53,2.46,1.32,4a3.06,3.06,0,0,1-1.6,3.35,16.16,16.16,0,0,0-2.14,1.37,2.84,2.84,0,0,1-1.67.79c-2.4-.21-3.42,1.4-4.31,3.44a19.11,19.11,0,0,0-1.47,9.85,22.17,22.17,0,0,1-1.53,4A5.39,5.39,0,0,1,162.06,55c-3.52-2.32-2-5.92-1.3-8.66a26.31,26.31,0,0,0,1-7.12,4,4,0,0,1,1.85-3.59c2.6-1.93,3.46-5.63,6.45-7.17A19.58,19.58,0,0,1,175,26.69Z" transform="translate(0 -1.31)"/><path class="cls-39" d="M223.13,33.55c1.34,1.43.17,2.08-.77,2.8a2.13,2.13,0,0,1-2.07,2.14c-3.45,1.14-7.16,1.67-9.73,4.8-.22.83-.07,1.77-.63,2.51-1.36,1-2.54,3-4.49,1-.57-2-1.34-4-1.23-6.25a6.48,6.48,0,0,1,.27-1.38c.77-1.4,1.07-3,1.79-4.45a12.24,12.24,0,0,1,.85-1c4.24-1.75,8.56-.67,12.8-.18A24.6,24.6,0,0,0,223.13,33.55Z" transform="translate(0 -1.31)"/><path class="cls-56" d="M284.93,24.64c5.9-4.25,12.79-5,19.55-6.16a7,7,0,0,1,.06,6.59A10.87,10.87,0,0,1,297.17,27c-2.55-.83-4.91.5-7.35.79-1.65-1.14-4.54,1.39-5.41-2.06A2.15,2.15,0,0,1,284.93,24.64Z" transform="translate(0 -1.31)"/><path class="cls-57" d="M303.57,24.66c.05-2.1-.23-4.26.91-6.18,3.56-.24,6.83-2.2,10.49-1.92,1.54.13,3.11,0,3.95,1.78-.86,2.39-2.66,4.63-4.78,4.33-4.22-.6-4.47,2.2-5.05,5.1-1.82,1.74-3.66,3.45-6.42,2.62C299.69,27.9,302.08,26.36,303.57,24.66Z" transform="translate(0 -1.31)"/><path class="cls-58" d="M195.43,30.84c1.93-1,3.79-.54,5.64.29-.53,4-4.16,5.91-5.81,9.26a62.2,62.2,0,0,1-3.38,5.46,3.1,3.1,0,0,1-1.87.69,2.63,2.63,0,0,1-2.67-1.79c-2-2.89.93-6.28-.81-9.2.22-3,1.8-4.54,4.56-4.29C192.61,31.4,194,30.56,195.43,30.84Z" transform="translate(0 -1.31)"/><path class="cls-59" d="M195.43,30.84c-2.06.58-2.38,5.78-6,2.5-.44-.4-1.25,1.33-1.77,2.18-.36.91-.94,1.4-1.92,1.13a2.82,2.82,0,0,1-1.14-1.42,1.82,1.82,0,0,0-1.92-1.33c-2.91.35-4.55-1.51-6-3.8-1.76-1.13.06-2.31,0-3.47C182.77,28.69,189.6,27.27,195.43,30.84Z" transform="translate(0 -1.31)"/><path class="cls-29" d="M191,44.35c3-4.68,4.37-10.84,10.08-13.22,2.33,0,4,1.71,6.05,2.58,0,.26,0,.52,0,.78-.34,2.24-3.19.79-3.64,2.83a6.4,6.4,0,0,1-.21,2.31,3.85,3.85,0,0,1-.51,1.13,10.5,10.5,0,0,1-2.4,1.92c-1.61.42-2.7,1.68-3.94,2.71C194.61,45.16,192.36,47.38,191,44.35Z" transform="translate(0 -1.31)"/><path class="cls-41" d="M234.21,31c2.57.52,4.87-1,7.36-1.07,2.8-1.1,5.87-.57,8.69-1.58l2.56-.13c2,1.94,0,3.32-.61,4.88-.93,2.36-4.87.1-5,3.68a2.26,2.26,0,0,1-2.61,1.8c-1.16-.27-1.93,1-3.06.87-1.92-.65-2.43-2.61-3.43-4.11-1.27-1.56-3.66-.75-4.79-2.57l-2.46-.8Z" transform="translate(0 -1.31)"/><path class="cls-60" d="M123.07,7.48c.06-1.77,2.43-1.58,2.5-3.33a92.7,92.7,0,0,1,28.58,17.34q-8-4.56-16.08-9.12C133.37,9.71,128.66,7.08,123.07,7.48Z" transform="translate(0 -1.31)"/><path class="cls-61" d="M131,12.05c9.4,3.95,18.77,8,27.09,14.28-1.73,2.37-4.06,1.88-6.35,1.54-3.84.11-7-1.05-8.47-5.25-1.82-3.36-5-4.61-8.12-6-1.75-.81-3.92-1-4.64-3.43A1.65,1.65,0,0,1,131,12.05Z" transform="translate(0 -1.31)"/><path class="cls-62" d="M242.6,13,241,13.9c-3.53-.74-2-3.14-1.34-5.05.32-.92,1.5-1.31,2.15-2.1.82-1.76.75-4.25,3.33-4.57,3.7,1.48,3.24,5.32,4.21,8.35a7.31,7.31,0,0,1,.44,2.09c-.08,1.47.59,3.39-1.25,4.13s-3.23-.1-4.16-1.87A5.24,5.24,0,0,0,242.6,13Z" transform="translate(0 -1.31)"/><path class="cls-2" d="M422.23,14.92a1.39,1.39,0,0,1-1.09-1.77c7.85-.66,15.69-1.35,23.54-2a8.71,8.71,0,0,1,5.34.9C440.86,14.13,431.51,14.17,422.23,14.92Z" transform="translate(0 -1.31)"/><path class="cls-63" d="M307.88,26.57c-1.24-3.93-.46-6.05,4-5.54,2.63.31,4.53-2.23,7-2.69a2.73,2.73,0,0,1,.65-.3c2,.64,4.82,1,1.29,3.75-1.12.89-.55,2.51-1.35,3.54a18.82,18.82,0,0,1-3.4,1.88A23.07,23.07,0,0,1,307.88,26.57Z" transform="translate(0 -1.31)"/><path class="cls-14" d="M345.07,26.28c-1.35,2.78-3.85,1.73-5.95,2l-.49-.35c-.68-2.1-2.38-1.7-3.92-1.95-3.2-.52-6.43-1.14-8.72-4a3.8,3.8,0,0,1,.43-2.68C332.72,21.37,339.75,21.26,345.07,26.28Z" transform="translate(0 -1.31)"/><path class="cls-3" d="M242.6,13c2.27-.75,3.35,2.63,5.68,1.83.62-1.36-.54-2.48-.5-3.76,1.2-.81.31-2.74,1.63-3.49,3,3.2,1.65,6.53.14,9.76a3.13,3.13,0,0,1-3.56,1.7,3.07,3.07,0,0,1-2.49-2.63C243.21,15.3,242.9,14.16,242.6,13Z" transform="translate(0 -1.31)"/><path class="cls-64" d="M150.42,26.33h7.67l3.32.26a1.71,1.71,0,0,1-.41,1.87,20.63,20.63,0,0,1-5.36,3.5c-1.95-.19-3.86-.65-5.82-.69-1.78-.73-4.3.14-5.1-2.69a2.51,2.51,0,0,1,.4-1.41A6.28,6.28,0,0,1,150.42,26.33Z" transform="translate(0 -1.31)"/><path class="cls-9" d="M326.42,19.31c.39.59,1.13,1.19,0,1.78-.86,1.16.1,2.7-.74,3.86a2.4,2.4,0,0,1-1,.85c-1.24.23-2.36,1-3.67,1a2.36,2.36,0,0,1-2.25-2.12c.12-1.44,0-3,1.28-3.95,1.64-1.31-.07-1.84-.5-2.67C322.17,16.54,324,19.79,326.42,19.31Z" transform="translate(0 -1.31)"/><path class="cls-65" d="M119.14,5q1.71,2.22,3.41,4.45l.82.9a2.81,2.81,0,0,1-.11,4.17c-3.57,2.26-4.67-2.53-7.33-2.88a2.8,2.8,0,0,1-.47-1.29c-.1-1.41.64-2.55,1.15-3.77C117.46,6,118.3,5.48,119.14,5Z" transform="translate(0 -1.31)"/><path class="cls-66" d="M251.13,32.74l1.69-4.51,7.58-1.67c-2.51,2.25-5,4.51-5.95,8.05C252.64,35.4,251.52,34.81,251.13,32.74Z" transform="translate(0 -1.31)"/><path class="cls-67" d="M273.93,38.3c-.39-3.47-2.37-5.56-5.13-7.2-.77-.45-3.17-.74-1.47-2.9,3.75.16,5.16,4.29,8.29,5.51l.59.36a2.79,2.79,0,0,1,.59,1.28c.07,1.43.46,2.95-.88,4C274.94,39.67,274.05,39.79,273.93,38.3Z" transform="translate(0 -1.31)"/><path class="cls-60" d="M284.93,24.64l.07,1c-.43.78.15,1.66-.22,2.44-2.44,3.07-5.35,5.3-9.23,5.76l.07-.11a4,4,0,0,1,2.19-5.42Q281.38,26.48,284.93,24.64Z" transform="translate(0 -1.31)"/><path class="cls-68" d="M160.68,27.36l.73-.77c2.83-2.12,5.68.22,8.53-.05a37,37,0,0,1,5,.15,10.76,10.76,0,0,1-4.25,2.53c-2.91.3-5.9,0-8.65,1.44C160.64,30,159.47,29.26,160.68,27.36Z" transform="translate(0 -1.31)"/><path class="cls-69" d="M241.77,6.75c.65,2.5-3.05,4.45-.81,7.15a16.83,16.83,0,0,0-.85,6.27l-.79,0c-2.08-1.64.26-4.65-1.74-6.32-.89-2.52.06-4.8.82-7.11.82-1.07,1.6.46,2.4,0Z" transform="translate(0 -1.31)"/><path class="cls-70" d="M363.38,22.86A2.17,2.17,0,0,1,362,21.15a9,9,0,0,1,3.18-2.93c1.83-.25,3.35-1.61,5.24-1.65l2.5,2.75-.55.78C369.25,20.54,366.38,22,363.38,22.86Z" transform="translate(0 -1.31)"/><path class="cls-71" d="M249.41,7.61c0,1.43.15,3-1.63,3.49.92-3.59-1.38-6.08-2.68-8.92C250.78.2,248.22,5.59,249.41,7.61Z" transform="translate(0 -1.31)"/><path class="cls-72" d="M131,12.05c0,.28,0,.57,0,.86-.23,1.26-1.22,1.84-2.05,2.58a3.43,3.43,0,0,1-2.63.45c-2.3-1.17-3-3-2.17-5.58C126.83,9.07,128.82,11,131,12.05Z" transform="translate(0 -1.31)"/><path class="cls-73" d="M124.14,10.36c.21,1.89.81,3.55,2.5,4.51.77.8,2.24.81,2.32,2.36-.12,1.44-1.13,2.14-2.12,2.85-1.75.42-3.42.45-4.7-1.19-1-1.81.49-3.32.54-5l.69-3.58A6.83,6.83,0,0,1,124.14,10.36Z" transform="translate(0 -1.31)"/><path class="cls-74" d="M240.8,6.82c-.81.9-1.6.44-2.4,0-1-2.17-2.91-.13-4.21-1,1.14-1.4,1.74-3.68,4-3.48C240.72,2.55,239.75,5.42,240.8,6.82Z" transform="translate(0 -1.31)"/><path class="cls-12" d="M370.43,16.57c-1.42,1.72-3,2.76-5.24,1.65C366.64,16.64,368,14.83,370.43,16.57Z" transform="translate(0 -1.31)"/><path class="cls-66" d="M250.26,28.36c-2.68,1.86-5.67,1.82-8.69,1.58.14-.22.27-.45.4-.68A17,17,0,0,1,250.26,28.36Z" transform="translate(0 -1.31)"/><path class="cls-75" d="M298.56,47.18c-1.43,2.39-3.88,2-6,2.41-.91.18-2-.36-2.4,1.08-3.51,1.3-2.7-3.16-4.66-3.94-1.27-1.34-1.18-2.55.33-3.59a49.39,49.39,0,0,1,14.8-1.64A3.66,3.66,0,0,1,304,43c.81,2.09.06,3.07-2,3.25C300.79,46.33,299.38,45.62,298.56,47.18Z" transform="translate(0 -1.31)"/><path class="cls-33" d="M298.56,47.18c-.65-1.47.2-1.92,1.32-2s2.52.23,3.7-.46c4.48-5.06,9.85-8.07,16.52-8.15,1,1,3.21.86,2.81,3.24C314.87,42.54,307.35,47.22,298.56,47.18Z" transform="translate(0 -1.31)"/><path class="cls-57" d="M286.73,46.26c1.24-.44,2.21-.33,2.25,1.38,0,1.19,0,2.35,1.18,3,1.67,1,2.44,2.74,3.27,4.44a4.63,4.63,0,0,1-.09,3c-1.1,1.3-2.27,1.26-3.49.22-1-.77-1.38-2.08-2.28-2.94-.9-1.06-1.23-2.47-2-3.61-.07-1.81-.68-3.69.62-5.31Z" transform="translate(0 -1.31)"/><path class="cls-63" d="M322.91,39.8l-3.06-1.59c-1.14-3,1.25-3.25,2.78-3.63,2-.5,4-1.19,6-1.77,3.48,1.42,7-1.71,10.46,0q0,.42,0,.84C333.92,36.33,328.31,37.74,322.91,39.8Z" transform="translate(0 -1.31)"/><path class="cls-76" d="M346.7,33.7c2.43-3.28,6.16-3.6,9.55-4.63,1.33-.4,2,.56,2.32,1.88C354.7,32.29,351.2,35.45,346.7,33.7Z" transform="translate(0 -1.31)"/><path class="cls-77" d="M37,78.6l2.56-2.82c4.22-1.35,3.85-7.12,7.62-8.9,2.68,2.59,4.46,1.18,5.93-1.53,1.3-1.63,3.16-1.8,4.94-2.13,2.15-.39,3.24.52,2.84,3C60.39,68,59.79,69.42,57.56,70a9.76,9.76,0,0,0-5.05,3.83c-2.73,4.1-6.77,6.38-10.28,9.39-1.83-1.14-5.13,0-5.21-3.8C37,79.16,37,78.88,37,78.6Z" transform="translate(0 -1.31)"/><path class="cls-50" d="M102.21,75.88c-1.61-1.63-2.65-3.95-5-4.71L91.94,67a9.31,9.31,0,0,1-.37-2.52c.9-2.87-2.88-4.24-2-7.11a4.85,4.85,0,0,1,1.84-2c1.6-.5,2.88-2.44,4.88-1.29,1,.91,2.46,1.24,2.84,2.82-.08,1.77,1.8,3.29.61,5.21-.17.31-.75.64-.69.69.42.39-.25,0,.32-.15,1.37-.5,2.06.47,2.81,1.34a8.54,8.54,0,0,1,1,1.52,4.56,4.56,0,0,1,.18,2c0,.35,0,.48,0,.4-.22-.56.6,0,.09-.28s.46-.86.14-.41c.62-1,1.67-1.33,2.43-2.07,1.76-1.43,1.71-4.85,4.72-4.89a44.06,44.06,0,0,1,2.63,15.66A13.17,13.17,0,0,1,102.21,75.88Z" transform="translate(0 -1.31)"/><path class="cls-78" d="M92.85,65.07c.32,1-.27,1.45-.91,1.91-6.53-3.15-12.44-7.6-19.21-10.23-1.42-1.32-1.11-2.65,0-4,3.55-2.85,6.9-1.4,10.23.53a20,20,0,0,0,2.36,1.19c1.28.7,3,.59,3.67,2.39C89.09,60.23,92,62.08,92.85,65.07Z" transform="translate(0 -1.31)"/><path class="cls-79" d="M73.51,53.47l-.78,3.28c-2.18.18-3.4,2.15-5.17,3.1-2.08-.4-3.12,1.29-4.4,2.49A4.26,4.26,0,0,1,56,60.75c.4-3.88,4.26-5.23,5.52-8.49a9.13,9.13,0,0,1,4.27-2.75,8.39,8.39,0,0,1,2.55,0c1.25,1,2.85,1,4.18,1.71C73.32,51.73,74,52.33,73.51,53.47Z" transform="translate(0 -1.31)"/><path class="cls-80" d="M56.5,60.49c2,2.35,3.73,2.43,5.94-.13,1.63-1.88,4-3,6.8-4.94-.73,1.93-1.2,3.18-1.68,4.43a39.72,39.72,0,0,1-6.64,6.33c-2.62-3.42-4.61.38-6.9.68-1.29.49-1.9-.16-2.15-1.43.79-2,1.14-4.46,3.74-5A.55.55,0,0,1,56.5,60.49Z" transform="translate(0 -1.31)"/><path class="cls-81" d="M182.58,109.06c2,1,1.9-.32,1.7-1.75.27-.11.69-.26.69-.44-.07-6.33,5.41-7.32,8.79-10.34a2.46,2.46,0,0,1,1.32.29,3.52,3.52,0,0,1,1.37,3.79c-.21,2.13-2.54,2.21-3.28,3.82-1.73,1.33-1,3.54-1.65,5.26L191,110c-1.62,5.79-4.53,1.3-6.92,1l-2.38-.9Z" transform="translate(0 -1.31)"/><path class="cls-45" d="M37,79.45c2.25.47,4.61.78,5.21,3.8-1.42,1.44-1.79,4-4.26,4.32l-6-.92c0-.3,0-.6,0-.9,1.59-.1,1.87-1,1.88-2.59C33.86,81.22,35.86,80.6,37,79.45Z" transform="translate(0 -1.31)"/><path class="cls-22" d="M270.59,104.45a11.59,11.59,0,0,0-8.43-2.55c-2-1.19-4.33.53-6.34-.75a8.18,8.18,0,0,1-4.7-6.42c2.16-3.6,4.06-.69,6,.27,3.89,2.65,7.68,1.78,11.43-.37,2.6-.43,4,1.93,6,3,1,2.51.87,5.2,1.12,7.84Z" transform="translate(0 -1.31)"/><path class="cls-28" d="M205.48,106.46c-1.09.94-2.63,1.23-3.37,2.67l-.75.09c-3.34-2.16-6.4-2.45-9,1.32-.37.54-1,0-1.3-.54h0c-.07-3.82,2.8-5.41,5-7.5a10.56,10.56,0,0,1,1.26-.32,32.46,32.46,0,0,0,7.14-2c1.17-.49,2.3-1,3.47,0C209.81,103.47,206.11,104.28,205.48,106.46Z" transform="translate(0 -1.31)"/><path class="cls-43" d="M275.67,105.42c-1.84-2-2.87-4.26-1.74-7.1-.18-.85.26-1.14,1-1.17,2.71,1.21.23,4,1.57,5.69,2.21-.61,3.66.22,4.33,2.55C279.09,105.49,277.39,106.5,275.67,105.42Z" transform="translate(0 -1.31)"/><path class="cls-82" d="M43.7,46.41l.95-1.06c4.33.27,5.66,1.46,6.47,5.74-.36,1.61.72,4.08-2.22,4.13A43,43,0,0,1,43.7,46.41Z" transform="translate(0 -1.31)"/><path class="cls-49" d="M48.9,55.22l.87-3.6c3.6-1.85,4.27-1.53,5.27,2.51-2.66,1.34-4.22,3.72-5.45,6.42C50.23,58.65,49.47,57,48.9,55.22Z" transform="translate(0 -1.31)"/><path class="cls-83" d="M274.73,97.34c-.26.33-.53.66-.8,1-4.4,5-3.38-1.79-5.08-2.66a2.2,2.2,0,0,1-3.62-.33c-1.25-2-2.88-2-4.69-2a6.45,6.45,0,0,1-2.58-1c-3.21-1.25-5.51.39-7.6,2.69a1.36,1.36,0,0,1-.77.3c-3.64-.45-10.45-8.85-10.51-12.95.82-2.82,1.06-6.36,5.35-4.78,1.47,2.71,3.23,4.62,6.53,3,.58-.3,1.29.31,1.85.74a35.41,35.41,0,0,0,14.28,3.22c2.37-.07,4.14,1.4,6,2.63,2.12,1.09,4.37,1.85,6.53,2.85l.33.37-1,1.84C278.38,94.68,277.79,97.15,274.73,97.34Z" transform="translate(0 -1.31)"/><path class="cls-80" d="M274.73,97.34A7.67,7.67,0,0,1,279,92.19l1.8,3.23c.35,3.63-3.58,4.47-4.28,7.42C274.42,101.53,275.07,99.26,274.73,97.34Z" transform="translate(0 -1.31)"/><path class="cls-84" d="M56.5,60.49h-.89c-1.13-2.85,1.92-4.51,1.77-7.08-1.9-2.34-3.44-5-6-6.68a2.19,2.19,0,0,1-.8-3.08L48.75,41c3.5.78,6,3.61,9,5.25,1.56.83,3,1.51,4.68,1C63.72,45.06,65,43,67.51,45.76c.79,1.87-.16,2.89-1.45,4.05s-3.36,1.3-3.54,3.58C62.14,57.32,58.06,57.7,56.5,60.49Z" transform="translate(0 -1.31)"/><path class="cls-85" d="M51.87,65.43,54,66.86c-1,1.61-1.8,3.47-4,3.29-1.85-.15-2.61-1.46-2.79-3.27C48.62,65.85,50.79,67.63,51.87,65.43Z" transform="translate(0 -1.31)"/><path class="cls-86" d="M55,39c.34-1.7-1.44-1.43-1.94-2.36-1.11-2,.25-3.41.92-5l-.84-2.49a1.69,1.69,0,0,1,2.6-.05c4.41,1.5,8.43,1,11.8-2.67,4.76-.29,3.33,3.93,4.19,6.48A14.78,14.78,0,0,1,66,37.71c-1.36.67-2.75,1.37-3.1,3.18-.37,1.25-.53,2.62-1.81,3.3L60,43.57C59.22,40.9,56.12,41.18,55,39Z" transform="translate(0 -1.31)"/><path class="cls-64" d="M61.08,44.19a8.7,8.7,0,0,1,.51-4.32c2.22-2.27,4.2.55,6.33.31,2.63,1.14,3.76-1.1,5.16-2.64a23,23,0,0,0,2.8-4.4,3.34,3.34,0,0,1,3.58-.91,2.37,2.37,0,0,1,.82,1.1c.34,2-1.21,3.43-1.61,5.21Q74.43,43,70.07,47.3c-1.33.37-2.34-.43-3.39-1.07-1.74-1.3-2.59,1.83-4.24,1Z" transform="translate(0 -1.31)"/><path class="cls-87" d="M55.71,29.13l-2.6.05c-1.55-1.05-3.35-1.78-4.25-3.68,3-.11,5.34,2.75,8.46,2Z" transform="translate(0 -1.31)"/><path class="cls-88" d="M54,31.67a11.57,11.57,0,0,1-.92,5c-1.3-.57-2.88-1-3.35-2.47-.29-.91,1.29-.79,1.86-1.39Z" transform="translate(0 -1.31)"/><path class="cls-25" d="M279.62,90q-4.23,2.26-7.35-1.53c-.77-2.17-2.59-3.76-3.06-6.11-.52-3-3.95-4.53-3.31-8-.82-4,2.76-4.64,4.45-6.74,1-.31,1.92-1,3-1a50.67,50.67,0,0,0,7.77.8c1.5,0,3.11-.12,3.71,1.91a2.81,2.81,0,0,1-.16,1.44c-.43.91-1.38,1.11-2,1.69-1.45.47-2.79.71-2.48,3.13a23.55,23.55,0,0,1-.15,7.58c-.4,1.1-2.34.89-2,2.63Z" transform="translate(0 -1.31)"/><path class="cls-89" d="M284.36,69.66c-3.67-1.15-7.85.86-11.24-2a1.71,1.71,0,0,1-.22-1.46c1.13-4.31,4.43-2.31,6.91-2.68,2.23-.22,3.12-3.52,5.76-2.85,1.76,1.76,3.84,3.3,4,6.22a4.18,4.18,0,0,1-.95,1.93l-1.19,1.62C286.12,71.46,285.19,70.8,284.36,69.66Z" transform="translate(0 -1.31)"/><path class="cls-21" d="M278,85.74c-.51-1.29.16-2.06,1.05-2.74,1.91-2.14,1.25-4.75.89-7.13s-.13-4,1.68-5.39l2.53.09c2.1.91,1.77,2.67,1.33,4.42s-1.2,3.65.33,5.33c1.33,2.33.06,4-1.47,5.28s-3.31,2.42-4.84-.23C279.45,85.22,278.55,85.61,278,85.74Z" transform="translate(0 -1.31)"/><path class="cls-90" d="M285.84,80.32c-4-2.59-1.89-6.35-1.66-9.75l.18-.91,3.07.76C289.55,74.2,285.47,76.86,285.84,80.32Z" transform="translate(0 -1.31)"/><path class="cls-91" d="M94.59,11.35c1.28.11,2.57.31,3.49-1,4-1.06,7.34-4.43,12-3.83,1.94.25,3.91.12,5.78.92a1.68,1.68,0,0,1,.26,1.2,4.7,4.7,0,0,1-.88,1.65c-4.55,1.74-9.37,2.09-14.08,3a10.61,10.61,0,0,0-2.31,1.81c-1.28,1.22-2.54.65-3.77-.11C93.38,14,93.73,12.72,94.59,11.35Z" transform="translate(0 -1.31)"/><path class="cls-92" d="M115.68,8.67c0-.41.09-.82.14-1.23.26-.3.53-.6.79-.91a3.78,3.78,0,0,1-.14,2.88C115.85,9.6,115.53,9.41,115.68,8.67Z" transform="translate(0 -1.31)"/><path class="cls-93" d="M70.91,32.7c-2.46-1.26-2-4.31-3.4-6.24-.3-.69-.6-1.37-.91-2.06l-.09-2.32,3.62.66a2.82,2.82,0,0,1,1.13-.32,10.86,10.86,0,0,1,4,.75c3.62,1.48,5.21,0,4.83-4.06a9.37,9.37,0,0,0,.28-2.42l-.18-1a18.08,18.08,0,0,1,5.62-.82c2-.1,4.29-.42,5.15-3.05a1.07,1.07,0,0,1,0-.53l2.07.09c1.18,1.21,1.58,2.87,2.22,4.39-1.55,2.47-1.55,2.47-6.86,5.09,2.15-1.12,4.54-1.62,6.63-2.9a2.3,2.3,0,0,1,2.39.85c1.27,4.82-2.79,5.18-5.19,6.42-4.49,2.34-9.28,4-13.75,6.45-2,1.06-4.32.54-6.35,1.48A1.64,1.64,0,0,1,70.91,32.7Z" transform="translate(0 -1.31)"/><path class="cls-94" d="M70.91,22.88a7.09,7.09,0,0,1-.78-.14c.26-.56.53-1.11.79-1.66,3-1.76,7-1.27,9.45-4.39l.74,1.69c1.41,3.54-.32,4.88-3.31,5.24A16.65,16.65,0,0,1,70.91,22.88Z" transform="translate(0 -1.31)"/><path class="cls-95" d="M91,11.83c1.05,4.39-2.35,4-4.5,4.29s-4.18-.24-6.27-.42l-1-.83c1-.32,2.72.49,2.65-1.73C85.11,14.31,88,13,91,11.83Z" transform="translate(0 -1.31)"/><path class="cls-96" d="M322.17,165.71c.84.95,1.67,1.9,2.5,2.86.31.54.61,1.08.91,1.62-1.29.33-2.86,1.86-3.44-.89C321.73,168.1,318.64,166.87,322.17,165.71Z" transform="translate(0 -1.31)"/><path class="cls-97" d="M94.6,15.68c-.51-1.43-1-2.86-1.53-4.3l1.52,0c2.11,6.25,4-.54,6-.12,1.53,1.89,5.25,1.45,5,5.28-2.81,3.91-4.25,4.38-8.37,2.76l-2.57,0C93.45,18.07,93.92,16.88,94.6,15.68Z" transform="translate(0 -1.31)"/><path class="cls-98" d="M363.38,22.86c2.7-2,5.16-4.95,9-2.76-2.11,2.5-5,2.62-7.85,2.95Z" transform="translate(0 -1.31)"/><path class="cls-99" d="M265.38,36.44q.87,2.2,1.76,4.41a4.27,4.27,0,0,1,1,5.69c-5.53,2.5-5.51,2.5-3.21,9.05a10.14,10.14,0,0,0,2.44,4.06c2,2,2.1,4-.06,6a2,2,0,0,1-1.28,0c-2.17-1.74-5.76-1.79-6-5.76.38-4.35-3.4-3.75-5.48-5.19-2.55-4.24-2-8.94-1.79-13.59a4,4,0,0,1-.35-2.58,1.13,1.13,0,0,1,1-.62c1.45-.36,2.57.82,4.23,1.11-.29-3.63.73-6,4.62-5.09,1.45.33,4.19-1.15,3.21,2.58a4.6,4.6,0,0,1-1.77,1.12A4.38,4.38,0,0,0,265.38,36.44Z" transform="translate(0 -1.31)"/><path class="cls-10" d="M267.18,46.22c-.36-1.79-.83-3.57,0-5.37,1.54-.94,1.12-4.36,3.3-3.87,1.89.43,1.62,3.14,2.13,4.93.16.56.39,1.1.59,1.65A2.5,2.5,0,0,1,275,45.73a4.33,4.33,0,0,1-.31,1.55c-2.56,3.52-3.57,3.58-7.5.46A1.44,1.44,0,0,1,267.18,46.22Z" transform="translate(0 -1.31)"/><path class="cls-100" d="M253.35,37.87h-.46c-1.72.23-3.34,1.53-5.18.59a3,3,0,0,1-1.62-2.24L245,33c2.12-.39,4.07-1.11,6.1-.27l3.32,1.87Z" transform="translate(0 -1.31)"/><path class="cls-101" d="M274,45.31c-.26-.58-.53-1.16-.79-1.75,1.25-1.59,0-3.6.77-5.26l1.69.71c3.89-.7,4.58,1.78,4.48,5.06C278.32,45.93,276.78,49.22,274,45.31Z" transform="translate(0 -1.31)"/><path class="cls-102" d="M227.42,45.26l5.91.05c3.66-2.16,8.26-1.6,10.58,1.48,1,1.36,2,3,1.35,4.92-.8,2.56-3,2.25-4.88,2.65-2.07.87-4.06,1.37-5.32-1.35-.72-1.95-1.64-3.54-4-2.44-1.47.66-2.93,1.07-4.36-.1a4,4,0,0,1-.92-4.06A2,2,0,0,1,227.42,45.26Z" transform="translate(0 -1.31)"/><path class="cls-103" d="M240.21,52.6c1.34-.34,3.52.32,3.08-2.36-.48-3-1.75-5.4-5-5.43a43.16,43.16,0,0,0-4.92.5c2-3.92,5.08-1.61,7.7-1.33,1.47.15,3,1.43,3.29-1.35,3.3.19,5.42,3.73,4.47,7.95-.5,2.16-1.07,4.32-1.69,6.46a2.59,2.59,0,0,1-1.77,1.21c-2.74.49-4.68-.44-5.39-3.49A3.42,3.42,0,0,1,240.21,52.6Z" transform="translate(0 -1.31)"/><path class="cls-103" d="M246,56.11c-.39-1.54.23-2.88.75-4.23,1.46-3.77.6-6.84-2.46-9.25-.75-1.08,1.22-2.82-.78-3.61-.23-.18-.3-.37-.23-.56s.15-.29.22-.29l2.56-1.94,2.68.3c1.4.65,3.42.38,3.62,2.79-2,5.32-.35,11.61-3.92,16.51A1.81,1.81,0,0,1,246,56.11Z" transform="translate(0 -1.31)"/><path class="cls-104" d="M240.12,34.56c.56,1.5,1.13,3,1.69,4.48-.95,1.22-1.95,1.19-3.14.31-.82-.6-1.5-1.71-2.77-1.25a6.76,6.76,0,0,0-.7.49c-2.57,2.28-5.26.83-7.89.21-.6-.15-.56-1-.23-1.5,1.55-2.23,3.88-2.6,6.26-2.8C235.6,34.87,237.88,31.69,240.12,34.56Z" transform="translate(0 -1.31)"/><path class="cls-41" d="M227.42,45.26l-.8,1A10.29,10.29,0,0,0,225,49.79c-.72,4-2.8,4.63-5.92,2.67-1.11-1.08-2.6-1.79-3.07-3.5a6,6,0,0,1-.62-2.76c.52-1.23.44-2.75,1.52-3.72,1-.81,2.12,0,3.19-.18a4,4,0,0,1,1,0,3,3,0,0,0,3,.28C224.87,44,228.41,41.42,227.42,45.26Z" transform="translate(0 -1.31)"/><path class="cls-105" d="M240.12,34.56c-2.28-.86-3.4,1.74-5.41,2-2.31.3-1.2-1.2-1.37-2.07,0-.58,0-1.15,0-1.73,2-.15,3.91-.24,5.86-.46C241.75,32,240.09,33.68,240.12,34.56Z" transform="translate(0 -1.31)"/><path class="cls-105" d="M235.9,38.1c2.2-1.36,3.87,1.16,5.91.94l1.72-.87c0,.29,0,.57,0,.85C240.58,42.58,238.15,41.22,235.9,38.1Z" transform="translate(0 -1.31)"/><path class="cls-94" d="M219.74,37.16l2.62-.81c1.83,1.25.22,2.45,0,3.68-.68,1.1-.13,2.86-1.66,3.51h0c-3-.6-1.76-3.34-2.34-5.16C218.53,37.61,218.9,37.08,219.74,37.16Z" transform="translate(0 -1.31)"/><path class="cls-106" d="M220.66,43.54A6.6,6.6,0,0,1,222.32,40l1.77,2.58C223.41,44.8,222.59,46.49,220.66,43.54Z" transform="translate(0 -1.31)"/><path class="cls-14" d="M318.79,24.66l2.57.92c1.39.75,2.38-.08,3.37-.94h0c5.21-.63,10.12.08,14.41,3.62v0A2.82,2.82,0,0,1,337.38,31c-.95,2.31-2.67,1.21-4.18,1.07-4.79-.52-9.7-.22-14.33-2-1.91-.72-4.36-1.16-3.51-4.43Z" transform="translate(0 -1.31)"/><path class="cls-107" d="M334,31l3.43,0,1.74,1.82c-3.45.26-6.45,3.39-10.2,1.84C328.57,30.29,332.35,32.36,334,31Z" transform="translate(0 -1.31)"/><path class="cls-108" d="M237.58,13.89l1.74-3.64v16.8h-1.07C237.25,22.73,237.75,18.28,237.58,13.89Z" transform="translate(0 -1.31)"/><path class="cls-20" d="M164.08,52.55c0-1.26-.19-2.56.76-3.59,1.46-3.19,1.18-7.05,3.57-9.94.93-1.11,1.42-2.6,3.06-2.77,3.45,1.18,1.8,4.75,2.93,7-.12,2-2.53,2.67-2.42,4.8-.39,1.23-.33,2.63-1.13,3.71-2.91,3.89-1.4,8-.58,12.08,0,6-1.41,7.62-6.75,7.43a4,4,0,0,1-1.62-3.38,47.45,47.45,0,0,1-.07-4.77C162.2,59.52,162.27,55.83,164.08,52.55Z" transform="translate(0 -1.31)"/><path class="cls-58" d="M176.67,30.1c2.83,1,5.65,2.79,8.46-.14a1.5,1.5,0,0,1,1.49-.15c.77.54.33,1.3-.09,1.88a3.17,3.17,0,0,0-.53,2.88c-2,3.6-3.66,7.45-7.63,9.18a2.66,2.66,0,0,1-1.21-.19,3.54,3.54,0,0,1-.9-.87l-1.35-9.89A3,3,0,0,0,176.67,30.1Z" transform="translate(0 -1.31)"/><path class="cls-105" d="M163.17,39.12c.94,2.6-.34,4.94-.78,7.38s-1.6,5.15-.14,7.77c1,2.56,1,4.89-1.37,6.65-2.34-.54-2.89-2.33-2.81-4.54.73-2.1-1.39-2.74-1.93-4.19a9.92,9.92,0,0,1,1.36-7.39c.89-1.58,2.57-2.46,3.17-4.37C161,39.41,161.79,38.37,163.17,39.12Z" transform="translate(0 -1.31)"/><path class="cls-109" d="M163.17,39.12c-2,1.64-1.81,4.94-4.23,6.25-.73-.25-1.37-.86-1.21-1.59.9-3.9-.19-7.52-1.22-11.18,2.62-3,3.78-3.05,8.09-.06a4.23,4.23,0,0,1,.11,3.84Z" transform="translate(0 -1.31)"/><path class="cls-110" d="M164.71,36.38l-.91-2.62c.3-1.64-.93-3-.71-4.63,3.11-2.11,5.46-2.08,7.64.09C169,31.84,167.21,34.46,164.71,36.38Z" transform="translate(0 -1.31)"/><path class="cls-111" d="M171.43,37c-3.57,3.12-4.09,8.14-6.59,11.93A22,22,0,0,1,168,37.13c1-1.64,2.06-3.31,4.34-2.6C173.11,35.8,172.39,36.47,171.43,37Z" transform="translate(0 -1.31)"/><path class="cls-89" d="M171.43,37l.94-2.5.88-.59c2.95.8,4.29,2.66,3.05,5.82-.51,1.3.4,2.31.13,3.48a1.87,1.87,0,0,1-.83,1,1.81,1.81,0,0,1-2.32-.7Q172.36,40.28,171.43,37Z" transform="translate(0 -1.31)"/><path class="cls-112" d="M160.62,60.58c.54-2.1,1.09-4.2,1.63-6.31l1.83-1.72c-.32,3.58-.63,7.16-1,10.75-.63,1.09-1.54,1.89-2.61.94C159.3,63.16,159.39,61.77,160.62,60.58Z" transform="translate(0 -1.31)"/><path class="cls-19" d="M175.87,42.68c-1.23-2.79.24-6.5-2.62-8.74l1.66-1.14c4.74,2.18,2,6.41,2.37,9.79A.86.86,0,0,1,175.87,42.68Z" transform="translate(0 -1.31)"/><path class="cls-74" d="M219.74,37.16l-.65,1.1c-.21,1.45.4,3.13-1.07,4.21-.24,1.25-.49,2.51-.73,3.76-2.74,1.35-4.59-1.08-6.83-1.83a3.57,3.57,0,0,0-1.55-1.64c.38-4.32,3.09-4.84,6.33-4,.28-1.79-1.33-1.15-1.66-2.52C215.81,35.18,217.77,36.23,219.74,37.16Z" transform="translate(0 -1.31)"/><path class="cls-113" d="M206.17,47c1-.38.59-3.27,2.67-1.64,2.79.77,1.85,3.2,2,5.13-.78,2.62-2.58,4.32-4.61,5.82-2.51.3-3.08-1.64-3.65-3.57a4.72,4.72,0,0,1,.12-1.4C203.92,49.92,203.54,47.11,206.17,47Z" transform="translate(0 -1.31)"/><path class="cls-114" d="M202,39.05c-.53-.58-1.07-1.15-1.61-1.73,3.73-2.3,5.16-1.89,6,1.73-.07.28-.14.57-.2.86-1,2.69.09,5.94-1.91,8.38-2.55-.47-2.48-2.57-2.71-4.63C201.44,42.06,202.68,40.66,202,39.05Z" transform="translate(0 -1.31)"/><path class="cls-115" d="M209.6,49.85c-.26-1.5-.51-3-.76-4.51,0-.86,0-1.72.07-2.58.77-1,1.58-1.6,2.52-.19,1,1.78,3.57,2.84,2.48,5.68C212.7,49.46,211.45,50.57,209.6,49.85Z" transform="translate(0 -1.31)"/><path class="cls-116" d="M204.53,47.86a18.51,18.51,0,0,1,1.7-8L206.17,47c-1,1.32,0,4-2.46,4.38-1,.44-2,1.29-2.87.06a2.25,2.25,0,0,1,.54-3.32C202.38,47.34,203.52,48.5,204.53,47.86Z" transform="translate(0 -1.31)"/><path class="cls-112" d="M206.43,39.05c-1.48-2.65-3.93-1.51-6-1.73.86-4.68,4.48-1.93,6.75-2.83C207.11,36.05,207.22,37.63,206.43,39.05Z" transform="translate(0 -1.31)"/><path class="cls-117" d="M303.57,24.66l-.69,4.65a2.29,2.29,0,0,1-1.13,3c-5.26,2.8-9.8,6.86-15.08,9.63a23.94,23.94,0,0,1-2.65-.68c-2.35-1.54-3.41-4.2-5-6.43.48-3,3.16-3.65,4.94-5.28.73-.42,1.35-1,2.12-1.41,3.74-.5,7.41-1.25,10.58-3.63C299,23.24,301.27,24.92,303.57,24.66Z" transform="translate(0 -1.31)"/><path class="cls-70" d="M296.69,24.52l1.07.54c-3.72,1.65-6.93,4.59-11.15,5-.8-2.55.71-3.15,2.58-3.46Z" transform="translate(0 -1.31)"/><path class="cls-118" d="M289.19,26.57,286.61,30l-1.75.76c-1.41-.86-1.65-2-.78-3.45l.92-1.72a2.81,2.81,0,0,0,2.76-.15C288.73,25.07,289.39,25.21,289.19,26.57Z" transform="translate(0 -1.31)"/><path class="cls-78" d="M188.36,43.58a2.81,2.81,0,0,0,1.81,1.73,2,2,0,0,1,1,1.57,6.16,6.16,0,0,0,.26,5.33,6.56,6.56,0,0,1-.89,4.29,6.57,6.57,0,0,1-5,2.1c-1.82-.52-1.82-2.36-2.42-3.76a10.92,10.92,0,0,1,.07-2.68,4.68,4.68,0,0,1,.64-2.51A10.83,10.83,0,0,0,185.57,47C186.46,45.85,185.93,43.37,188.36,43.58Z" transform="translate(0 -1.31)"/><path class="cls-115" d="M190.12,47.09c0-.59,0-1.19,0-1.78l.82-1c1.68.54,3.36-1.74,5,0,3.06-1.76,3.47-1.53,4.55,2.56a2.63,2.63,0,0,1-1.14,1.74c-2.34-.43-3.95,1.24-5.79,2.29a3.88,3.88,0,0,1-1.36,0C190.33,50.46,189.43,49.27,190.12,47.09Z" transform="translate(0 -1.31)"/><path class="cls-92" d="M188.36,43.58,186.89,48a2,2,0,0,1-1.41-1.17,16.6,16.6,0,0,1-1.53-10,1.24,1.24,0,0,1,2-.68l1.69-.68C190.45,37.94,187.37,41,188.36,43.58Z" transform="translate(0 -1.31)"/><path class="cls-31" d="M185.93,36.2l-1.46,1.25c-.06,2.76-.34,5.44-2.68,7.27a3.16,3.16,0,0,1-3.42-.69,1.23,1.23,0,0,1,0-1.45c2.9-2.28,4.28-6.21,7.65-8C186,35.12,186,35.66,185.93,36.2Z" transform="translate(0 -1.31)"/><path class="cls-73" d="M198.79,48.11l.75-1c1.33-2.1-1.54-4.18,0-6.28L202,40a17.56,17.56,0,0,1,.14,9c-1.61,2.41.82,1.81,1.62,2.43,0,.15,0,.3,0,.45-.9,1.39.72,3-.37,4.38a1.94,1.94,0,0,1-1.11.54c-1.29-.17-2.08-1.39-3.3-1.72a5.43,5.43,0,0,1-1.73-.95,3.43,3.43,0,0,1-.55-1.34C196.35,50.65,195.88,48.49,198.79,48.11Z" transform="translate(0 -1.31)"/><path class="cls-89" d="M199.5,40.85c2.18,2.08,1.29,4.18,0,6.28-.51-1.86-1.32-3.3-3.51-2.79C196.88,42.83,196.91,40.4,199.5,40.85Z" transform="translate(0 -1.31)"/><path class="cls-119" d="M202.1,48.93c0-3-.1-6-.14-9,0-.3,0-.61,0-.92,1.66,2.67,0,6.41,2.52,8.81Z" transform="translate(0 -1.31)"/><path class="cls-20" d="M128.36,16.66a2.82,2.82,0,0,1-1.71-1.79l1.89-1c4.88.7,9,3.34,13.2,5.79A38.91,38.91,0,0,0,146.15,22c.88,3.12.88,3.12,4.27,4.36l-5.06,1-.58.11c-2.52.45-2.41-4.08-5.22-3.08C135.5,22.36,131.49,20.22,128.36,16.66Z" transform="translate(0 -1.31)"/><path class="cls-32" d="M146.15,22c-6.36-1.51-11.79-5.31-17.61-8.14.42-1.49,1.43-1.24,2.45-.92C136.21,15.62,141.84,17.56,146.15,22Z" transform="translate(0 -1.31)"/><path class="cls-107" d="M339.11,28.26c-4.66-1.84-10-.62-14.41-3.62-.53-1.78,0-3,1.72-3.55,4.13,1.2,7.74,4.23,12.35,3.85.9-.07,2.23.3,2.38,1.45C341.33,27.71,339.71,27.5,339.11,28.26Z" transform="translate(0 -1.31)"/><path class="cls-120" d="M163.09,29.13c1.25.45,2.83.62,2.89,2.46.06,1.42-1.17,1.76-2.18,2.17-2.12-.47-4.23-3.57-6.34,0,1.23,1.9-.36,3.41-.66,5.08-2.19,4.5-2.55,9.67-4.53,14.26-3.09,4-3.48,4.07-5.92,1.43-.92-2.18,0-4.27.25-6.39a35.72,35.72,0,0,1,5.26-15.36,7.76,7.76,0,0,1,3.66-2.72l5.16-2.7A2.42,2.42,0,0,0,163.09,29.13Z" transform="translate(0 -1.31)"/><path class="cls-55" d="M145.36,27.37c0,.29,0,.59,0,.88-.51.65-.7,1.55-1.42,2.05a18.25,18.25,0,0,0-4.37,5.42c-.65,1.23-1.34,2.05-2.7,2.08l-2-.11c-1.63,0-3.07-.46-3.89-2.15,1.75-3.15-1.91-3.64-2.5-5.67a3.17,3.17,0,0,1,.12-1.5,4.75,4.75,0,0,1,2.79-2.53c4.67.26,9.42-.35,14,1.27Z" transform="translate(0 -1.31)"/><path class="cls-110" d="M155.52,30.06c-3.9,5-6.16,10.84-7.63,17.07-1.24.58-1.78,3.18-3.62,1.83-1.51-1.1-1.2-3.06-.92-4.79,2.56-3.06,2.39-7.35,4.24-10.73.4-1.65,1.74-2.4,2.85-3.39C152.13,29.21,153.83,30.26,155.52,30.06Z" transform="translate(0 -1.31)"/><path class="cls-121" d="M150.44,30.05c2.93,3.17-.15,3.06-1.8,3.74l-.63.13a5.19,5.19,0,0,1-4.19-1.4c-.87-1.08-.36-2.22-.14-3.35l1.71-.92Z" transform="translate(0 -1.31)"/><path class="cls-61" d="M324.73,24.64c-.81,1.59-1.54,3.47-3.37.94C321.47,21.18,323.38,24,324.73,24.64Z" transform="translate(0 -1.31)"/><path class="cls-67" d="M122.68,13.88c1.55,1.3,1.37,2.51-.19,3.63-3.7,1.39-6.26,0-9.28-5.07a2.37,2.37,0,0,1,1.39-2.31,2,2,0,0,1,1.93,0Z" transform="translate(0 -1.31)"/><path class="cls-35" d="M116.53,10.13l-1.62.17a.62.62,0,0,1-.26-.62q.09-.33.18-.33l.85-.68.79.74Q116.52,9.77,116.53,10.13Z" transform="translate(0 -1.31)"/><path class="cls-122" d="M284.08,27.34l.78,3.45c-1.45,1.71-3,3.32-5.17,4a2.2,2.2,0,0,1-2.36.92,3.66,3.66,0,0,1-1.63-1.18c-.06-.22-.11-.44-.15-.67A19.71,19.71,0,0,1,284.08,27.34Z" transform="translate(0 -1.31)"/><path class="cls-123" d="M275.7,34.49l1.73.18c4.12.7,4.36,5.28,6.79,7.67.55,1.74-.56,2.94-1.24,4.29-1.4,1.09-2.62.48-3.81-.44a1.87,1.87,0,0,1-.06-2.67c-.1-2.43-2.1-3.2-3.49-4.51C275.65,37.51,275.67,36,275.7,34.49Z" transform="translate(0 -1.31)"/><path class="cls-124" d="M138.68,26.46c-3.94-2.76-7.66-5.9-12-8l1.65-1.77c4.5.95,7.63,4.84,11.91,6.26.94.94,1.85,2,1,3.39C140.67,27.22,139.58,27.15,138.68,26.46Z" transform="translate(0 -1.31)"/><path class="cls-125" d="M282.52,45.32c-1-1.85,1-1.87,1.55-2.73a2,2,0,0,1-.08-2.65l2.68,0c-1.26,1.25-1.86,2.64-.84,4.39-.19.89.43,1.36.9,1.9h0c-.75.66-.72,2-1.76,2.41a2.36,2.36,0,0,1-1.18,0C282.3,48,282.74,46.51,282.52,45.32Z" transform="translate(0 -1.31)"/><path class="cls-28" d="M290,57a4.56,4.56,0,0,0-1.41,4.81,7.79,7.79,0,0,1-.09,5.26c-.5-2.4-2.52-3.7-3.64-5.66C283,60,280.3,62.76,278.68,60a2.15,2.15,0,0,1,.17-1.9c2.6-3.76,6.8-2.87,10.32-4C290.35,54.8,289.91,56,290,57Z" transform="translate(0 -1.31)"/><path class="cls-5" d="M289.17,54.16c-.88,1.78-1.73,3.43-4.17,2.58-2.16-.75-3.6,1.34-5.43,1.93a2,2,0,0,1-1.29-2c.38-2.48.75-5,4-4.66l1.13-.11,1.08-.13a5,5,0,0,1,2.1,0C287.9,52,288.37,53.28,289.17,54.16Z" transform="translate(0 -1.31)"/><path class="cls-75" d="M286.58,51.77l-1.77,1.57c-1.62-1.85-1.25-3.66.12-5.44l1.77-1.63Z" transform="translate(0 -1.31)"/><path class="cls-123" d="M109,81.09l-4.26-3.25-2.53-2c1.21-.12,3,.45,3.42-.93.82-2.51,1.63-1.33,2.89-.57a20.69,20.69,0,0,0,3.9,1.45c.15.15.3.3.46.44.48,1.94,2.14,4-.31,5.72C111.38,81.68,110,82.17,109,81.09Z" transform="translate(0 -1.31)"/><path class="cls-79" d="M108.28,67.54c-.35.84.45,4.09-1.8.95a2,2,0,0,0-2.55-.6c-.9-.27-1-1.35-1.71-1.84l-.88-.94a12.8,12.8,0,0,1-.62-7.35c.21-1.53.36-3.1,2.07-3.69a6,6,0,0,1,3.06-.07c2.1.49,2.54,2.28,2.52,4.11C108.32,61.25,108.92,64.41,108.28,67.54Z" transform="translate(0 -1.31)"/><path class="cls-126" d="M112.42,75.83c-.83-5-2.65-10-1.84-15.26a.88.88,0,0,1,.34-1.11c2.32-.06,2.15,2.33,3.13,3.59.93,2.26,3.36,3,4.52,5-.32,2.18,1.78,4,.9,6.24a2.86,2.86,0,0,1-2,1.83c-1.67-.52-3.46.65-5.11-.33Z" transform="translate(0 -1.31)"/><path class="cls-127" d="M110.78,59.73c-.08.27-.14.55-.2.84-1.76,2-1.19,4.78-2.3,7q-1.27-6.18-2.57-12.38c-1.54-2-1-3.43,1.14-4.38,2.48.48,4.69,1.37,5.72,4.12C112.29,56.64,112.61,58.63,110.78,59.73Z" transform="translate(0 -1.31)"/><path class="cls-36" d="M102.84,55.1c-.78,1.09-.57,2.39-.67,3.62-2.28,2-3-.5-4.14-1.66a4.09,4.09,0,0,1-2.57-1.86c1.12-1.72-.83-3.13-.42-4.78-.28-3,1.44-3.47,3.77-3.83s2.92.94,3.07,2.88c.1,1.4,1.68,1.43,2,2.58A2.46,2.46,0,0,1,102.84,55.1Z" transform="translate(0 -1.31)"/><path class="cls-81" d="M88,57.72,84.64,55.9c-2.2-3.88-2.07-4.22,2.09-5.58,1.59.51,3,1.54,4.7,1.75,3.36,1.12,2.48,3.46,1.48,5.84l-2.58.25A1.46,1.46,0,0,1,88,57.72Z" transform="translate(0 -1.31)"/><path class="cls-58" d="M92.91,57.91c-.52-1.67,1.33-4.77-2.39-4.53C89.66,52,88,50.72,89.16,48.7c1-1.74,2.61-1.31,4.13-1,1.76.16,2.18,1.85,3,3,1,1.77,1.12,3.36-.87,4.48Z" transform="translate(0 -1.31)"/><path class="cls-128" d="M88,57.72l2.33.44c2.48,1.63,2.76,4.16,2.52,6.91C90.53,63.14,87,62.1,88,57.72Z" transform="translate(0 -1.31)"/><path class="cls-10" d="M98.85,63.28c-.1.43-.19.87-.3,1.29-.32,1.18,1.65,2.49-.11,3.51-.68.4-1.33-.28-1.74-.89-1-1.51-1.7-3.31-.84-5s1.91.16,2.9.27c.25.15.34.32.29.51S98.93,63.28,98.85,63.28Z" transform="translate(0 -1.31)"/><path class="cls-93" d="M98.85,63.28l-.09-.81c-.24-1.81-.49-3.61-.73-5.41l4.14,1.66c.82,2.29-.73,4.23-.83,6.39Z" transform="translate(0 -1.31)"/><path class="cls-93" d="M102.22,66.05c0-.27,0-.62.16-.8.42-.55.58-.06.71.29.29.78.56,1.57.84,2.35-.58,1.63-.87,3.55-3.44,3.5C100.43,69.31,103.41,68.31,102.22,66.05Z" transform="translate(0 -1.31)"/><path class="cls-73" d="M73.51,53.47l-1.68-1c-.42-4.52,3.12-4.11,5.58-5,1.5,1.52,3.64,1.93,5.15,3.42.42,1.33,1,2.64.33,4.06C79.91,53.4,76.94,51.82,73.51,53.47Z" transform="translate(0 -1.31)"/><path class="cls-5" d="M82.89,55l-1-3.42c2-2.63,3.08-2.4,4.45,1-3.16-.37-.35,2.72-1.74,3.38Z" transform="translate(0 -1.31)"/><path class="cls-129" d="M77.79,48.94c-2.16.85-4.4,1.56-6,3.56a4.09,4.09,0,0,1-3.56-1.93c.13-3.73,3.66-4.6,5.4-7,1.52-2.11,3.63-3.78,5.21-6a5.84,5.84,0,0,1,10.22.67c-1,4.85-4.39,7.75-7.7,10.69C80.29,49.92,79,49.35,77.79,48.94Z" transform="translate(0 -1.31)"/><path class="cls-96" d="M87.83,38.47C85.1,36.16,80.94,36,79.5,39c-2.62,5.27-7.25,8-11.23,11.62L66,50.78c-.07-2.46,1.43-3.62,3.29-4.5,2.67-2.87,4.76-6.41,8.4-8.16,2.5-4.37,7-5.06,11-6.13,2.06-.54,4,1.14,3.71,4.05a3.63,3.63,0,0,1-.46,1.54C90.73,38.72,89.46,39.53,87.83,38.47Z" transform="translate(0 -1.31)"/><path class="cls-130" d="M69.27,46.28,66,50.78l-3.46,2.61L60.44,54.7C61.63,51,66,50.22,66.68,46.23A2.35,2.35,0,0,1,69.27,46.28Z" transform="translate(0 -1.31)"/><path class="cls-131" d="M208,101c-3.73.65-7.13,2.78-11,2.71-.77-2.85,1.62-2.6,2.71-3.34-1.37-.42-2.57,2.56-4.39.61-.27-1.12-.55-2.24-.82-3.36-.1-2.2,1.56-3.08,2.84-4.24,3.54-2,7.42-3.42,8.45-8.38a2.63,2.63,0,0,1,3.11-1.69c1.24.29,2.6.21,3.56,1.34,1.73,2.13-1.36,4.21-.05,6.35C215.83,96.7,214.07,100.67,208,101Z" transform="translate(0 -1.31)"/><path class="cls-90" d="M198,95c-.69,1.59-2.15,2-3.5,2.64h-.95l-2.47.63c-1.47-.8-3-.2-4.54-.39-.9-.12-2.38.43-2.35-1.06.05-1.82,1.42-2.14,3-1.81,3.07.64,4.62-.63,4.32-4.07A7.05,7.05,0,0,1,194.59,86C198.74,87.66,199.37,89.34,198,95Z" transform="translate(0 -1.31)"/><path class="cls-115" d="M195.3,101c2.09-.8,4.16-1.72,6.3-2.33.62-.18,1.79-1.88,2.22.2.26,1.29-.71,1.8-1.71,2.12-1.86.59-3.85.93-5.13,2.74h0c-1.7.12-3.41,3.67-5.1,0A8.36,8.36,0,0,1,195.3,101Z" transform="translate(0 -1.31)"/><path class="cls-16" d="M191.88,103.71c1.7,1.15,3.4,0,5.1,0-1.79,2.29-4.67,3.42-5.93,6.27C188.51,107.48,189,105.42,191.88,103.71Z" transform="translate(0 -1.31)"/><path class="cls-83" d="M213.89,101l-7.61,5.4-.8,0c-.73-2.63,1.27-3.84,2.51-5.45a11.3,11.3,0,0,1,2.14-2.6c3.92-2.51,3-4.49-.45-6.34.36-3.28,4.74-2.69,5.09-6,.93-1.79,2.52-1.65,4.08-1.61,1.89.15,2.3,2,3.37,3.17.62,3.13-.85,5.51-2.94,7.23a5.37,5.37,0,0,0-2.11,4.79C216.53,101.38,215,100.65,213.89,101Z" transform="translate(0 -1.31)"/><path class="cls-63" d="M260.42,91.13c2.52-1.27,3.87,1,5.46,2.22,1,.75,1.68,2,3,2.31-1.2,3.32-3.87,3.25-6.41,2.82A31.46,31.46,0,0,1,257,96.55c-.85-1.66-.76-3.07.92-4.09C258.58,91.68,260.65,93.89,260.42,91.13Z" transform="translate(0 -1.31)"/><path class="cls-132" d="M258.67,92.91c-.56,1.21-1.12,2.43-1.69,3.64l-5-1.84-1.72-.87c2-1.88,1.31-4.92,2.78-7.7,1.38,2.47,2.69,4.94,5.58,2.84l.89,1.43C258.76,91.06,259.72,92.37,258.67,92.91Z" transform="translate(0 -1.31)"/><path class="cls-8" d="M252.75,76.83c.28,1.86.58,3.73-.75,5.33-1.35.33-2.7.59-4,1-3.23,1-4.57-.06-3.62-3.68,0-1.89,1.69-2.9,2-4.62a3.73,3.73,0,0,1,2-2.68C251.89,71.59,252.77,73.73,252.75,76.83Z" transform="translate(0 -1.31)"/><path class="cls-46" d="M247.76,75.85c1,1.62,2.41,3.48-1.19,2.85a2.53,2.53,0,0,0-2.22.77c-3.62-1.65-2.94,2.3-4.25,3.66q-1.68-2.3-3.34-4.6c.21-1.54-.42-3.37,1.26-4.44C241.5,73.26,245.21,71,247.76,75.85Z" transform="translate(0 -1.31)"/><path class="cls-21" d="M267.17,85.73c-.3-.58-.6-1.16-.89-1.74a2.68,2.68,0,0,1,.78-1.83c1.2-.74,2.41-1,3.63,0a7.19,7.19,0,0,1,1.58,6.33C271.08,86.46,268.23,88,267.17,85.73Z" transform="translate(0 -1.31)"/><path class="cls-101" d="M258.67,92.91l.85-2.5.9.72c.17.23.46.44.49.7.18,1.18,2.67,1.93,1.07,3.17S259.31,94.48,258.67,92.91Z" transform="translate(0 -1.31)"/><path class="cls-65" d="M91.36,36.16c-.81-3-3-2.78-5-2-3,1.15-6.06,2-8.7,4a7.88,7.88,0,0,1,1.74-4.38C81.78,31.89,84.77,31.2,87,29c1.45-1.46,3.16-.31,4.69.43,1.51,1,1.63,2.94,2.43,4.41a2.73,2.73,0,0,1-.83,2.75A1.31,1.31,0,0,1,91.36,36.16Z" transform="translate(0 -1.31)"/><path class="cls-133" d="M91.33,30.16c-2-.72-3.84-1.06-5.46,1.28-1.51,2.17-4.17,1.92-6.46,2.3l0-.91c4.07-2.28,7.27-7.1,12.85-4.91C92.86,29.09,92.65,29.87,91.33,30.16Z" transform="translate(0 -1.31)"/><path class="cls-84" d="M67.47,42.36l5.35-4.21c.7-1.23.29-3.27,2.3-3.53l1.7-.14c-1.33,3.51-4,5.83-6.5,8.32C69.25,43.87,68.19,44.22,67.47,42.36Z" transform="translate(0 -1.31)"/><path class="cls-89" d="M270.69,82.12l-3.49.93c-1.14-2.6-3.9-4.11-4.34-7.2-.1-2.2-1-4.21-1.21-6.4-.36-4.1.63-5,4.69-4.31l.88-.23c3.53-2.26,4.59-1.91,5.91,1.92,0,.27,0,.54,0,.81l-2.54,1c-2.33,1-4.88,1.77-3.41,5.42C266.82,77.53,270.67,78.88,270.69,82.12Z" transform="translate(0 -1.31)"/><path class="cls-116" d="M281.65,70.48a13.42,13.42,0,0,0-.31,6.84c.43,2.25.7,4.79-2.26,5.68a15.89,15.89,0,0,1-.23-3.55c.43-2.59-.1-4.21-4.19-3.64C277.62,73.36,279,71.13,281.65,70.48Z" transform="translate(0 -1.31)"/><path class="cls-48" d="M267.17,74.1c-.73-1.73-2-3.61-.78-5.38,1.06-1.54,2.77-.84,4.19,0,1.1,1.36.45,2.09-.85,2.47A3.2,3.2,0,0,0,267.17,74.1Z" transform="translate(0 -1.31)"/><path class="cls-47" d="M273.13,66.83c-1.75-1.4-3.84-1.63-5.91-1.92-.07-1.38-.27-2.74-1.44-3.57-2.53-1.78-3.13-4.51-3.21-7.42a10.09,10.09,0,0,0-1.27-4.2c-.6-1.26-1.86-2.63-.46-4,1.12-1.13,2.54-1,3.94-.29a14.75,14.75,0,0,0,2.4.82l.06,1a1.47,1.47,0,0,1,.33,1.12c-.28,1.21-2.23,2.94.86,3.11,1.55.62,2.15,2.28,3.29,3.34,2.18,1.51,2.45-1,3.52-1.87a2,2,0,0,1,2.15-.87c2.11,1.23,1,3.46,1.41,5.21.26.48.52,1,.77,1.44-.18.36-.36.73-.55,1.09,1.18,1.52,3.91,2.46,1.72,5.23A13.1,13.1,0,0,0,273.13,66.83Z" transform="translate(0 -1.31)"/><path class="cls-88" d="M280.74,65c-.37-1.82-2.4-3-1.72-5.23,1.93.7,5-3.36,5.88,1.66C283.19,62.18,285.27,67.93,280.74,65Z" transform="translate(0 -1.31)"/><path class="cls-43" d="M114.17,12c-1.71-1.16-3.16-.6-4.46.8a7.79,7.79,0,0,1-5,2.78c-1.91-1.46-3.65.52-5.57.63-.22-2.12,2.32-3,1.46-5,4.64-1.7,9.47-1.76,14.29-1.88,0,.32,0,.63.07,1Z" transform="translate(0 -1.31)"/><path class="cls-30" d="M94.6,15.68c0,1.19,0,2.38,0,3.57-1.81,2.34-4.92,2-7,3.83-.67.59-1.94,2.05-2.83.38s.71-2.34,1.76-3C89.2,18.87,92.26,18,94.6,15.68Z" transform="translate(0 -1.31)"/><path class="cls-112" d="M70.91,22.88c2.58.22,5-1,7.47-1.17,2.17-.14,2.28-1.8,2.73-3.33,1.06,1.45,2.06,3.05.65,4.71a5.88,5.88,0,0,1-6.38,2A28.66,28.66,0,0,1,70.91,22.88Z" transform="translate(0 -1.31)"/><path class="cls-123" d="M266.34,65.14c-3.16.88-3,3.36-2.52,6,.29,1.6.62,3.2.93,4.79-.33,2.34-1.75,1.76-3,1.11-1.71-.92-3.6-1.29-5.33-2.09-.86-3.33-3.86-5.28-4.92-8.48-.46-2.65.2-5.36-.37-8a2.63,2.63,0,0,1,1.58-1.88c3.52-1.13,6.89-1.48,9.36,2.28C261.84,62.19,265.92,62.28,266.34,65.14Z" transform="translate(0 -1.31)"/><path class="cls-134" d="M247.56,55.05c.81-3,1.79-5.95,1.07-9.19s1.51-4.87,3.36-6.7a14.66,14.66,0,0,0,1.66.55c.93.79,1.71,1.75,1.33,3.07-1.15,3.91-.14,7.7.39,11.53.29,1.44,0,2.57-1.47,3C252.23,55.17,249.05,57.78,247.56,55.05Z" transform="translate(0 -1.31)"/><path class="cls-135" d="M265.38,36.44c-.2,1.18-.38,2.35-.59,3.53-.38,2.07-1.44,3.2-3.55,2.75-1.84-.4-2.5-1.65-2.36-3.59.15-2.18,1.26-3.3,3.24-3.29a17.35,17.35,0,0,1,3.29.63Z" transform="translate(0 -1.31)"/><path class="cls-136" d="M253.62,57c.59-.88,1.17-1.76,1.75-2.65,3.65-2.65,4.61-2,6.74,4.51-2.71-1.77-5.81-.5-8.66-1.26A.38.38,0,0,1,253.62,57Z" transform="translate(0 -1.31)"/><path class="cls-13" d="M232.31,53.32c-.74.45-1.35.46-1.66-.55l-3.23-2.64c1.58-.22,3.07-.17,4.13,1.36Z" transform="translate(0 -1.31)"/><path class="cls-128" d="M267.29,48c0-.28,0-.55-.05-.83,2.32.52,4.72,1.72,6.64-.92a4.74,4.74,0,0,1,4.6,3.68,2.26,2.26,0,0,1-1.29,2.48l-.75,1.76c-2,.63-3.37,3.13-5.87,1.94A6.4,6.4,0,0,1,268,52.52,4.15,4.15,0,0,1,267.29,48Z" transform="translate(0 -1.31)"/><path class="cls-137" d="M277.44,49.83l-3.56-3.56c0-.32.05-.64.07-1,2.47,1.86,2.86-3.05,5.15-1.79l.75,1.94c1.32,2,.1,3.33-1.24,4.58A1,1,0,0,1,277.44,49.83Z" transform="translate(0 -1.31)"/><path class="cls-99" d="M240.21,52.6l.84.88c.65.92-.1,2.06.39,3,1.75,3.34.59,4.56-2.73,5.23-2.61.54-4.86,3.68-7.83.94-.57-1.7-1.52-2.86-3.41-2.82-1.59,0-2.48-.92-2.8-2.53.45-2.5,1.38-4.37,4.27-4.15,2.19.16,3.33-2.56,5.54-2.5a3,3,0,0,1,1.5,1A3.14,3.14,0,0,0,240.21,52.6Z" transform="translate(0 -1.31)"/><path class="cls-50" d="M225.74,57c1.26,1.79,3.06,1.09,4.69,1.14,3.09.11,3.18,1.34,1.15,3.39-2,2.43-4.2,1-6.35.31-3.29-1.75-4.36-5.54-6.66-8.2a1.61,1.61,0,0,1,1.21-1.95c1.77,0,3.58.21,3.61-2.7,0-2,1.57-2.59,3.23-2.73l.78,3.51c.67,1.08.88,2.21-.29,3C225.54,53.84,225.78,55.45,225.74,57Z" transform="translate(0 -1.31)"/><path class="cls-13" d="M225.74,57c-1.91-3,.23-5,1.66-7.23l3.42-.9c.78,1.41,3.34.37,3.4,2.77-1,3.31-2.46,5.7-6.3,3.87C226.65,54.92,226.4,56.39,225.74,57Z" transform="translate(0 -1.31)"/><path class="cls-97" d="M234.22,51.65c-1.34-.63-3.52-.11-3.4-2.77,2.48-.68,4.62-.64,5.16,2.77Z" transform="translate(0 -1.31)"/><path class="cls-138" d="M225.69,60.29c1.93.6,3.76,1.71,5.89,1.25,2.93,2.16,4.77-1.36,7.3-1.63,4.36-.47.63-4.56,2.17-6.43.76,2,1.54,4,4.16,3.64.64.94,1.68,1.55,1.92,2.79a2.81,2.81,0,0,1-.42,2.08A17.55,17.55,0,0,1,243,64a4.22,4.22,0,0,1-2.69.78c-4,.77-8.07,2.16-12.15.25a4.71,4.71,0,0,1-3.59-2.22A2.13,2.13,0,0,1,225.69,60.29Z" transform="translate(0 -1.31)"/><path class="cls-139" d="M246.1,59.75c-.72-.23-1.84-.25-2.08-.75-.42-.88.77-1.23,1.19-1.88l.82-1,1.53-1.06c.89-.32,1.81-.58,2.67-1,2.92-1.36,3.64.11,3.39,2.89a4.5,4.5,0,0,0-.17.6L252,58.85c.26,1.12-.35,1.65-1.2,2A7.76,7.76,0,0,1,246.1,59.75Z" transform="translate(0 -1.31)"/><path class="cls-47" d="M219.78,51.7,219,53.27c.2,1.26,1.37,2.15,1.21,3.55-.39,1.59-.17,3.56-2.27,4a2.19,2.19,0,0,1-.9-.54,1.34,1.34,0,0,1,.36,1.53c-1.33,1.8-3.13,1.72-5,1.43-4.74-1.23-6.41-3.09-6.26-7,2.61-1.62,3.5-5,6-6.72,1.7-.35,3.15-2.84,5.13-.66A2.54,2.54,0,0,1,219.78,51.7Z" transform="translate(0 -1.31)"/><path class="cls-140" d="M217.21,48.92l-4.87,1.85c-.38.19-.89.25-1-.19-.38-1.5,1.08-1.72,1.7-2.54a14.87,14.87,0,0,0-1.62-5.47c2,1.16,4.19,1.94,5.87,3.66C217.26,47.12,217.24,48,217.21,48.92Z" transform="translate(0 -1.31)"/><path class="cls-55" d="M218,42.47a7.74,7.74,0,0,1,1.07-4.21c.53,1.76,1,3.52,1.58,5.27l-1.14,2.92C218.08,45.4,218.39,43.79,218,42.47Z" transform="translate(0 -1.31)"/><path class="cls-11" d="M168.87,63.48c-2.3-5.54-1.41-10.62,2-15.32,2.22-2,3.11.51,4.45,1.48a2.89,2.89,0,0,1,.88,1.9,4.1,4.1,0,0,1-.26,2.08,2.37,2.37,0,0,1-.92.91c-2.41.39-3.37,2-3.44,4.46-.59,1.3-1,2.7-1.66,4A1.86,1.86,0,0,1,168.87,63.48Z" transform="translate(0 -1.31)"/><path class="cls-141" d="M174.32,50.73l-3.47-2.57-.36-.21c-1.63-1-2.66-2.52-1.81-4.39,1.33-2.94,3,1.3,4.6,0l2.44.06C178.19,46.63,176.3,48.69,174.32,50.73Z" transform="translate(0 -1.31)"/><path class="cls-142" d="M163.12,67.8l.84,2.72a1.66,1.66,0,0,1,.23,2.06c-2,2.06-3.51.06-5.14-.79-1.27-1.16-3.14-1.64-3.68-3.63-.11-2.56-.77-5.15.31-7.65,1.27-1.37,2.5-.83,3.72.1C160.47,63.1,160.72,66.08,163.12,67.8Z" transform="translate(0 -1.31)"/><path class="cls-76" d="M164,72.11V70.52c.69-.69,1.34-1.94,2.07-2,3.49-.21,2.94-2.73,2.84-5.07l.39-.34c1.23,0,1.63.94,1.87,2,.7,3.69.59,7.24-1.68,10.4a3.16,3.16,0,0,1-1.09,1.12C165.31,76.88,163.17,76.08,164,72.11Z" transform="translate(0 -1.31)"/><path class="cls-96" d="M163.12,67.8c-4.59,0-2.65-4-3.41-6.37-2-2.07-2.52-4.11.12-6.08.94,1.63.65,3.46.79,5.23s0,3.55,2.51,2.72C163.13,64.8,163.12,66.3,163.12,67.8Z" transform="translate(0 -1.31)"/><path class="cls-4" d="M174.32,50.73l1.4-7.13.15-.92,1.41-.09h1.07c0,.36,0,.73.05,1.1.48.85,1.3,1.5,1.4,2.59.12.43.25.85.37,1.28.52,1.82,1.58,3.87-.39,5.25C178,54,176.37,53,175,51.58Z" transform="translate(0 -1.31)"/><path class="cls-143" d="M156.49,60.56c-.32,2.47.28,4.84.73,7.22-1.43.92-2.6.55-3.57-.79-2.29-8.49-.37-16.65,1.89-24.74a5.27,5.27,0,0,0-.06-4.11l2-4.38c3.11,1.64,2.63,4.63,2.23,7.38-.21,1.4-.89,2.74-.75,4.23a11.74,11.74,0,0,0-1.73,7.15C159,55.41,158.37,58,156.49,60.56Z" transform="translate(0 -1.31)"/><path class="cls-104" d="M156.49,60.56a18.09,18.09,0,0,1,.72-8c.86-.59.44-2.78,2-2.21,1.06.37.63,1.79.6,2.81,0,.74,0,1.48,0,2.23l-.12,6.08Z" transform="translate(0 -1.31)"/><path class="cls-17" d="M207.11,56.08c-.44,3.9,2.08,4.9,4.88,5.63,1.24,1.29.43,2.1-.58,2.87a7.55,7.55,0,0,1-1.89.88c-1.15.3-2.26.4-3.18-.61-1.59-1-1.6-3.21-2.92-4.43a4,4,0,0,1-.63-4.32c.27-1.44-.22-3.06.91-4.29.47,1.49,1,2.93,2.61,3.43C207.11,55,207.32,55.3,207.11,56.08Z" transform="translate(0 -1.31)"/><path class="cls-144" d="M207.11,56.08l-.8-.84,3.29-5.39A5,5,0,0,1,213,48c-.24.91-.47,1.82-.7,2.73C210.48,52.41,210.36,56,207.11,56.08Z" transform="translate(0 -1.31)"/><path class="cls-127" d="M284,39.94l.08,2.65c-.84,0-1.88,0-2.22-.92a21,21,0,0,0-4.42-7l2.26.08C281.91,35.75,283.12,37.69,284,39.94Z" transform="translate(0 -1.31)"/><path class="cls-21" d="M175,51.58c1.31,0,3,.93,3.76-.62,1.18-2.39-1.18-2-2.17-2.8-.77-.64.65-1.28,1-2,4.22-2.14,7.15-.61,8.24,4.31-.23.67-.46,1.33-.68,2-1.41.58-1.93,2.29-3.33,2.87-2-1.11-4.13,1.11-6.14-.18a2.13,2.13,0,0,1-.7-1.82Z" transform="translate(0 -1.31)"/><path class="cls-145" d="M185.81,50.49c-2.13-2.76-5.35-3.18-8.24-4.31-.25-1,.5-1.69.83-2.5l3.2-.28c3-1.67,3.51,1.8,5.17,2.88l.12,1.76Z" transform="translate(0 -1.31)"/><path class="cls-133" d="M184.29,54.34l1.59,3.71a2.33,2.33,0,0,1,1,2.71c-.84,2.05-1.68,4.1-4.39,3.42a3,3,0,0,1-1.15-1C179.72,57.78,180.12,56.6,184.29,54.34Z" transform="translate(0 -1.31)"/><path class="cls-30" d="M190.12,47.09l2.63,2.73c1.15,1.4,1.37,2.74-.22,4a1.75,1.75,0,0,1-2.31-1.26C188.51,50.74,187.67,49,190.12,47.09Z" transform="translate(0 -1.31)"/><path class="cls-15" d="M184.29,54.34c-1.64,2.44-3.37,4.87-1.89,8.14a1.45,1.45,0,0,1-2.07-.19c-.82-2.87-1.8-5.76,1.25-7.94a4.35,4.35,0,0,1,3.55-1.86Z" transform="translate(0 -1.31)"/><path class="cls-15" d="M186,60.6c0-.85-.07-1.7-.11-2.56-.82-3.81,2.06-2.3,3.56-2.79a2.41,2.41,0,0,1,1.14,2.39,5.25,5.25,0,0,1-.24,1.36c-.67,1.4-2,1.67-3.2,2.08A1.43,1.43,0,0,1,186,60.6Z" transform="translate(0 -1.31)"/><path class="cls-48" d="M189.45,58c0-.92,0-1.84,0-2.76l.78-2.73,1.75.9a3.06,3.06,0,0,1,1.16,3.6C192.4,59.4,191.33,60.39,189.45,58Z" transform="translate(0 -1.31)"/><path class="cls-46" d="M191.93,57c0-1.19,0-2.38,0-3.57a6.7,6.7,0,0,0,.78-3.6l.7,0c2.68-.63,3,1.83,4,3.43l.5.17c1.16,2.1.31,3.76-1,5.32C194.44,60.77,193,59.32,191.93,57Z" transform="translate(0 -1.31)"/><path class="cls-146" d="M197.45,53.29c-1.83-.49-3-1.9-4-3.43,1.47-1.65,2.13-6.08,5.34-1.75Q198.12,50.69,197.45,53.29Z" transform="translate(0 -1.31)"/><path class="cls-147" d="M186.77,46.28,181.6,43.4c1-2,1.91-4,2.87-5.95C185.9,40.2,185.12,43.59,186.77,46.28Z" transform="translate(0 -1.31)"/><path class="cls-27" d="M199.5,53.38c2.85-1.21,2.34,1.19,2.61,2.75a3.35,3.35,0,0,1-.38,4.14c-2.93,4.4-3.72,4.59-7,1.7-.59-1.93,1.35-2.55,1.82-3.94C197.36,56.35,199.07,55.31,199.5,53.38Z" transform="translate(0 -1.31)"/><path class="cls-70" d="M200.36,58.81l1.75-2.68.68,0c.65,1.14,1.31,2.28,2,3.42,0,1.57-.29,3.24-2.06,3.21C200.4,62.68,200.47,60.58,200.36,58.81Z" transform="translate(0 -1.31)"/><path class="cls-148" d="M199.5,53.38c1.29,2.52-.1,3.64-2.07,4.46a3,3,0,0,1-.84-.07l.82-.18c-1.53-1.63.14-2.79.54-4.13Z" transform="translate(0 -1.31)"/><path class="cls-140" d="M138.68,26.46c2.3-.28,1.59-2.09,1.59-3.54,2.95-.31,3.6,2.55,5.13,4.19-4.55.21-9,1.71-13.63,1C133.85,26.47,136.58,28,138.68,26.46Z" transform="translate(0 -1.31)"/><path class="cls-14" d="M155.48,38.14c3.06-1.68,2.7.59,2.29,2.39A111.75,111.75,0,0,0,154.49,66c-3.6,1.06-5.16.25-6.9-3.56,0-3.91,2.13-7.18,2.83-10.87C152.34,47.22,153.1,42.33,155.48,38.14Z" transform="translate(0 -1.31)"/><path class="cls-64" d="M145.35,44.4c-1.84,3.74,1.62,1.9,2.54,2.73l-.06,7.34c-1.19,1.92,1.24,5-1.77,6.32-2.21.57-3.71-.2-4.36-2.59a60.64,60.64,0,0,1,.15-10c.24-1.69.34-3.23,2-4.05A1.72,1.72,0,0,1,145.35,44.4Z" transform="translate(0 -1.31)"/><path class="cls-92" d="M146.21,60.05c.11-2-.23-4.15,1.62-5.58,2.27.48,1.17-2.47,2.59-2.86-.32,3.61-.45,7.26-1.67,10.72C146.75,63,146.09,62,146.21,60.05Z" transform="translate(0 -1.31)"/><path class="cls-149" d="M129.27,30c1.53.1,3.06.23,4.59.31,1.07,0,2,.37,2.18,1.61.17,1.57-1.22.64-1.79,1.07-.79.6-1.61,1.15-2.42,1.72-.11,1.71-2.09,2.23-2.2,3.94-.36,1-.64,2-1.06,3-1.07,1.61-.68,4.54-3.58,4.49-1.84-1.05-3.92-1.82-4.51-4.34.18-3.57,1.75-6.53,3.53-9.45C125.31,30.27,126.91,29.28,129.27,30Z" transform="translate(0 -1.31)"/><path class="cls-150" d="M143.68,29.17a2,2,0,0,1,.81,2.63c.89,2.55-1.2,4.16-1.75,6.27a11.59,11.59,0,0,1-.82,3.86,23,23,0,0,0-3.52,7.7C137.91,51.7,137,53,135,53.34a2.79,2.79,0,0,1-2.5-2.55c-.09-4.27,1.72-8.12,2.46-12.21.21-1.13,1.09-1.67,1.92-2.23C138.87,33.65,140.39,30.46,143.68,29.17Z" transform="translate(0 -1.31)"/><path class="cls-151" d="M129.27,30c-3.54.53-4.15,3.92-5.53,6.5a51.05,51.05,0,0,0-2.09,5.24c-2.83,1.45-4.37-.07-5.44-2.66,0-2.57.44-4.93,2.75-6.42,1-.62.9-1.72.86-2.75,3.11-.92,6.32-.48,9.48-.73C129.3,29.49,129.29,29.76,129.27,30Z" transform="translate(0 -1.31)"/><path class="cls-152" d="M136.9,36.35c-1.65,4.69-1.57,9.87-3.67,14.43a2.22,2.22,0,0,1-3-.1A3.88,3.88,0,0,1,129,49.15a11.15,11.15,0,0,1-.14-2c.25-1.52,1.2-2.76,1.54-4.25,1.19-2.4,2-5.14,4.55-6.43Z" transform="translate(0 -1.31)"/><path class="cls-153" d="M135,36.47l-3.07,7.15c-1.62-1.55-3.47-2.95-3.57-5.6s2-2.54,3.5-3.27Z" transform="translate(0 -1.31)"/><path class="cls-74" d="M145.35,44.4h-.85c-1.87-.13-2.13-1.6-2-3.06a29,29,0,0,0-.25-5c1.24-3.55,3.65-3.68,6.51-2.52h-.1C148.59,37.69,146.26,40.8,145.35,44.4Z" transform="translate(0 -1.31)"/><path class="cls-110" d="M148.74,33.8c-2.08.61-4.75-.47-6.05,2.37a1.2,1.2,0,0,1-1.39,1.35c.2-2.45,2-3.92,3.19-5.72A9.22,9.22,0,0,1,148.74,33.8Z" transform="translate(0 -1.31)"/><path class="cls-75" d="M278.19,49.77c.55-1.44,1.1-2.88,1.66-4.31l2.67-.14,1.6,2.72a11.31,11.31,0,0,1,.2,5.27l-1.05.11C281.87,51.73,278.74,52.78,278.19,49.77Z" transform="translate(0 -1.31)"/><path class="cls-144" d="M117.39,38.33l4.26,3.45,3.52,3.27a1.24,1.24,0,0,1,.35,1.12,2.1,2.1,0,0,1-.76.95c-3.69.85-7-.78-9.78-2.73A7.71,7.71,0,0,0,108.91,43a2.55,2.55,0,0,1-2.31-1.79c-.71-1.59,1.5-2.6.72-4.21-1.15-2.51-4.15-2.34-5.6-4.41-.06-1.76,1-2.41,2.4-2.61l4.07,1C111.75,32.73,116.25,33.15,117.39,38.33Z" transform="translate(0 -1.31)"/><path class="cls-154" d="M117.39,38.33a42.12,42.12,0,0,1-9.2-7.35c3.94.51,7.77-.51,11.63-1l4.73,1.24c-1.22,1.93-1.43,4.4-4.54,4.05C118.44,35.07,118.09,37.1,117.39,38.33Z" transform="translate(0 -1.31)"/><path class="cls-57" d="M104.12,30l-1.88,2.77a6.74,6.74,0,0,1,.39,3.21,3.26,3.26,0,0,1-.82,2.44c-3.51,0-5.93-1.64-6.94-5.33-.93-2.6.74-4.18,2.06-5.9C100.3,25.33,101.61,29.38,104.12,30Z" transform="translate(0 -1.31)"/><path class="cls-96" d="M96.93,27.18c.73,2-.79,3.68-.64,5.59-1,1-2,1.83-3.37.89a3.84,3.84,0,0,1-1.59-3.5l.9-2.24C93.63,26.48,95.45,28,96.93,27.18Z" transform="translate(0 -1.31)"/><path class="cls-34" d="M75.12,34.62l-2.3,3.53c-.37-1.81-.73-3.63-1.1-5.44C73.24,32.56,74.23,33.49,75.12,34.62Z" transform="translate(0 -1.31)"/><path class="cls-155" d="M284.32,53.31a10.94,10.94,0,0,1-.2-5.27,7.62,7.62,0,0,0,.81-.14c0,1.81-.08,3.63-.11,5.44Z" transform="translate(0 -1.31)"/><path class="cls-156" d="M278.19,49.77a5.47,5.47,0,0,1,5.08,3.65c-2.72-.36-2.84,2.71-4.47,3.81-2.59-.83-1.19-3.16-1.61-4.8.09-.87.17-1.73.25-2.6Z" transform="translate(0 -1.31)"/><path class="cls-115" d="M177.53,98.31l-1.69-1.8c.37-.89-.26-1.81.08-2.7,1.75-2.73,4.79-2.14,7.21-3.15,2.63.16,5.21,2.28,7.9.2a1.7,1.7,0,0,1,1.65.38c1.17,4.29.47,4.9-7.2,5.61,2.28.89,4.16.35,5.58,1.42Z" transform="translate(0 -1.31)"/><path class="cls-45" d="M113.94,82.26l-.79-.68c-.52-1.8-2.42-1.82-3.57-3.09.64-1.26,2.67-.95,2.83-2.67a8.36,8.36,0,0,0,1.07-1.32c.47-.9-.18-2.76,1.68-2.41,1.42.27,1.29,1.72,1.45,2.88.46,1.06,1.65,1.6,1.86,2.85a3.18,3.18,0,0,1-.2,1.4C117.21,80.84,116.94,83.75,113.94,82.26Z" transform="translate(0 -1.31)"/><path class="cls-38" d="M102.84,55.1l.11-3.53c-1.41-1.91-1.37-5-4-5.88-1.05-2.28-.1-4.29.76-6.32a2.07,2.07,0,0,1,1.59-.82c3.77,0,4.31,3.83,6,6.07a8.06,8.06,0,0,1,1.24,5.94,2.22,2.22,0,0,1-1.26,1.35c-1.19.72-1.4,2-1.47,3.25Z" transform="translate(0 -1.31)"/><path class="cls-102" d="M118.33,74.07c-.33-2.07-.65-4.14-1-6.21a2.23,2.23,0,0,1,.56-1.63c1.23-.91.72-3.28,2.64-3.64,1.94,0,3,1,3.22,3.07-.39,2.67,1.94,5,.85,7.75C123,78.47,121.81,79,118.74,76,118.54,75.36,118.58,74.69,118.33,74.07Z" transform="translate(0 -1.31)"/><path class="cls-109" d="M118.35,66.81l-1,1c-4,2.36-3.5-2.16-5-3.66-.69-3,.73-4.37,3.37-4.72a3.24,3.24,0,0,1,2.55,1.44C118.58,62.88,119.66,64.83,118.35,66.81Z" transform="translate(0 -1.31)"/><path class="cls-156" d="M115.72,60.5c-1.4.94-3,1.7-3.35,3.7l-1.59-4.47c-.18-1.61-.37-3.22.49-4.71,3.19-1.29,3.92,1.5,5.12,3.49A2.13,2.13,0,0,1,115.72,60.5Z" transform="translate(0 -1.31)"/><path class="cls-109" d="M118.33,74.07l.86,1c.17,1.37,1.33,2,2,3a2,2,0,0,1-.33,1.23c-2.18,1.87-2.8,0-3.52-1.64-1.33-.57-1.11-1.6-.71-2.69Z" transform="translate(0 -1.31)"/><path class="cls-97" d="M115.73,58.84,111.27,55c-.93-1.67-2.74-2.05-4.08-3.11,0-.71.09-1.42.14-2.13,1.45-1.74,3-1.07,4.46-.09,1.86,1.26,3.79,2.42,5.56,3.83a2.88,2.88,0,0,1,.83,1.09C118,56.42,119.64,59.45,115.73,58.84Z" transform="translate(0 -1.31)"/><path class="cls-157" d="M99.76,45.21C102,46.67,104,48.28,103,51.57l-2.1,1.87c-1.1-1.41.72-3.87-1.24-4.55-.73-.25-3.36-1.08-3.28,1.83-1-1-3.4.8-3.5-2-2.32-2.67-.73-4.43,1.26-6.09C96.83,41.38,98.37,43.12,99.76,45.21Z" transform="translate(0 -1.31)"/><path class="cls-92" d="M94.71,43.61c-3-1-3.37-3.64-3.47-6.43l.12-1,1.6,0c3.81-1.86,5.39,1.47,7.47,3.63,1.06,2-.4,3.59-.67,5.38Z" transform="translate(0 -1.31)"/><path class="cls-138" d="M198,95c-2.64-2.14-1.1-5.81-2.7-8.33.06-.19.11-.39.16-.58,2.37-1.25,5.32-1.56,6.55-4.62.85-2.16.86-4.59,2-6.65.93-1.68,1.81-3.36,4.09-2.77s1.14,4.44,4,4.36a3.44,3.44,0,0,1,1.18.36c1.4,1.21,2.5,2.59,2.28,4.68-1.42,3-4.71,1.73-6.73,3.35-.39.4-1.11.77-1.14,1.2C207.15,92.33,202.66,93.75,198,95Z" transform="translate(0 -1.31)"/><path class="cls-54" d="M215.59,87.54c1.19,6.16-3.55,3.58-5.91,4.53-2.21-3.49-.9-5.37,2.53-6.3C214.34,84.2,214.85,86.12,215.59,87.54Z" transform="translate(0 -1.31)"/><path class="cls-158" d="M215.59,87.54l-3.38-1.77-3.43-1a5.85,5.85,0,0,1,6-3.56c1.82-1,2.69.72,3.91,1.47.93.88,1.35,1.83.41,3A4.33,4.33,0,0,0,215.59,87.54Z" transform="translate(0 -1.31)"/><path class="cls-132" d="M192.68,91.24l-.8.84c-4.72.79-5,.48-3.7-4,.36-1.23-.07-2.35-.05-3.53.33-2.06.22-4.34,2.22-5.66a2.4,2.4,0,0,1,1.32-.35c1.89.54,2.69,2.26,3.65,3.81.41,1.44,1,2.88,0,4.31v0C194.42,88.19,193.55,89.71,192.68,91.24Z" transform="translate(0 -1.31)"/><path class="cls-117" d="M219.09,85.7a3.08,3.08,0,0,0-1.88-1.85c-.15-2-3.08-4.67,1.26-5.48,2.21,2.24,3.7,5.34,7,6.27.59.17.66,1.24.23,2A4.58,4.58,0,0,0,224,90.15c-2.06,1.49-2-.5-2.51-1.68C220.22,88,219.78,86.72,219.09,85.7Z" transform="translate(0 -1.31)"/><path class="cls-9" d="M221.46,88.47,224,90.15a34.8,34.8,0,0,1-7.54,9.06c-1.3-1.09-2.08-2.68-.33-3.58C219.08,94.09,220,91.08,221.46,88.47Z" transform="translate(0 -1.31)"/><path class="cls-159" d="M235.9,76.77c-2,.81-1.7,3.48-3.36,4.53-1.95,1-6.26-.56-8-3.1a6.64,6.64,0,0,1-1.5-3.12,3.57,3.57,0,0,1,.87-2.49c2.43-.93,2.62-4.32,5.08-5.24,1.86-.62,3.72-1,5.55.13a6.22,6.22,0,0,1,1.74,4.22C236,73.37,237.5,75.2,235.9,76.77Z" transform="translate(0 -1.31)"/><path class="cls-35" d="M223.92,74.89c3.76-.62,3.15,4.25,5.81,5.27.88.34,1.64,1.3,2.81,1.14-1.72,1.77-1.19,6-5.11,5.36-1.23-1.59-2-3.45-4.58-3.59a3.58,3.58,0,0,1-3-3.86,15.29,15.29,0,0,1,.87-4.12C221.76,74,222.8,73.82,223.92,74.89Z" transform="translate(0 -1.31)"/><path class="cls-160" d="M220.71,79.58c.56.43,1.31,1.38,1.66,1.23,6.47-2.64,4.67,2.66,5.06,5.85l-1.72,0c-3.39-1.1-6.41-2.59-6.67-7A1,1,0,0,1,220.71,79.58Z" transform="translate(0 -1.31)"/><path class="cls-30" d="M235.9,76.77c-.29-1.49-.59-3-.88-4.48a2,2,0,0,1,2.55-.64c1.26.88,1.12,2.08.7,3.36s-1,2.35-1.51,3.53C236.47,78,236.18,77.36,235.9,76.77Z" transform="translate(0 -1.31)"/><path class="cls-129" d="M257.07,76.71c-.39-.86-1-1.71-.11-2.63,3.07-1.68,5.14,1.46,7.79,1.81,2,1.93,2.33,4.51,2.45,7.16l-.92.94C264,80.39,260.18,79.07,257.07,76.71Z" transform="translate(0 -1.31)"/><path class="cls-9" d="M249.4,70.45l-.66,2.5c-.33,1-.65,1.93-1,2.9-3-1.78-6.35-.21-9.49-.84-.21-.9-.43-1.8-.64-2.7.15-2.09,1-3.71,2.91-4.48.91-.18,1.74.45,2.65.27C247.18,65.7,247.18,65.7,249.4,70.45Z" transform="translate(0 -1.31)"/><path class="cls-36" d="M100.43,39.83c-3.21.46-4.94-2.5-7.47-3.63,0-.84,0-1.69,0-2.54l3.37-.89c1.42,2.07,4.93,2,5,5.47.25.21.32.39.2.54a.43.43,0,0,1-.31.2Z" transform="translate(0 -1.31)"/><path class="cls-161" d="M270.57,56.13c2-.61,3.64-2.21,5.87-1.94a18.7,18.7,0,0,0-1.09,1.88c-.58,1.34.26,3.65-2,3.83C270.94,60.09,271.76,57.2,270.57,56.13Z" transform="translate(0 -1.31)"/><path class="cls-99" d="M267.29,48c.89,1.38.7,3,.75,4.5-3.88.82-2.94-3.83-6.11-5C264.51,46.86,265.86,47.84,267.29,48Z" transform="translate(0 -1.31)"/><path class="cls-103" d="M252.77,66.22l-1.64-.32a7.62,7.62,0,0,1-2.91-3.56c-.75-2.2-.2-3.44,2.28-2.76l1.53-.73a13.37,13.37,0,0,1,3.5,5.78c-1.32.45-1.62-1.47-2.27-1.17C252.09,64,253,65.29,252.77,66.22Z" transform="translate(0 -1.31)"/><path class="cls-2" d="M218.54,56.51a3.06,3.06,0,0,1,.42-3.24c3.55.93,3.26,6,6.73,7l-.8,2.15c-1.67,1.09-2.9,0-4.16-.95C218.78,60.43,220.72,57.46,218.54,56.51Z" transform="translate(0 -1.31)"/><path class="cls-43" d="M234.3,68.68l-6,0a2,2,0,0,1-1.25-1.44c-.5-1.67-.63-3.21,1.29-4a15.9,15.9,0,0,0,11.92-.81c1.35,1.72,2.25,3.48.37,5.44C238.67,69.5,236.64,70.49,234.3,68.68Z" transform="translate(0 -1.31)"/><path class="cls-73" d="M249.4,70.45l-3-2.31c-1.24.86-1.19,2.93-2.92,3.11-1.86-2.72-2.61-5.57-.89-8.71L246,61.47c3.67,0,4,2.32,3.34,5.36Z" transform="translate(0 -1.31)"/><path class="cls-103" d="M242.58,62.54a13.45,13.45,0,0,1,.89,8.71c-1.64.25-2.5-.5-2.54-2.27-.26-.37-.76-.57-.73-1.15-.63-1.79-.24-3.57.06-5.36Z" transform="translate(0 -1.31)"/><path class="cls-93" d="M228.34,63.28l-.18,3.58c-.68,1,.33,3-1.67,3.1-1.31.09-2-.86-2.64-1.88-1.17-1.92-2.83-3.54-3.3-5.91a2.19,2.19,0,0,1,1-1.83l3.36,2.1A5.42,5.42,0,0,1,228.34,63.28Z" transform="translate(0 -1.31)"/><path class="cls-86" d="M249.33,66.83c0-2.55-2.68-3.25-3.34-5.36,0-.57.07-1.15.11-1.72a3.91,3.91,0,0,1,4.4-.17c-3,2.47,1,4.15.63,6.32Z" transform="translate(0 -1.31)"/><path class="cls-162" d="M221.53,60.34l0,2a2.83,2.83,0,0,1-.78,1.69,7.49,7.49,0,0,0-3,4.07c-.66,1.76-1.7,2.57-3.48,2.23-3.23-1.17-4-3.83-3.88-7.1A2.23,2.23,0,0,0,212,61.71c1.75-.25,3.65.17,5.18-1.19l0,0a5.6,5.6,0,0,0,1.36-4C221,56.54,220.89,58.75,221.53,60.34Z" transform="translate(0 -1.31)"/><path class="cls-82" d="M217.17,60.52l-6.58-1c3.26-1.58,5.45-3.23,6.6,1Z" transform="translate(0 -1.31)"/><path class="cls-163" d="M170,58.81c0-2.83.18-5.47,3.87-5.18,2.17,1.46,1.26,3.57,1,5.53-.22.36-.38.84-.7,1.05-1.29.84-1.25,3.83-3.36,2.94C169.15,62.46,170.29,60.28,170,58.81Z" transform="translate(0 -1.31)"/><path class="cls-66" d="M170,58.81l1.1,2.85c1.29-.46,1.36-2,2.2-2.81,1.87-.17,2,1.19,2.06,2.63-.36,1.85-.23,4-2.52,4.7a2.69,2.69,0,0,1-2.8-1.11c-.25-.64-.49-1.29-.74-1.94A7.55,7.55,0,0,1,170,58.81Z" transform="translate(0 -1.31)"/><path class="cls-48" d="M174.14,61.5c-.29-.89-.59-1.77-.88-2.65l.57-5.22,1.13-.27.91,1c2.14,1.94,2.42,4.39,1.71,7.1C176.45,63,175.31,63.45,174.14,61.5Z" transform="translate(0 -1.31)"/><path class="cls-60" d="M146.21,60.05l2.54,2.28L154.49,66l2.73,1.74,2.92,2.54c1.24,4.18-.4,7.09-3.63,9.31a2.63,2.63,0,0,1-2.48-.38c-2-2.39-3.41-5.54-6.86-6.12-2-2.23-2.5-6.41-6.65-6-1.36-2.91-4.67-4.22-5.53-7.55a4.31,4.31,0,0,1,1.12-2.44c1.4-.52,2.67-1.49,4.26-1.38,1.18.26,1.64,1.34,2.25,2.25Z" transform="translate(0 -1.31)"/><path class="cls-72" d="M156.35,78.48c2.11-2.28.27-6.62,3.79-8.16L164,72.11c1,1.73,2.66,2.66,4.12,3.84a2.36,2.36,0,0,1,1.86.34c1.37,1.3,3.69,1.84,3.26,4.58.06,3.65-1.23,5.56-5.08,5.22-2.11-.19-4,1.57-6.19,1.87A3.31,3.31,0,0,1,159,87C158.58,84,154.89,82.15,156.35,78.48Z" transform="translate(0 -1.31)"/><path class="cls-78" d="M170,65.07l2.5.05c2.62.58,4.53,1.72,3.52,5.12a26.84,26.84,0,0,1-3.3,4c-1.31,1.17-2.69,2.32-4.43.73C170.26,72,170,68.48,170,65.07Z" transform="translate(0 -1.31)"/><path class="cls-41" d="M168.29,75c2.9-.67,3.86-3.72,5.91-5.44a3.19,3.19,0,0,1,1.8,3c-1.61,4.22-2.83,5-7,4.24l-.92-.87Z" transform="translate(0 -1.31)"/><path class="cls-40" d="M200.36,58.81c1.24,1.83,2.44,3.87,4.4.71,1.19,1.09,2.42,2.14,2.54,4,0,2.21-.5,4.08-2.83,4.73-.74.43-1.42,1-2.35,1a14.51,14.51,0,0,0-3.16,0,16.25,16.25,0,0,1-7.26-3.82c-1.46-1.39-2.86-2.9-1.32-5.2,2.1-1.47,3.67-.83,4.86,1.36C198,62.86,199.1,60.67,200.36,58.81Z" transform="translate(0 -1.31)"/><path class="cls-63" d="M210.46,63.27c.92,2.48,3.93,3.34,4.26,6.26,2.55,3.08-.48,4.86-1.47,7.12a4,4,0,0,1-.95.88l-.11.15c-2.41.25-1.8-1.92-2.24-3.22-.35-1.83-2.57-2-3-3.85a12.36,12.36,0,0,1,2.52-6.39Z" transform="translate(0 -1.31)"/><path class="cls-54" d="M209.5,64.22c2,2.79.5,4.59-1.53,6.25a2.17,2.17,0,0,1-2.58,1c-1.89-1-2.32-2.55-1.57-4.57l3.48-3.4Z" transform="translate(0 -1.31)"/><path class="cls-90" d="M176.6,61.55q-.36-3.59-.73-7.18c1.91-.11,3.8-1.26,5.71,0a26.13,26.13,0,0,0-.76,8,1.48,1.48,0,0,1-.87.51c-1.41-.3-2,3-3.78,1A2.61,2.61,0,0,1,176.6,61.55Z" transform="translate(0 -1.31)"/><path class="cls-77" d="M176.6,61.55l.15,2.59c1.72.73,1.28-3.14,3.3-1.74l.77,0,1.58.1a6.77,6.77,0,0,1,.22.77c2.75.6,2.4,2.77,2.21,4.87-.06,1.65,1.2,2.87,1.32,4.47a2.84,2.84,0,0,1-.37,1.14c-1.73.75-2,2.63-2.77,4.12-1.59,1.78-3.27.7-4.93.17-2.36-1.08-2.37-3.64-3.16-5.71l-.72-2.75c.88-2.11-1.17-3-1.7-4.44l1.64-3.62Z" transform="translate(0 -1.31)"/><path class="cls-164" d="M182.65,67.88c1-1.55,1.23-3.1,0-4.63,1.51-.33,2.16-1.89,3.37-2.65h.87c3.47.64,4.25,2.65,2.63,5.87a15.92,15.92,0,0,1-5.23,3.07C183.36,69.38,182.45,69.25,182.65,67.88Z" transform="translate(0 -1.31)"/><path class="cls-11" d="M188.52,66c1.39-2.47-.86-3.68-1.66-5.4a2.59,2.59,0,0,1,2.53-1.74c.78.35,1.54.73,1.68,1.76.61,5.49,4.81,5.48,8.49,6.28-.55,3.61-3.26,1.72-5,2.23-1.67.11-3.23-.64-4.9-.73C188.33,68.32,187.58,67.47,188.52,66Z" transform="translate(0 -1.31)"/><path class="cls-11" d="M191.07,60.61l-1.68-1.76q0-.42.06-.84a1.63,1.63,0,0,0,2.48-1,5.51,5.51,0,0,0,5.47.59,2.6,2.6,0,0,1,0,.26l-2.19,3.66C193.84,61.27,192.64,60,191.07,60.61Z" transform="translate(0 -1.31)"/><path class="cls-165" d="M142.62,58l-2.33-1A15,15,0,0,1,139,47.1c.35-2.13,1.54-4.1,1.13-6.37l1.17-3.21,1.39-1.35c2.69,2.23.45,5.68,1.81,8.24C142.39,48.7,143.08,53.43,142.62,58Z" transform="translate(0 -1.31)"/><path class="cls-56" d="M125.08,46.21l.09-1.16q1.13-2.19,2.23-4.38c3.71.78,3.9,1.24,2.77,6.49l.2,1.71C126.65,50.62,125.69,50.13,125.08,46.21Z" transform="translate(0 -1.31)"/><path class="cls-124" d="M130.17,47.16c-.47-2.38-.37-5-2.77-6.49a3.86,3.86,0,0,1,.93-2.64c3,.54,3.37,3,3.57,5.59C131.33,44.8,130.75,46,130.17,47.16Z" transform="translate(0 -1.31)"/><path class="cls-166" d="M140.13,40.73c.56.67,1.21,1.4.9,2.33a12.33,12.33,0,0,0,.36,9c.71,1.74-.15,3.44-1.1,4.95s-2.11,1.11-3.34.84c-1.81-1.31-3-2.86-1.72-5.29Q137.68,46.64,140.13,40.73Z" transform="translate(0 -1.31)"/><path class="cls-141" d="M135.23,52.56A14.76,14.76,0,0,1,137,57.85l-.89,1.72c-.6.81-1.64,1.08-2.12.39-1.93-2.75-5.47-4-6.4-7.63.33-2.21,1.68-2.86,3.6-2.6l2.09,1.05Z" transform="translate(0 -1.31)"/><path class="cls-131" d="M131.14,49.73l-2.7,2.82c.22,1.94-1.3,1.53-2.26,1.88a6.48,6.48,0,0,1-2-.63,5.1,5.1,0,0,1-3.38-5c.07-2.65,2.6-2,4.21-2.54l0,0a11.65,11.65,0,0,0,5.29,2.66C130.63,49.15,130.88,49.44,131.14,49.73Z" transform="translate(0 -1.31)"/><path class="cls-56" d="M125,46.23c-1,1.1-3.27,1.14-2.66,3.43s2.56,2.5,4.37,2.87c1.18,1.44,2.3,3.06,4.13,3.56,1.58.44,2.58,1.21,2.31,3s-1.53,2.33-3,2.61a9.31,9.31,0,0,1-2.93.14,5.64,5.64,0,0,1-3.94-3c-1.11-2.47-4.27-2.8-5.14-5.51-.52-3.84-3.18-5.62-6.05-7.33-1.52-.91-4.09-1.15-3.23-4.21,1.94-1.45,3.51-2.07,5.74.14C117.43,44.7,121.47,45,125,46.23Z" transform="translate(0 -1.31)"/><path class="cls-140" d="M101.18,39a6.29,6.29,0,0,0,.11-.74l.18-2.91a1.67,1.67,0,0,1,1.07-.36c2.17,1.41,3.13,4,4.86,5.8l.83.86c.21,1.2,1.32,1.8,1.68,2.9.29,4.07,4.36,4.1,6.17,6.55,1.09,1.23,1.93,2.49.53,4.08-3.31-1.37-5.26-5.39-9.28-5.38C104.82,46.48,105.19,41.32,101.18,39Z" transform="translate(0 -1.31)"/><path class="cls-30" d="M109.07,44.34c0-1-2.62-1.08-.84-2.7a3.11,3.11,0,0,0,.67.16c3,2.17,6,4.25,8.88,6.53,1.37,1.09,3.18,2,3.1,4.35-2.51,1.55-3.77-.77-5.42-1.93C113.54,48.38,109.83,48,109.07,44.34Z" transform="translate(0 -1.31)"/><path class="cls-56" d="M107.4,40.77c-2.84-.48-4.2-2.65-5.24-5.19.7-1.56,1.93-1.88,3-.82s2.29.7,3.5.57L112,36.57Z" transform="translate(0 -1.31)"/><path class="cls-146" d="M108.7,35.33c-.33,2-1.17,3.06-3.12,1.71-1-.74-2.07-1.55-3.42-1.46l-.69-.25c0-.94-.13-1.93.77-2.57C105,32,106.66,34.16,108.7,35.33Z" transform="translate(0 -1.31)"/><path class="cls-165" d="M159.75,85.75l2.54.91c2.14,1.29,4-.46,6-.64a18.07,18.07,0,0,1,4.66.54c2.77-.1,3.62,1.73,3.75,4.24.06,1.32-.51,2.63-.08,4l-.82,1.75c-4.41-1.67-9.57-.07-13.57-3.52-.32-1.11-1.28-1.58-2-2.28-1-1.79-3.68-2.34-3.46-5.09C157.84,84.09,158.83,84.15,159.75,85.75Z" transform="translate(0 -1.31)"/><path class="cls-147" d="M151.4,91.32c-8-.78-16.2-.24-23.85-3.67,0-3.24,1.77-3.84,4.11-2.72a24,24,0,0,0,3.12.88,10.3,10.3,0,0,0,1.84.14,12.39,12.39,0,0,1,4,.06c3.38-.23,6.76-.48,9.83-2.28C154.21,86,154.49,88.27,151.4,91.32Z" transform="translate(0 -1.31)"/><path class="cls-70" d="M135.15,87.48c-2.52.8-5.12-2.8-7.6.17l-1.67-1.12a3.23,3.23,0,0,1-.63-1c.31-2,1.71-3.71,1.19-5.89a4.22,4.22,0,0,1,.33-1.3c2.09-3.36,4.47.15,6.69-.34,1.82.41,3.64.82,3.79,3.36a6.26,6.26,0,0,1-.18,1.3C136.28,84.18,136.4,86.14,135.15,87.48Z" transform="translate(0 -1.31)"/><path class="cls-109" d="M125.89,85.71c0,.28,0,.55,0,.82l-4.2.06c-2.63-1.34-5.69-1.82-7.74-4.33,1.76-.63,1.78-3,3.41-3.79,1.08,1.7,2.2,2.24,3.44.17l.07-.11c1.78-1.45,3-.88,3.81,1.19C125.3,81.67,126.39,83.51,125.89,85.71Z" transform="translate(0 -1.31)"/><path class="cls-162" d="M151.4,91.32,148,90.88c4.24-1.21,4.72-3.24,2.43-6a1.64,1.64,0,0,1,.37-2.47,2.44,2.44,0,0,1,1.29-.29c1.75.88,3.44,1.83,4.12,4,.32,1.35,1.74,2.66.12,4.08Z" transform="translate(0 -1.31)"/><path class="cls-11" d="M156.34,90.14c-.24-1.14-1.27-2.06-.85-3.39,2.65,0,4,2.28,5.94,3.63.4.83,1.27,1.49.84,2.61C160.32,92,158,91.89,156.34,90.14Z" transform="translate(0 -1.31)"/><path class="cls-72" d="M176.66,94.76c-1.51-.3-3.4-.48-2.32-2.88s-.21-2.58-1.88-2.54c-1.59-5.77-.81-6.79,5-6.54.83.31,1.54,1.06,2.55.84,2.47.56,5.09-.15,7.46,1.09a3.27,3.27,0,0,1,1.1,1.58c.38,4-3.23,4.57-5.11,6.62C180.86,92.22,178.88,94,176.66,94.76Z" transform="translate(0 -1.31)"/><path class="cls-122" d="M183.43,92.93c.44-2.84,3.71-3.53,4.25-6.3a1.89,1.89,0,0,1,1.82-1.71c3.18,2,3.18,2-.66,5.56.46,1.7,2.15.83,3,1.6C189.31,95.13,186.19,92,183.43,92.93Z" transform="translate(0 -1.31)"/><path class="cls-167" d="M120.79,78.64c1.19,1.26,1.81,2.83-.27,3.37-2.38.61-3.1-1.34-3.17-3.54a5.49,5.49,0,0,0,0-.81A3.74,3.74,0,0,0,120.79,78.64Z" transform="translate(0 -1.31)"/><path class="cls-52" d="M124.18,58c1.76-.06,2.54,1.35,3.45,2.58,2.11.71,1.56,2.84,2.11,4.39.22,2.27,1,4.65-1.27,6.37-1.91.88-3.2-.21-4-1.78A18.32,18.32,0,0,0,122.52,66l-2.4-2.82c-1.33.34-1.86-.81-2.58-1.59l-1.82-1.08c0-.55,0-1.11,0-1.66,1.45-.74-.29-3.18,1.71-3.62C120.19,54.77,121.8,57.43,124.18,58Z" transform="translate(0 -1.31)"/><path class="cls-168" d="M122.52,66c2.63.52,3.18,4.14,5.93,4.49l.5.45a2.44,2.44,0,0,1-.58,3.11c-1.48.66-2.06,3.21-4.29,2.32-.66-.63-1.22-1.29-.64-2.3Z" transform="translate(0 -1.31)"/><path class="cls-95" d="M123.44,74.06l.85,1.61c2,.4,2.94,1.8,3.35,3.76l0,0c0,3.21,0,3.21-4.2,1.75a2.67,2.67,0,0,0-2.53-2.69,4.58,4.58,0,0,1-1.67-3.47C121.32,78.12,121.93,73.94,123.44,74.06Z" transform="translate(0 -1.31)"/><path class="cls-94" d="M117.54,61.58a3.16,3.16,0,0,1,2.58,1.59c0,2,1.36,3.84.57,6.09-1.76.19-1.52-1.73-2.34-2.45C118,65.09,117.22,63.43,117.54,61.58Z" transform="translate(0 -1.31)"/><path class="cls-138" d="M124.18,58c-3.77,3.25-5-.4-6.74-2.77-.28,0-.56,0-.83-.06-.57-1.19-1.14-2.38-1.7-3.57-.4-1,0-1.47.85-1.77,2.06.24,3.32,2.09,5.12,2.86C121.14,55,124.86,55,124.18,58Z" transform="translate(0 -1.31)"/><path class="cls-70" d="M205.44,70.31l2.53.16c.55,1.7,4.25-.94,3.35,2.75-1.12,1.3-2.22.09-3.33,0-3,1-3.46,3.34-2.94,6.23.27,1.47,1.22,3.28-1.31,3.64a8.2,8.2,0,0,1-2.37.17A4.38,4.38,0,0,1,199,81.3c-.63-1.4-2-2.35-2.23-4A4.63,4.63,0,0,1,198.7,74C201.61,74.14,202.26,69.57,205.44,70.31Z" transform="translate(0 -1.31)"/><path class="cls-91" d="M212.3,77.53c0-.29,0-.58,0-.88,1.6-4,4.84-2.82,7.72-2.8.92.32,1.19,1.18,1.49,2a5.33,5.33,0,0,1-.79,3.72H219c-3,.28-1.4,2.76-1.83,4.27-.81-.87-1.62-1.75-2.44-2.62Z" transform="translate(0 -1.31)"/><path class="cls-169" d="M202.07,82.25l1.67.81c-2.22,2.79-5,4.17-8.46,3.55-.61-1-1.37-2-.81-3.35a2,2,0,0,1,.72-1.68C197.57,80.75,199.64,83.55,202.07,82.25Z" transform="translate(0 -1.31)"/><path class="cls-169" d="M208,73.19c1.12-1,2.22-.07,3.33,0a8.09,8.09,0,0,0,.87,4.46l-3.69,2.37C207.44,77.67,209.41,75.24,208,73.19Z" transform="translate(0 -1.31)"/><path class="cls-48" d="M189.5,84.92c-.06.8.15,1.83-.24,2.33-.53.67-1-.42-1.58-.62l-.73-1c-2.52-3.06-5.94-.94-8.85-1.74-1.27-.66-2.79-.28-4-1.16-1.05-4,2.67-4.12,4.31-5.93,1.41.33,2.81.66,4.21,0,.15-2.2,2-2.91,3.24-4.09,2,.08,2.94-3.28,5.35-1.84a2.56,2.56,0,0,1-.17,3.87c-1.11,1.14-.47,2.13.21,3.13a1.79,1.79,0,0,1-.19,1.76Q190.27,82.25,189.5,84.92Z" transform="translate(0 -1.31)"/><path class="cls-170" d="M195.34,82.21l-.87,1-2.68-3.61c.38-2.27,1.72-4,3-5.66,1.76-.35,2.81-3.32,5.14-1.59a2,2,0,0,1-.35,2.58l-1.77,2.73c.87,2-.64,2.75-1.68,3.77Z" transform="translate(0 -1.31)"/><path class="cls-161" d="M195.55,74.94a8,8,0,0,1-3.76,4.7,3.49,3.49,0,0,0-.72,0l-.8-1c-.47-3.78.19-4.48,4.39-4.66A2.21,2.21,0,0,1,195.55,74.94Z" transform="translate(0 -1.31)"/><path class="cls-162" d="M219.94,62.36l1.62,0c1.33,1.66,2.77,3.24,4,5,1.38,2.06,1.91.51,2.63-.52,0,.62.09,1.23.14,1.85,1.11,3.38.51,5.32-3.37,4.49-3.26-.46-5.85-4.25-6.17-9A3.83,3.83,0,0,1,219.94,62.36Z" transform="translate(0 -1.31)"/><path class="cls-136" d="M219.79,64.17c.8,3.6,3.07,6.25,5.14,9l-1,1.69-2.42,1-1.82-1C216.7,71.26,216.76,66.13,219.79,64.17Z" transform="translate(0 -1.31)"/><path class="cls-136" d="M240.2,67.83l.73,1.14c-1,1.27-1.48,3-3.3,3.34l-2.61,0a5.79,5.79,0,0,1-.72-3.61C236.1,67.08,238.19,67.79,240.2,67.83Z" transform="translate(0 -1.31)"/><path class="cls-68" d="M219.79,64.17c-2.43,3.54.71,7.13-.11,10.68-.87,1.33-1.39,3.48-3.57,1.66-1.3-1.09-2.56-.21-3.82.14-.22-2.77,1.79-4.68,2.43-7.12A5.45,5.45,0,0,0,217,65.46c.24-1.74,1-3.09,3-3.1Z" transform="translate(0 -1.31)"/><path class="cls-122" d="M128.64,65c-1.69-1.11-1.25-2.77-1-4.39,1.16-1.09,3.1-.43,4.42-2.52-5.09,1.32-4-3.23-5.3-5.52l1.69,0a42.19,42.19,0,0,1,7.62,7c3.39.61,4.86,2.93,5.08,6.38,3.33,3,3.33,3-.59,8a2.87,2.87,0,0,1-1.16.69c-1.4.06-3.38,0-3.73-1.26C134.57,69.26,131.51,67.26,128.64,65Z" transform="translate(0 -1.31)"/><path class="cls-171" d="M152.05,83.15l-.76-.08c-2.7.06-5.59.6-6.85-3a3.12,3.12,0,0,1,1.58-3.5c3-1.23,5.77.79,8.67,1.06l1.66.87c1.45,2.26,4.52,3.66,3.4,7.27h-2.54C155.21,85.5,154,83.47,152.05,83.15Z" transform="translate(0 -1.31)"/><path class="cls-35" d="M154.69,77.61c-2.51,3.32-5.05,1.19-7.59,0-1.31-.83-1.49-2.08-1.15-3.52a2.41,2.41,0,0,1,2.13-2C152.5,71,154.22,73.42,154.69,77.61Z" transform="translate(0 -1.31)"/><path class="cls-56" d="M148.08,72.15,147,74.08c-2.82,2-5.4,2.06-7.61-1,1.73-2.06,3.22-4.17,1.73-7.11C145.7,65.3,146.58,66.08,148.08,72.15Z" transform="translate(0 -1.31)"/><path class="cls-78" d="M178.42,76.8c2.86,5.72-3.07,3.36-4.32,5.3-1.94,2.81-1.83-.08-2.43-1-.2-1.91-1.68-2.93-2.67-4.29,2.15-1.25,4.35-2.4,5.92-4.51A5.14,5.14,0,0,1,178.42,76.8Z" transform="translate(0 -1.31)"/><path class="cls-169" d="M171.67,81.11c.61.88,1.14,2,2.43,1l4.23,1.06a.62.62,0,0,1,.3.57c0,.22-.06.34-.12.34a.68.68,0,0,1-.92,0c-3.74-.45-5.55,1.22-5.14,5.31-1.31-.67-2.16-3.63-4.13,0-.72,1.34-4.67.14-6-2.69,1.69-2,2.61-5.4,6.44-2.77C170.49,85.11,171.68,83.27,171.67,81.11Z" transform="translate(0 -1.31)"/><path class="cls-25" d="M195.55,74.94l-1.16-.14c-1-1.27-1.24-3.39-3.36-3.44-1.74.7-2.93,3.06-5.26,1.92-.32.29-.54.22-.64-.22v-.67c-.08-2.29.72-3.82,3.06-4a8.83,8.83,0,0,1,5.25-.48c2.05-.28,4.2.21,6.12-1l2.63.89c1.31,3,.18,4.35-2.71,4.49C198.21,73.24,197.35,74.86,195.55,74.94Z" transform="translate(0 -1.31)"/><path class="cls-8" d="M199.48,72.27l2.71-4.49,1.63-.86,1.62,3.39c-2.05,1.4-1.33,6.69-5.82,4.66C199.57,74.07,199.53,73.17,199.48,72.27Z" transform="translate(0 -1.31)"/><path class="cls-132" d="M180.05,62.4c-1.42-.12-.8,4.13-3.3,1.74.22-.68.44-1.37.65-2,.49-1.65-.59-4.76,1.58-4.62C180.86,57.59,179.74,60.66,180.05,62.4Z" transform="translate(0 -1.31)"/><path class="cls-172" d="M188.45,69.58l-3.32,2.81a4.88,4.88,0,0,0-2.42-1.6c-3.57-.84-2-1.9-.06-2.91l1.64.8C185.94,67.56,187.35,67.76,188.45,69.58Z" transform="translate(0 -1.31)"/><path class="cls-85" d="M185.13,73.06a4.83,4.83,0,0,0,.64.22c-1.17,1-.88,3.56-3.14,3.48-.73-.85-1.47-1.71-2.26-2.61C181.77,72.54,183.55,73.29,185.13,73.06Z" transform="translate(0 -1.31)"/><path class="cls-88" d="M188.45,69.58l-4.16-.9c.81-2,2.57-2.23,4.23-2.69,1.58.82,3.74-.09,4.92,1.89Z" transform="translate(0 -1.31)"/><path class="cls-9" d="M115.76,49.82l-.85,1.77c-1.72-1.42-4.1-1.82-5.44-3.79-.68-1-2.5-2-.4-3.46C111.4,46,114.17,47.11,115.76,49.82Z" transform="translate(0 -1.31)"/><path class="cls-169" d="M152.05,83.15c2.55-1,3.71,1.14,5.16,2.6s3.57,2.31,4.22,4.63c-2.32-.58-4-2.36-5.94-3.63Z" transform="translate(0 -1.31)"/><path class="cls-113" d="M145.4,80.32c2.9-1.34,3.83,2.06,5.89,2.75-.29.59-.57,1.18-.85,1.78-.66,2.51-2.15,3.89-4.64,3.19-2.14-.61-3.79.49-5.58,1.22-2.13-3.46-1.94-6.58,1.24-9.25C142.86,78.87,144.16,79.1,145.4,80.32Z" transform="translate(0 -1.31)"/><path class="cls-109" d="M141.92,81.34c-1.82,2.34-.92,5.34-1.7,7.92L137,87.42c-1.36-1.18-1.15-2.77-1-4.35l.07-1c1.15-1.21,1.47-3.33,3.51-3.54A2.34,2.34,0,0,1,141.92,81.34Z" transform="translate(0 -1.31)"/><path class="cls-11" d="M136,83.07c.32,1.45.65,2.9,1,4.35l-1.87.06c.52-2.92-2.74-3.6-3.41-6C133.7,81,134.67,82.62,136,83.07Z" transform="translate(0 -1.31)"/><path class="cls-123" d="M127.64,79.43c-1.77-.59-2.58-2.16-3.35-3.76.9-1.17,1.58-2.66,3.31-2.66a9.45,9.45,0,0,0,4.63-.25,3.83,3.83,0,0,1,3.82,2.09,4.57,4.57,0,0,1,.33,1.32c.39,3.15-2.24,2.48-3.7,3.29C131,79.88,129.34,77.25,127.64,79.43Z" transform="translate(0 -1.31)"/><path class="cls-103" d="M132.68,79.46c.85-.9,1.71-1.8,2.56-2.71,2.51-.86,4.17-.35,4.12,2.89-.93,1-1.22,3-3.25,2.46A3.38,3.38,0,0,0,132.68,79.46Z" transform="translate(0 -1.31)"/><path class="cls-173" d="M123.39,81.22c1.28-.91,3.36.36,4.2-1.75,2.89,3.14-.64,4.32-1.7,6.24Z" transform="translate(0 -1.31)"/><path class="cls-165" d="M178.36,84l0-.8A31.86,31.86,0,0,0,181.92,82c3.47-1.54,5.06-.28,5,3.61-2.26-.62-5,3.22-6.89-.78A1.4,1.4,0,0,1,178.36,84Z" transform="translate(0 -1.31)"/><path class="cls-174" d="M178.36,84l1.7.89c.07,1.42.15,2.83.28,5.16-2.82-1.62-2.86-3.75-2.75-6Z" transform="translate(0 -1.31)"/><path class="cls-132" d="M135.2,75.88,131.84,74c-2.32.13-2.5-2.08-3.4-3.51v0c-.46-1.86-2-3.76.19-5.52,5.79-.8,7.2.29,8.32,6.43a2.27,2.27,0,0,0,1.64,1.77C138.94,76.14,137.7,76.9,135.2,75.88Z" transform="translate(0 -1.31)"/><path class="cls-51" d="M128.44,70.46c1.48.79,2.95,1.6,3.4,3.51-2.36,4.4-3.15,1-4.24-1Z" transform="translate(0 -1.31)"/><path class="cls-132" d="M195.34,82.21l.12-.84c1.47-1.16,2.89-2.64,4.83-.88l1.78,1.76C199.81,85.4,197.58,83,195.34,82.21Z" transform="translate(0 -1.31)"/><path class="cls-51" d="M200.29,80.49l-4.83.88c-1.51-2.92,2.17-2,2.39-3.67A4,4,0,0,1,200.29,80.49Z" transform="translate(0 -1.31)"/><path class="cls-129" d="M191,71.36a3.48,3.48,0,0,1,2.42-1.58c1.25-.1,2.81-.34,3.48.84s-.88,1.91-1.48,2.81c-.32.48-.7.91-1.06,1.37-.89,1.84-3.68,1.35-4.12,3.76-1.93-.44-3.43-1-1.53-3.47A36.82,36.82,0,0,0,191,71.36Z" transform="translate(0 -1.31)"/><path class="cls-175" d="M135.2,75.88a5.3,5.3,0,0,0,3.4-2.72l.81-.1a15.48,15.48,0,0,1,7.61,1c0,1.19,0,2.39.08,3.58a4.13,4.13,0,0,0-1.7,2.66l-3.48,1-2.56-1.7-4.12-2.89C135.24,76.46,135.22,76.17,135.2,75.88Z" transform="translate(0 -1.31)"/></svg>